<?xml version="1.0" encoding="utf-8" standalone="no"?>
<!DOCTYPE svg PUBLIC "-//W3C//DTD SVG 1.1//EN"
  "http://www.w3.org/Graphics/SVG/1.1/DTD/svg11.dtd">
<!-- Created with matplotlib (https://matplotlib.org/) -->
<svg height="576pt" version="1.1" viewBox="0 0 864 576" width="864pt" xmlns="http://www.w3.org/2000/svg" xmlns:xlink="http://www.w3.org/1999/xlink">
 <metadata>
  <rdf:RDF xmlns:cc="http://creativecommons.org/ns#" xmlns:dc="http://purl.org/dc/elements/1.1/" xmlns:rdf="http://www.w3.org/1999/02/22-rdf-syntax-ns#">
   <cc:Work>
    <dc:type rdf:resource="http://purl.org/dc/dcmitype/StillImage"/>
    <dc:date>2021-11-03T17:15:58.913994</dc:date>
    <dc:format>image/svg+xml</dc:format>
    <dc:creator>
     <cc:Agent>
      <dc:title>Matplotlib v3.3.2, https://matplotlib.org/</dc:title>
     </cc:Agent>
    </dc:creator>
   </cc:Work>
  </rdf:RDF>
 </metadata>
 <defs>
  <style type="text/css">*{stroke-linecap:butt;stroke-linejoin:round;}</style>
 </defs>
 <g id="figure_1">
  <g id="patch_1">
   <path d="M 0 576 
L 864 576 
L 864 0 
L 0 0 
z
" style="fill:#ffffff;"/>
  </g>
  <g id="axes_1">
   <g id="patch_2">
    <path d="M 108 504 
L 777.6 504 
L 777.6 69.12 
L 108 69.12 
z
" style="fill:#ffffff;"/>
   </g>
   <g id="matplotlib.axis_1">
    <g id="xtick_1">
     <g id="line2d_1">
      <path clip-path="url(#pa2c1436297)" d="M 108 504 
L 108 69.12 
" style="fill:none;stroke:#cccccc;stroke-linecap:round;"/>
     </g>
     <g id="text_1">
      <!-- 0 -->
      <g style="fill:#262626;" transform="translate(104.941484 521.373594)scale(0.11 -0.11)">
       <defs>
        <path d="M 4.15625 35.296875 
Q 4.15625 48 6.765625 55.734375 
Q 9.375 63.484375 14.515625 67.671875 
Q 19.671875 71.875 27.484375 71.875 
Q 33.25 71.875 37.59375 69.546875 
Q 41.9375 67.234375 44.765625 62.859375 
Q 47.609375 58.5 49.21875 52.21875 
Q 50.828125 45.953125 50.828125 35.296875 
Q 50.828125 22.703125 48.234375 14.96875 
Q 45.65625 7.234375 40.5 3 
Q 35.359375 -1.21875 27.484375 -1.21875 
Q 17.140625 -1.21875 11.234375 6.203125 
Q 4.15625 15.140625 4.15625 35.296875 
z
M 13.1875 35.296875 
Q 13.1875 17.671875 17.3125 11.828125 
Q 21.4375 6 27.484375 6 
Q 33.546875 6 37.671875 11.859375 
Q 41.796875 17.71875 41.796875 35.296875 
Q 41.796875 52.984375 37.671875 58.78125 
Q 33.546875 64.59375 27.390625 64.59375 
Q 21.34375 64.59375 17.71875 59.46875 
Q 13.1875 52.9375 13.1875 35.296875 
z
" id="ArialMT-48"/>
       </defs>
       <use xlink:href="#ArialMT-48"/>
      </g>
     </g>
    </g>
    <g id="xtick_2">
     <g id="line2d_2">
      <path clip-path="url(#pa2c1436297)" d="M 187.809297 504 
L 187.809297 69.12 
" style="fill:none;stroke:#cccccc;stroke-linecap:round;"/>
     </g>
     <g id="text_2">
      <!-- 5 -->
      <g style="fill:#262626;" transform="translate(184.750781 521.373594)scale(0.11 -0.11)">
       <defs>
        <path d="M 4.15625 18.75 
L 13.375 19.53125 
Q 14.40625 12.796875 18.140625 9.390625 
Q 21.875 6 27.15625 6 
Q 33.5 6 37.890625 10.78125 
Q 42.28125 15.578125 42.28125 23.484375 
Q 42.28125 31 38.0625 35.34375 
Q 33.84375 39.703125 27 39.703125 
Q 22.75 39.703125 19.328125 37.765625 
Q 15.921875 35.84375 13.96875 32.765625 
L 5.71875 33.84375 
L 12.640625 70.609375 
L 48.25 70.609375 
L 48.25 62.203125 
L 19.671875 62.203125 
L 15.828125 42.96875 
Q 22.265625 47.46875 29.34375 47.46875 
Q 38.71875 47.46875 45.15625 40.96875 
Q 51.609375 34.46875 51.609375 24.265625 
Q 51.609375 14.546875 45.953125 7.46875 
Q 39.0625 -1.21875 27.15625 -1.21875 
Q 17.390625 -1.21875 11.203125 4.25 
Q 5.03125 9.71875 4.15625 18.75 
z
" id="ArialMT-53"/>
       </defs>
       <use xlink:href="#ArialMT-53"/>
      </g>
     </g>
    </g>
    <g id="xtick_3">
     <g id="line2d_3">
      <path clip-path="url(#pa2c1436297)" d="M 267.618594 504 
L 267.618594 69.12 
" style="fill:none;stroke:#cccccc;stroke-linecap:round;"/>
     </g>
     <g id="text_3">
      <!-- 10 -->
      <g style="fill:#262626;" transform="translate(261.501562 521.373594)scale(0.11 -0.11)">
       <defs>
        <path d="M 37.25 0 
L 28.46875 0 
L 28.46875 56 
Q 25.296875 52.984375 20.140625 49.953125 
Q 14.984375 46.921875 10.890625 45.40625 
L 10.890625 53.90625 
Q 18.265625 57.375 23.78125 62.296875 
Q 29.296875 67.234375 31.59375 71.875 
L 37.25 71.875 
z
" id="ArialMT-49"/>
       </defs>
       <use xlink:href="#ArialMT-49"/>
       <use x="55.615234" xlink:href="#ArialMT-48"/>
      </g>
     </g>
    </g>
    <g id="xtick_4">
     <g id="line2d_4">
      <path clip-path="url(#pa2c1436297)" d="M 347.42789 504 
L 347.42789 69.12 
" style="fill:none;stroke:#cccccc;stroke-linecap:round;"/>
     </g>
     <g id="text_4">
      <!-- 15 -->
      <g style="fill:#262626;" transform="translate(341.310859 521.373594)scale(0.11 -0.11)">
       <use xlink:href="#ArialMT-49"/>
       <use x="55.615234" xlink:href="#ArialMT-53"/>
      </g>
     </g>
    </g>
    <g id="xtick_5">
     <g id="line2d_5">
      <path clip-path="url(#pa2c1436297)" d="M 427.237187 504 
L 427.237187 69.12 
" style="fill:none;stroke:#cccccc;stroke-linecap:round;"/>
     </g>
     <g id="text_5">
      <!-- 20 -->
      <g style="fill:#262626;" transform="translate(421.120156 521.373594)scale(0.11 -0.11)">
       <defs>
        <path d="M 50.34375 8.453125 
L 50.34375 0 
L 3.03125 0 
Q 2.9375 3.171875 4.046875 6.109375 
Q 5.859375 10.9375 9.828125 15.625 
Q 13.8125 20.3125 21.34375 26.46875 
Q 33.015625 36.03125 37.109375 41.625 
Q 41.21875 47.21875 41.21875 52.203125 
Q 41.21875 57.421875 37.46875 61 
Q 33.734375 64.59375 27.734375 64.59375 
Q 21.390625 64.59375 17.578125 60.78125 
Q 13.765625 56.984375 13.71875 50.25 
L 4.6875 51.171875 
Q 5.609375 61.28125 11.65625 66.578125 
Q 17.71875 71.875 27.9375 71.875 
Q 38.234375 71.875 44.234375 66.15625 
Q 50.25 60.453125 50.25 52 
Q 50.25 47.703125 48.484375 43.546875 
Q 46.734375 39.40625 42.65625 34.8125 
Q 38.578125 30.21875 29.109375 22.21875 
Q 21.1875 15.578125 18.9375 13.203125 
Q 16.703125 10.84375 15.234375 8.453125 
z
" id="ArialMT-50"/>
       </defs>
       <use xlink:href="#ArialMT-50"/>
       <use x="55.615234" xlink:href="#ArialMT-48"/>
      </g>
     </g>
    </g>
    <g id="xtick_6">
     <g id="line2d_6">
      <path clip-path="url(#pa2c1436297)" d="M 507.046484 504 
L 507.046484 69.12 
" style="fill:none;stroke:#cccccc;stroke-linecap:round;"/>
     </g>
     <g id="text_6">
      <!-- 25 -->
      <g style="fill:#262626;" transform="translate(500.929453 521.373594)scale(0.11 -0.11)">
       <use xlink:href="#ArialMT-50"/>
       <use x="55.615234" xlink:href="#ArialMT-53"/>
      </g>
     </g>
    </g>
    <g id="xtick_7">
     <g id="line2d_7">
      <path clip-path="url(#pa2c1436297)" d="M 586.855781 504 
L 586.855781 69.12 
" style="fill:none;stroke:#cccccc;stroke-linecap:round;"/>
     </g>
     <g id="text_7">
      <!-- 30 -->
      <g style="fill:#262626;" transform="translate(580.738749 521.373594)scale(0.11 -0.11)">
       <defs>
        <path d="M 4.203125 18.890625 
L 12.984375 20.0625 
Q 14.5 12.59375 18.140625 9.296875 
Q 21.78125 6 27 6 
Q 33.203125 6 37.46875 10.296875 
Q 41.75 14.59375 41.75 20.953125 
Q 41.75 27 37.796875 30.921875 
Q 33.84375 34.859375 27.734375 34.859375 
Q 25.25 34.859375 21.53125 33.890625 
L 22.515625 41.609375 
Q 23.390625 41.5 23.921875 41.5 
Q 29.546875 41.5 34.03125 44.421875 
Q 38.53125 47.359375 38.53125 53.46875 
Q 38.53125 58.296875 35.25 61.46875 
Q 31.984375 64.65625 26.8125 64.65625 
Q 21.6875 64.65625 18.265625 61.421875 
Q 14.84375 58.203125 13.875 51.765625 
L 5.078125 53.328125 
Q 6.6875 62.15625 12.390625 67.015625 
Q 18.109375 71.875 26.609375 71.875 
Q 32.46875 71.875 37.390625 69.359375 
Q 42.328125 66.84375 44.9375 62.5 
Q 47.5625 58.15625 47.5625 53.265625 
Q 47.5625 48.640625 45.0625 44.828125 
Q 42.578125 41.015625 37.703125 38.765625 
Q 44.046875 37.3125 47.5625 32.6875 
Q 51.078125 28.078125 51.078125 21.140625 
Q 51.078125 11.765625 44.234375 5.25 
Q 37.40625 -1.265625 26.953125 -1.265625 
Q 17.53125 -1.265625 11.296875 4.34375 
Q 5.078125 9.96875 4.203125 18.890625 
z
" id="ArialMT-51"/>
       </defs>
       <use xlink:href="#ArialMT-51"/>
       <use x="55.615234" xlink:href="#ArialMT-48"/>
      </g>
     </g>
    </g>
    <g id="xtick_8">
     <g id="line2d_8">
      <path clip-path="url(#pa2c1436297)" d="M 666.665077 504 
L 666.665077 69.12 
" style="fill:none;stroke:#cccccc;stroke-linecap:round;"/>
     </g>
     <g id="text_8">
      <!-- 35 -->
      <g style="fill:#262626;" transform="translate(660.548046 521.373594)scale(0.11 -0.11)">
       <use xlink:href="#ArialMT-51"/>
       <use x="55.615234" xlink:href="#ArialMT-53"/>
      </g>
     </g>
    </g>
    <g id="xtick_9">
     <g id="line2d_9">
      <path clip-path="url(#pa2c1436297)" d="M 746.474374 504 
L 746.474374 69.12 
" style="fill:none;stroke:#cccccc;stroke-linecap:round;"/>
     </g>
     <g id="text_9">
      <!-- 40 -->
      <g style="fill:#262626;" transform="translate(740.357343 521.373594)scale(0.11 -0.11)">
       <defs>
        <path d="M 32.328125 0 
L 32.328125 17.140625 
L 1.265625 17.140625 
L 1.265625 25.203125 
L 33.9375 71.578125 
L 41.109375 71.578125 
L 41.109375 25.203125 
L 50.78125 25.203125 
L 50.78125 17.140625 
L 41.109375 17.140625 
L 41.109375 0 
z
M 32.328125 25.203125 
L 32.328125 57.46875 
L 9.90625 25.203125 
z
" id="ArialMT-52"/>
       </defs>
       <use xlink:href="#ArialMT-52"/>
       <use x="55.615234" xlink:href="#ArialMT-48"/>
      </g>
     </g>
    </g>
    <g id="text_10">
     <!-- Number of Features -->
     <g style="fill:#262626;" transform="translate(371.665 543.012344)scale(0.16 -0.16)">
      <defs>
       <path d="M 7.625 0 
L 7.625 71.578125 
L 17.328125 71.578125 
L 54.9375 15.375 
L 54.9375 71.578125 
L 64.015625 71.578125 
L 64.015625 0 
L 54.296875 0 
L 16.703125 56.25 
L 16.703125 0 
z
" id="ArialMT-78"/>
       <path d="M 40.578125 0 
L 40.578125 7.625 
Q 34.515625 -1.171875 24.125 -1.171875 
Q 19.53125 -1.171875 15.546875 0.578125 
Q 11.578125 2.34375 9.640625 5 
Q 7.71875 7.671875 6.9375 11.53125 
Q 6.390625 14.109375 6.390625 19.734375 
L 6.390625 51.859375 
L 15.1875 51.859375 
L 15.1875 23.09375 
Q 15.1875 16.21875 15.71875 13.8125 
Q 16.546875 10.359375 19.234375 8.375 
Q 21.921875 6.390625 25.875 6.390625 
Q 29.828125 6.390625 33.296875 8.421875 
Q 36.765625 10.453125 38.203125 13.9375 
Q 39.65625 17.4375 39.65625 24.078125 
L 39.65625 51.859375 
L 48.4375 51.859375 
L 48.4375 0 
z
" id="ArialMT-117"/>
       <path d="M 6.59375 0 
L 6.59375 51.859375 
L 14.453125 51.859375 
L 14.453125 44.578125 
Q 16.890625 48.390625 20.9375 50.703125 
Q 25 53.03125 30.171875 53.03125 
Q 35.9375 53.03125 39.625 50.640625 
Q 43.3125 48.25 44.828125 43.953125 
Q 50.984375 53.03125 60.84375 53.03125 
Q 68.5625 53.03125 72.703125 48.75 
Q 76.859375 44.484375 76.859375 35.59375 
L 76.859375 0 
L 68.109375 0 
L 68.109375 32.671875 
Q 68.109375 37.9375 67.25 40.25 
Q 66.40625 42.578125 64.15625 43.984375 
Q 61.921875 45.40625 58.890625 45.40625 
Q 53.421875 45.40625 49.796875 41.765625 
Q 46.1875 38.140625 46.1875 30.125 
L 46.1875 0 
L 37.40625 0 
L 37.40625 33.6875 
Q 37.40625 39.546875 35.25 42.46875 
Q 33.109375 45.40625 28.21875 45.40625 
Q 24.515625 45.40625 21.359375 43.453125 
Q 18.21875 41.5 16.796875 37.734375 
Q 15.375 33.984375 15.375 26.90625 
L 15.375 0 
z
" id="ArialMT-109"/>
       <path d="M 14.703125 0 
L 6.546875 0 
L 6.546875 71.578125 
L 15.328125 71.578125 
L 15.328125 46.046875 
Q 20.90625 53.03125 29.546875 53.03125 
Q 34.328125 53.03125 38.59375 51.09375 
Q 42.875 49.171875 45.625 45.671875 
Q 48.390625 42.1875 49.953125 37.25 
Q 51.515625 32.328125 51.515625 26.703125 
Q 51.515625 13.375 44.921875 6.09375 
Q 38.328125 -1.171875 29.109375 -1.171875 
Q 19.921875 -1.171875 14.703125 6.5 
z
M 14.59375 26.3125 
Q 14.59375 17 17.140625 12.84375 
Q 21.296875 6.0625 28.375 6.0625 
Q 34.125 6.0625 38.328125 11.0625 
Q 42.53125 16.0625 42.53125 25.984375 
Q 42.53125 36.140625 38.5 40.96875 
Q 34.46875 45.796875 28.765625 45.796875 
Q 23 45.796875 18.796875 40.796875 
Q 14.59375 35.796875 14.59375 26.3125 
z
" id="ArialMT-98"/>
       <path d="M 42.09375 16.703125 
L 51.171875 15.578125 
Q 49.03125 7.625 43.21875 3.21875 
Q 37.40625 -1.171875 28.375 -1.171875 
Q 17 -1.171875 10.328125 5.828125 
Q 3.65625 12.84375 3.65625 25.484375 
Q 3.65625 38.578125 10.390625 45.796875 
Q 17.140625 53.03125 27.875 53.03125 
Q 38.28125 53.03125 44.875 45.953125 
Q 51.46875 38.875 51.46875 26.03125 
Q 51.46875 25.25 51.421875 23.6875 
L 12.75 23.6875 
Q 13.234375 15.140625 17.578125 10.59375 
Q 21.921875 6.0625 28.421875 6.0625 
Q 33.25 6.0625 36.671875 8.59375 
Q 40.09375 11.140625 42.09375 16.703125 
z
M 13.234375 30.90625 
L 42.1875 30.90625 
Q 41.609375 37.453125 38.875 40.71875 
Q 34.671875 45.796875 27.984375 45.796875 
Q 21.921875 45.796875 17.796875 41.75 
Q 13.671875 37.703125 13.234375 30.90625 
z
" id="ArialMT-101"/>
       <path d="M 6.5 0 
L 6.5 51.859375 
L 14.40625 51.859375 
L 14.40625 44 
Q 17.4375 49.515625 20 51.265625 
Q 22.5625 53.03125 25.640625 53.03125 
Q 30.078125 53.03125 34.671875 50.203125 
L 31.640625 42.046875 
Q 28.421875 43.953125 25.203125 43.953125 
Q 22.3125 43.953125 20.015625 42.21875 
Q 17.71875 40.484375 16.75 37.40625 
Q 15.28125 32.71875 15.28125 27.15625 
L 15.28125 0 
z
" id="ArialMT-114"/>
       <path id="ArialMT-32"/>
       <path d="M 3.328125 25.921875 
Q 3.328125 40.328125 11.328125 47.265625 
Q 18.015625 53.03125 27.640625 53.03125 
Q 38.328125 53.03125 45.109375 46.015625 
Q 51.90625 39.015625 51.90625 26.65625 
Q 51.90625 16.65625 48.90625 10.90625 
Q 45.90625 5.171875 40.15625 2 
Q 34.421875 -1.171875 27.640625 -1.171875 
Q 16.75 -1.171875 10.03125 5.8125 
Q 3.328125 12.796875 3.328125 25.921875 
z
M 12.359375 25.921875 
Q 12.359375 15.96875 16.703125 11.015625 
Q 21.046875 6.0625 27.640625 6.0625 
Q 34.1875 6.0625 38.53125 11.03125 
Q 42.875 16.015625 42.875 26.21875 
Q 42.875 35.84375 38.5 40.796875 
Q 34.125 45.75 27.640625 45.75 
Q 21.046875 45.75 16.703125 40.8125 
Q 12.359375 35.890625 12.359375 25.921875 
z
" id="ArialMT-111"/>
       <path d="M 8.6875 0 
L 8.6875 45.015625 
L 0.921875 45.015625 
L 0.921875 51.859375 
L 8.6875 51.859375 
L 8.6875 57.375 
Q 8.6875 62.59375 9.625 65.140625 
Q 10.890625 68.5625 14.078125 70.671875 
Q 17.28125 72.796875 23.046875 72.796875 
Q 26.765625 72.796875 31.25 71.921875 
L 29.9375 64.265625 
Q 27.203125 64.75 24.75 64.75 
Q 20.75 64.75 19.09375 63.03125 
Q 17.4375 61.328125 17.4375 56.640625 
L 17.4375 51.859375 
L 27.546875 51.859375 
L 27.546875 45.015625 
L 17.4375 45.015625 
L 17.4375 0 
z
" id="ArialMT-102"/>
       <path d="M 8.203125 0 
L 8.203125 71.578125 
L 56.5 71.578125 
L 56.5 63.140625 
L 17.671875 63.140625 
L 17.671875 40.96875 
L 51.265625 40.96875 
L 51.265625 32.515625 
L 17.671875 32.515625 
L 17.671875 0 
z
" id="ArialMT-70"/>
       <path d="M 40.4375 6.390625 
Q 35.546875 2.25 31.03125 0.53125 
Q 26.515625 -1.171875 21.34375 -1.171875 
Q 12.796875 -1.171875 8.203125 3 
Q 3.609375 7.171875 3.609375 13.671875 
Q 3.609375 17.484375 5.34375 20.625 
Q 7.078125 23.78125 9.890625 25.6875 
Q 12.703125 27.59375 16.21875 28.5625 
Q 18.796875 29.25 24.03125 29.890625 
Q 34.671875 31.15625 39.703125 32.90625 
Q 39.75 34.71875 39.75 35.203125 
Q 39.75 40.578125 37.25 42.78125 
Q 33.890625 45.75 27.25 45.75 
Q 21.046875 45.75 18.09375 43.578125 
Q 15.140625 41.40625 13.71875 35.890625 
L 5.125 37.0625 
Q 6.296875 42.578125 8.984375 45.96875 
Q 11.671875 49.359375 16.75 51.1875 
Q 21.828125 53.03125 28.515625 53.03125 
Q 35.15625 53.03125 39.296875 51.46875 
Q 43.453125 49.90625 45.40625 47.53125 
Q 47.359375 45.171875 48.140625 41.546875 
Q 48.578125 39.3125 48.578125 33.453125 
L 48.578125 21.734375 
Q 48.578125 9.46875 49.140625 6.21875 
Q 49.703125 2.984375 51.375 0 
L 42.1875 0 
Q 40.828125 2.734375 40.4375 6.390625 
z
M 39.703125 26.03125 
Q 34.90625 24.078125 25.34375 22.703125 
Q 19.921875 21.921875 17.671875 20.9375 
Q 15.4375 19.96875 14.203125 18.09375 
Q 12.984375 16.21875 12.984375 13.921875 
Q 12.984375 10.40625 15.640625 8.0625 
Q 18.3125 5.71875 23.4375 5.71875 
Q 28.515625 5.71875 32.46875 7.9375 
Q 36.421875 10.15625 38.28125 14.015625 
Q 39.703125 17 39.703125 22.796875 
z
" id="ArialMT-97"/>
       <path d="M 25.78125 7.859375 
L 27.046875 0.09375 
Q 23.34375 -0.6875 20.40625 -0.6875 
Q 15.625 -0.6875 12.984375 0.828125 
Q 10.359375 2.34375 9.28125 4.8125 
Q 8.203125 7.28125 8.203125 15.1875 
L 8.203125 45.015625 
L 1.765625 45.015625 
L 1.765625 51.859375 
L 8.203125 51.859375 
L 8.203125 64.703125 
L 16.9375 69.96875 
L 16.9375 51.859375 
L 25.78125 51.859375 
L 25.78125 45.015625 
L 16.9375 45.015625 
L 16.9375 14.703125 
Q 16.9375 10.9375 17.40625 9.859375 
Q 17.875 8.796875 18.921875 8.15625 
Q 19.96875 7.515625 21.921875 7.515625 
Q 23.390625 7.515625 25.78125 7.859375 
z
" id="ArialMT-116"/>
       <path d="M 3.078125 15.484375 
L 11.765625 16.84375 
Q 12.5 11.625 15.84375 8.84375 
Q 19.1875 6.0625 25.203125 6.0625 
Q 31.25 6.0625 34.171875 8.515625 
Q 37.109375 10.984375 37.109375 14.3125 
Q 37.109375 17.28125 34.515625 19 
Q 32.71875 20.171875 25.53125 21.96875 
Q 15.875 24.421875 12.140625 26.203125 
Q 8.40625 27.984375 6.46875 31.125 
Q 4.546875 34.28125 4.546875 38.09375 
Q 4.546875 41.546875 6.125 44.5 
Q 7.71875 47.46875 10.453125 49.421875 
Q 12.5 50.921875 16.03125 51.96875 
Q 19.578125 53.03125 23.640625 53.03125 
Q 29.734375 53.03125 34.34375 51.265625 
Q 38.96875 49.515625 41.15625 46.5 
Q 43.359375 43.5 44.1875 38.484375 
L 35.59375 37.3125 
Q 35.015625 41.3125 32.203125 43.546875 
Q 29.390625 45.796875 24.265625 45.796875 
Q 18.21875 45.796875 15.625 43.796875 
Q 13.03125 41.796875 13.03125 39.109375 
Q 13.03125 37.40625 14.109375 36.03125 
Q 15.1875 34.625 17.484375 33.6875 
Q 18.796875 33.203125 25.25 31.453125 
Q 34.578125 28.953125 38.25 27.359375 
Q 41.9375 25.78125 44.03125 22.75 
Q 46.140625 19.734375 46.140625 15.234375 
Q 46.140625 10.84375 43.578125 6.953125 
Q 41.015625 3.078125 36.171875 0.953125 
Q 31.34375 -1.171875 25.25 -1.171875 
Q 15.140625 -1.171875 9.84375 3.03125 
Q 4.546875 7.234375 3.078125 15.484375 
z
" id="ArialMT-115"/>
      </defs>
      <use xlink:href="#ArialMT-78"/>
      <use x="72.216797" xlink:href="#ArialMT-117"/>
      <use x="127.832031" xlink:href="#ArialMT-109"/>
      <use x="211.132812" xlink:href="#ArialMT-98"/>
      <use x="266.748047" xlink:href="#ArialMT-101"/>
      <use x="322.363281" xlink:href="#ArialMT-114"/>
      <use x="355.664062" xlink:href="#ArialMT-32"/>
      <use x="383.447266" xlink:href="#ArialMT-111"/>
      <use x="439.0625" xlink:href="#ArialMT-102"/>
      <use x="466.845703" xlink:href="#ArialMT-32"/>
      <use x="494.628906" xlink:href="#ArialMT-70"/>
      <use x="555.712891" xlink:href="#ArialMT-101"/>
      <use x="611.328125" xlink:href="#ArialMT-97"/>
      <use x="666.943359" xlink:href="#ArialMT-116"/>
      <use x="694.726562" xlink:href="#ArialMT-117"/>
      <use x="750.341797" xlink:href="#ArialMT-114"/>
      <use x="783.642578" xlink:href="#ArialMT-101"/>
      <use x="839.257812" xlink:href="#ArialMT-115"/>
     </g>
    </g>
   </g>
   <g id="matplotlib.axis_2">
    <g id="ytick_1">
     <g id="line2d_10">
      <path clip-path="url(#pa2c1436297)" d="M 108 504 
L 777.6 504 
" style="fill:none;stroke:#cccccc;stroke-linecap:round;"/>
     </g>
     <g id="text_11">
      <!-- 0 -->
      <g style="fill:#262626;" transform="translate(92.382969 507.936797)scale(0.11 -0.11)">
       <use xlink:href="#ArialMT-48"/>
      </g>
     </g>
    </g>
    <g id="ytick_2">
     <g id="line2d_11">
      <path clip-path="url(#pa2c1436297)" d="M 108 436.406983 
L 777.6 436.406983 
" style="fill:none;stroke:#cccccc;stroke-linecap:round;"/>
     </g>
     <g id="text_12">
      <!-- 2 -->
      <g style="fill:#262626;" transform="translate(92.382969 440.34378)scale(0.11 -0.11)">
       <use xlink:href="#ArialMT-50"/>
      </g>
     </g>
    </g>
    <g id="ytick_3">
     <g id="line2d_12">
      <path clip-path="url(#pa2c1436297)" d="M 108 368.813966 
L 777.6 368.813966 
" style="fill:none;stroke:#cccccc;stroke-linecap:round;"/>
     </g>
     <g id="text_13">
      <!-- 4 -->
      <g style="fill:#262626;" transform="translate(92.382969 372.750763)scale(0.11 -0.11)">
       <use xlink:href="#ArialMT-52"/>
      </g>
     </g>
    </g>
    <g id="ytick_4">
     <g id="line2d_13">
      <path clip-path="url(#pa2c1436297)" d="M 108 301.220949 
L 777.6 301.220949 
" style="fill:none;stroke:#cccccc;stroke-linecap:round;"/>
     </g>
     <g id="text_14">
      <!-- 6 -->
      <g style="fill:#262626;" transform="translate(92.382969 305.157746)scale(0.11 -0.11)">
       <defs>
        <path d="M 49.75 54.046875 
L 41.015625 53.375 
Q 39.84375 58.546875 37.703125 60.890625 
Q 34.125 64.65625 28.90625 64.65625 
Q 24.703125 64.65625 21.53125 62.3125 
Q 17.390625 59.28125 14.984375 53.46875 
Q 12.59375 47.65625 12.5 36.921875 
Q 15.671875 41.75 20.265625 44.09375 
Q 24.859375 46.4375 29.890625 46.4375 
Q 38.671875 46.4375 44.84375 39.96875 
Q 51.03125 33.5 51.03125 23.25 
Q 51.03125 16.5 48.125 10.71875 
Q 45.21875 4.9375 40.140625 1.859375 
Q 35.0625 -1.21875 28.609375 -1.21875 
Q 17.625 -1.21875 10.6875 6.859375 
Q 3.765625 14.9375 3.765625 33.5 
Q 3.765625 54.25 11.421875 63.671875 
Q 18.109375 71.875 29.4375 71.875 
Q 37.890625 71.875 43.28125 67.140625 
Q 48.6875 62.40625 49.75 54.046875 
z
M 13.875 23.1875 
Q 13.875 18.65625 15.796875 14.5 
Q 17.71875 10.359375 21.1875 8.171875 
Q 24.65625 6 28.46875 6 
Q 34.03125 6 38.03125 10.484375 
Q 42.046875 14.984375 42.046875 22.703125 
Q 42.046875 30.125 38.078125 34.390625 
Q 34.125 38.671875 28.125 38.671875 
Q 22.171875 38.671875 18.015625 34.390625 
Q 13.875 30.125 13.875 23.1875 
z
" id="ArialMT-54"/>
       </defs>
       <use xlink:href="#ArialMT-54"/>
      </g>
     </g>
    </g>
    <g id="ytick_5">
     <g id="line2d_14">
      <path clip-path="url(#pa2c1436297)" d="M 108 233.627932 
L 777.6 233.627932 
" style="fill:none;stroke:#cccccc;stroke-linecap:round;"/>
     </g>
     <g id="text_15">
      <!-- 8 -->
      <g style="fill:#262626;" transform="translate(92.382969 237.564729)scale(0.11 -0.11)">
       <defs>
        <path d="M 17.671875 38.8125 
Q 12.203125 40.828125 9.5625 44.53125 
Q 6.9375 48.25 6.9375 53.421875 
Q 6.9375 61.234375 12.546875 66.546875 
Q 18.171875 71.875 27.484375 71.875 
Q 36.859375 71.875 42.578125 66.421875 
Q 48.296875 60.984375 48.296875 53.171875 
Q 48.296875 48.1875 45.671875 44.5 
Q 43.0625 40.828125 37.75 38.8125 
Q 44.34375 36.671875 47.78125 31.875 
Q 51.21875 27.09375 51.21875 20.453125 
Q 51.21875 11.28125 44.71875 5.03125 
Q 38.234375 -1.21875 27.640625 -1.21875 
Q 17.046875 -1.21875 10.546875 5.046875 
Q 4.046875 11.328125 4.046875 20.703125 
Q 4.046875 27.6875 7.59375 32.390625 
Q 11.140625 37.109375 17.671875 38.8125 
z
M 15.921875 53.71875 
Q 15.921875 48.640625 19.1875 45.40625 
Q 22.46875 42.1875 27.6875 42.1875 
Q 32.765625 42.1875 36.015625 45.375 
Q 39.265625 48.578125 39.265625 53.21875 
Q 39.265625 58.0625 35.90625 61.359375 
Q 32.5625 64.65625 27.59375 64.65625 
Q 22.5625 64.65625 19.234375 61.421875 
Q 15.921875 58.203125 15.921875 53.71875 
z
M 13.09375 20.65625 
Q 13.09375 16.890625 14.875 13.375 
Q 16.65625 9.859375 20.171875 7.921875 
Q 23.6875 6 27.734375 6 
Q 34.03125 6 38.125 10.046875 
Q 42.234375 14.109375 42.234375 20.359375 
Q 42.234375 26.703125 38.015625 30.859375 
Q 33.796875 35.015625 27.4375 35.015625 
Q 21.234375 35.015625 17.15625 30.90625 
Q 13.09375 26.8125 13.09375 20.65625 
z
" id="ArialMT-56"/>
       </defs>
       <use xlink:href="#ArialMT-56"/>
      </g>
     </g>
    </g>
    <g id="ytick_6">
     <g id="line2d_15">
      <path clip-path="url(#pa2c1436297)" d="M 108 166.034915 
L 777.6 166.034915 
" style="fill:none;stroke:#cccccc;stroke-linecap:round;"/>
     </g>
     <g id="text_16">
      <!-- 10 -->
      <g style="fill:#262626;" transform="translate(86.265938 169.971712)scale(0.11 -0.11)">
       <use xlink:href="#ArialMT-49"/>
       <use x="55.615234" xlink:href="#ArialMT-48"/>
      </g>
     </g>
    </g>
    <g id="ytick_7">
     <g id="line2d_16">
      <path clip-path="url(#pa2c1436297)" d="M 108 98.441898 
L 777.6 98.441898 
" style="fill:none;stroke:#cccccc;stroke-linecap:round;"/>
     </g>
     <g id="text_17">
      <!-- 12 -->
      <g style="fill:#262626;" transform="translate(86.265938 102.378695)scale(0.11 -0.11)">
       <use xlink:href="#ArialMT-49"/>
       <use x="55.615234" xlink:href="#ArialMT-50"/>
      </g>
     </g>
    </g>
    <g id="text_18">
     <!-- Runtime (seconds) -->
     <g style="fill:#262626;" transform="translate(74.898438 353.6925)rotate(-90)scale(0.16 -0.16)">
      <defs>
       <path d="M 7.859375 0 
L 7.859375 71.578125 
L 39.59375 71.578125 
Q 49.171875 71.578125 54.140625 69.640625 
Q 59.125 67.71875 62.109375 62.828125 
Q 65.09375 57.953125 65.09375 52.046875 
Q 65.09375 44.4375 60.15625 39.203125 
Q 55.21875 33.984375 44.921875 32.5625 
Q 48.6875 30.765625 50.640625 29 
Q 54.78125 25.203125 58.5 19.484375 
L 70.953125 0 
L 59.03125 0 
L 49.5625 14.890625 
Q 45.40625 21.34375 42.71875 24.75 
Q 40.046875 28.171875 37.921875 29.53125 
Q 35.796875 30.90625 33.59375 31.453125 
Q 31.984375 31.78125 28.328125 31.78125 
L 17.328125 31.78125 
L 17.328125 0 
z
M 17.328125 39.984375 
L 37.703125 39.984375 
Q 44.1875 39.984375 47.84375 41.328125 
Q 51.515625 42.671875 53.421875 45.625 
Q 55.328125 48.578125 55.328125 52.046875 
Q 55.328125 57.125 51.640625 60.390625 
Q 47.953125 63.671875 39.984375 63.671875 
L 17.328125 63.671875 
z
" id="ArialMT-82"/>
       <path d="M 6.59375 0 
L 6.59375 51.859375 
L 14.5 51.859375 
L 14.5 44.484375 
Q 20.21875 53.03125 31 53.03125 
Q 35.6875 53.03125 39.625 51.34375 
Q 43.5625 49.65625 45.515625 46.921875 
Q 47.46875 44.1875 48.25 40.4375 
Q 48.734375 37.984375 48.734375 31.890625 
L 48.734375 0 
L 39.9375 0 
L 39.9375 31.546875 
Q 39.9375 36.921875 38.90625 39.578125 
Q 37.890625 42.234375 35.28125 43.8125 
Q 32.671875 45.40625 29.15625 45.40625 
Q 23.53125 45.40625 19.453125 41.84375 
Q 15.375 38.28125 15.375 28.328125 
L 15.375 0 
z
" id="ArialMT-110"/>
       <path d="M 6.640625 61.46875 
L 6.640625 71.578125 
L 15.4375 71.578125 
L 15.4375 61.46875 
z
M 6.640625 0 
L 6.640625 51.859375 
L 15.4375 51.859375 
L 15.4375 0 
z
" id="ArialMT-105"/>
       <path d="M 23.390625 -21.046875 
Q 16.109375 -11.859375 11.078125 0.4375 
Q 6.0625 12.75 6.0625 25.921875 
Q 6.0625 37.546875 9.8125 48.1875 
Q 14.203125 60.546875 23.390625 72.796875 
L 29.6875 72.796875 
Q 23.78125 62.640625 21.875 58.296875 
Q 18.890625 51.5625 17.1875 44.234375 
Q 15.09375 35.109375 15.09375 25.875 
Q 15.09375 2.390625 29.6875 -21.046875 
z
" id="ArialMT-40"/>
       <path d="M 40.4375 19 
L 49.078125 17.875 
Q 47.65625 8.9375 41.8125 3.875 
Q 35.984375 -1.171875 27.484375 -1.171875 
Q 16.84375 -1.171875 10.375 5.78125 
Q 3.90625 12.75 3.90625 25.734375 
Q 3.90625 34.125 6.6875 40.421875 
Q 9.46875 46.734375 15.15625 49.875 
Q 20.84375 53.03125 27.546875 53.03125 
Q 35.984375 53.03125 41.359375 48.75 
Q 46.734375 44.484375 48.25 36.625 
L 39.703125 35.296875 
Q 38.484375 40.53125 35.375 43.15625 
Q 32.28125 45.796875 27.875 45.796875 
Q 21.234375 45.796875 17.078125 41.03125 
Q 12.9375 36.28125 12.9375 25.984375 
Q 12.9375 15.53125 16.9375 10.796875 
Q 20.953125 6.0625 27.390625 6.0625 
Q 32.5625 6.0625 36.03125 9.234375 
Q 39.5 12.40625 40.4375 19 
z
" id="ArialMT-99"/>
       <path d="M 40.234375 0 
L 40.234375 6.546875 
Q 35.296875 -1.171875 25.734375 -1.171875 
Q 19.53125 -1.171875 14.328125 2.25 
Q 9.125 5.671875 6.265625 11.796875 
Q 3.421875 17.921875 3.421875 25.875 
Q 3.421875 33.640625 6 39.96875 
Q 8.59375 46.296875 13.765625 49.65625 
Q 18.953125 53.03125 25.34375 53.03125 
Q 30.03125 53.03125 33.6875 51.046875 
Q 37.359375 49.078125 39.65625 45.90625 
L 39.65625 71.578125 
L 48.390625 71.578125 
L 48.390625 0 
z
M 12.453125 25.875 
Q 12.453125 15.921875 16.640625 10.984375 
Q 20.84375 6.0625 26.5625 6.0625 
Q 32.328125 6.0625 36.34375 10.765625 
Q 40.375 15.484375 40.375 25.140625 
Q 40.375 35.796875 36.265625 40.765625 
Q 32.171875 45.75 26.171875 45.75 
Q 20.3125 45.75 16.375 40.96875 
Q 12.453125 36.1875 12.453125 25.875 
z
" id="ArialMT-100"/>
       <path d="M 12.359375 -21.046875 
L 6.0625 -21.046875 
Q 20.65625 2.390625 20.65625 25.875 
Q 20.65625 35.0625 18.5625 44.09375 
Q 16.890625 51.421875 13.921875 58.15625 
Q 12.015625 62.546875 6.0625 72.796875 
L 12.359375 72.796875 
Q 21.53125 60.546875 25.921875 48.1875 
Q 29.6875 37.546875 29.6875 25.921875 
Q 29.6875 12.75 24.625 0.4375 
Q 19.578125 -11.859375 12.359375 -21.046875 
z
" id="ArialMT-41"/>
      </defs>
      <use xlink:href="#ArialMT-82"/>
      <use x="72.216797" xlink:href="#ArialMT-117"/>
      <use x="127.832031" xlink:href="#ArialMT-110"/>
      <use x="183.447266" xlink:href="#ArialMT-116"/>
      <use x="211.230469" xlink:href="#ArialMT-105"/>
      <use x="233.447266" xlink:href="#ArialMT-109"/>
      <use x="316.748047" xlink:href="#ArialMT-101"/>
      <use x="372.363281" xlink:href="#ArialMT-32"/>
      <use x="400.146484" xlink:href="#ArialMT-40"/>
      <use x="433.447266" xlink:href="#ArialMT-115"/>
      <use x="483.447266" xlink:href="#ArialMT-101"/>
      <use x="539.0625" xlink:href="#ArialMT-99"/>
      <use x="589.0625" xlink:href="#ArialMT-111"/>
      <use x="644.677734" xlink:href="#ArialMT-110"/>
      <use x="700.292969" xlink:href="#ArialMT-100"/>
      <use x="755.908203" xlink:href="#ArialMT-115"/>
      <use x="805.908203" xlink:href="#ArialMT-41"/>
     </g>
    </g>
   </g>
   <g id="line2d_17">
    <path clip-path="url(#pa2c1436297)" d="M 123.961859 435.297055 
L 139.923719 440.329644 
L 155.885578 447.868347 
L 171.847437 445.801282 
L 187.809297 447.723117 
L 203.771156 448.854599 
L 219.733015 447.925774 
L 235.694875 444.747492 
L 251.656734 447.344823 
L 267.618594 447.388741 
L 283.580453 444.777891 
L 299.542312 447.338101 
L 315.504172 446.865214 
L 331.466031 445.004193 
L 347.42789 446.858469 
L 363.38975 447.223224 
L 379.351609 445.406115 
L 395.313468 446.071489 
L 411.275328 446.203218 
L 427.237187 442.683789 
L 443.199046 445.230478 
L 459.160906 446.736853 
L 475.122765 444.355673 
L 491.084625 446.250506 
L 507.046484 446.926012 
L 523.008343 445.331807 
L 538.970203 442.923602 
L 554.932062 438.161243 
L 570.893921 439.285981 
L 586.855781 433.196237 
L 602.81764 440.903826 
L 618.779499 442.80201 
L 634.741359 443.744369 
L 650.703218 442.298748 
L 666.665077 444.399593 
L 682.626937 442.720953 
L 698.588796 442.537877 
L 714.550656 442.775013 
L 730.512515 442.933739 
L 746.474374 443.109371 
" style="fill:none;stroke:#4c72b0;stroke-linecap:round;stroke-width:1.5;"/>
    <defs>
     <path d="M -0 3 
L 3 -3 
L -3 -3 
z
" id="m5bbeea400e" style="stroke:#ffffff;stroke-linejoin:miter;stroke-width:0.75;"/>
    </defs>
    <g clip-path="url(#pa2c1436297)">
     <use style="fill:#4c72b0;stroke:#ffffff;stroke-linejoin:miter;stroke-width:0.75;" x="123.961859" xlink:href="#m5bbeea400e" y="435.297055"/>
     <use style="fill:#4c72b0;stroke:#ffffff;stroke-linejoin:miter;stroke-width:0.75;" x="139.923719" xlink:href="#m5bbeea400e" y="440.329644"/>
     <use style="fill:#4c72b0;stroke:#ffffff;stroke-linejoin:miter;stroke-width:0.75;" x="155.885578" xlink:href="#m5bbeea400e" y="447.868347"/>
     <use style="fill:#4c72b0;stroke:#ffffff;stroke-linejoin:miter;stroke-width:0.75;" x="171.847437" xlink:href="#m5bbeea400e" y="445.801282"/>
     <use style="fill:#4c72b0;stroke:#ffffff;stroke-linejoin:miter;stroke-width:0.75;" x="187.809297" xlink:href="#m5bbeea400e" y="447.723117"/>
     <use style="fill:#4c72b0;stroke:#ffffff;stroke-linejoin:miter;stroke-width:0.75;" x="203.771156" xlink:href="#m5bbeea400e" y="448.854599"/>
     <use style="fill:#4c72b0;stroke:#ffffff;stroke-linejoin:miter;stroke-width:0.75;" x="219.733015" xlink:href="#m5bbeea400e" y="447.925774"/>
     <use style="fill:#4c72b0;stroke:#ffffff;stroke-linejoin:miter;stroke-width:0.75;" x="235.694875" xlink:href="#m5bbeea400e" y="444.747492"/>
     <use style="fill:#4c72b0;stroke:#ffffff;stroke-linejoin:miter;stroke-width:0.75;" x="251.656734" xlink:href="#m5bbeea400e" y="447.344823"/>
     <use style="fill:#4c72b0;stroke:#ffffff;stroke-linejoin:miter;stroke-width:0.75;" x="267.618594" xlink:href="#m5bbeea400e" y="447.388741"/>
     <use style="fill:#4c72b0;stroke:#ffffff;stroke-linejoin:miter;stroke-width:0.75;" x="283.580453" xlink:href="#m5bbeea400e" y="444.777891"/>
     <use style="fill:#4c72b0;stroke:#ffffff;stroke-linejoin:miter;stroke-width:0.75;" x="299.542312" xlink:href="#m5bbeea400e" y="447.338101"/>
     <use style="fill:#4c72b0;stroke:#ffffff;stroke-linejoin:miter;stroke-width:0.75;" x="315.504172" xlink:href="#m5bbeea400e" y="446.865214"/>
     <use style="fill:#4c72b0;stroke:#ffffff;stroke-linejoin:miter;stroke-width:0.75;" x="331.466031" xlink:href="#m5bbeea400e" y="445.004193"/>
     <use style="fill:#4c72b0;stroke:#ffffff;stroke-linejoin:miter;stroke-width:0.75;" x="347.42789" xlink:href="#m5bbeea400e" y="446.858469"/>
     <use style="fill:#4c72b0;stroke:#ffffff;stroke-linejoin:miter;stroke-width:0.75;" x="363.38975" xlink:href="#m5bbeea400e" y="447.223224"/>
     <use style="fill:#4c72b0;stroke:#ffffff;stroke-linejoin:miter;stroke-width:0.75;" x="379.351609" xlink:href="#m5bbeea400e" y="445.406115"/>
     <use style="fill:#4c72b0;stroke:#ffffff;stroke-linejoin:miter;stroke-width:0.75;" x="395.313468" xlink:href="#m5bbeea400e" y="446.071489"/>
     <use style="fill:#4c72b0;stroke:#ffffff;stroke-linejoin:miter;stroke-width:0.75;" x="411.275328" xlink:href="#m5bbeea400e" y="446.203218"/>
     <use style="fill:#4c72b0;stroke:#ffffff;stroke-linejoin:miter;stroke-width:0.75;" x="427.237187" xlink:href="#m5bbeea400e" y="442.683789"/>
     <use style="fill:#4c72b0;stroke:#ffffff;stroke-linejoin:miter;stroke-width:0.75;" x="443.199046" xlink:href="#m5bbeea400e" y="445.230478"/>
     <use style="fill:#4c72b0;stroke:#ffffff;stroke-linejoin:miter;stroke-width:0.75;" x="459.160906" xlink:href="#m5bbeea400e" y="446.736853"/>
     <use style="fill:#4c72b0;stroke:#ffffff;stroke-linejoin:miter;stroke-width:0.75;" x="475.122765" xlink:href="#m5bbeea400e" y="444.355673"/>
     <use style="fill:#4c72b0;stroke:#ffffff;stroke-linejoin:miter;stroke-width:0.75;" x="491.084625" xlink:href="#m5bbeea400e" y="446.250506"/>
     <use style="fill:#4c72b0;stroke:#ffffff;stroke-linejoin:miter;stroke-width:0.75;" x="507.046484" xlink:href="#m5bbeea400e" y="446.926012"/>
     <use style="fill:#4c72b0;stroke:#ffffff;stroke-linejoin:miter;stroke-width:0.75;" x="523.008343" xlink:href="#m5bbeea400e" y="445.331807"/>
     <use style="fill:#4c72b0;stroke:#ffffff;stroke-linejoin:miter;stroke-width:0.75;" x="538.970203" xlink:href="#m5bbeea400e" y="442.923602"/>
     <use style="fill:#4c72b0;stroke:#ffffff;stroke-linejoin:miter;stroke-width:0.75;" x="554.932062" xlink:href="#m5bbeea400e" y="438.161243"/>
     <use style="fill:#4c72b0;stroke:#ffffff;stroke-linejoin:miter;stroke-width:0.75;" x="570.893921" xlink:href="#m5bbeea400e" y="439.285981"/>
     <use style="fill:#4c72b0;stroke:#ffffff;stroke-linejoin:miter;stroke-width:0.75;" x="586.855781" xlink:href="#m5bbeea400e" y="433.196237"/>
     <use style="fill:#4c72b0;stroke:#ffffff;stroke-linejoin:miter;stroke-width:0.75;" x="602.81764" xlink:href="#m5bbeea400e" y="440.903826"/>
     <use style="fill:#4c72b0;stroke:#ffffff;stroke-linejoin:miter;stroke-width:0.75;" x="618.779499" xlink:href="#m5bbeea400e" y="442.80201"/>
     <use style="fill:#4c72b0;stroke:#ffffff;stroke-linejoin:miter;stroke-width:0.75;" x="634.741359" xlink:href="#m5bbeea400e" y="443.744369"/>
     <use style="fill:#4c72b0;stroke:#ffffff;stroke-linejoin:miter;stroke-width:0.75;" x="650.703218" xlink:href="#m5bbeea400e" y="442.298748"/>
     <use style="fill:#4c72b0;stroke:#ffffff;stroke-linejoin:miter;stroke-width:0.75;" x="666.665077" xlink:href="#m5bbeea400e" y="444.399593"/>
     <use style="fill:#4c72b0;stroke:#ffffff;stroke-linejoin:miter;stroke-width:0.75;" x="682.626937" xlink:href="#m5bbeea400e" y="442.720953"/>
     <use style="fill:#4c72b0;stroke:#ffffff;stroke-linejoin:miter;stroke-width:0.75;" x="698.588796" xlink:href="#m5bbeea400e" y="442.537877"/>
     <use style="fill:#4c72b0;stroke:#ffffff;stroke-linejoin:miter;stroke-width:0.75;" x="714.550656" xlink:href="#m5bbeea400e" y="442.775013"/>
     <use style="fill:#4c72b0;stroke:#ffffff;stroke-linejoin:miter;stroke-width:0.75;" x="730.512515" xlink:href="#m5bbeea400e" y="442.933739"/>
     <use style="fill:#4c72b0;stroke:#ffffff;stroke-linejoin:miter;stroke-width:0.75;" x="746.474374" xlink:href="#m5bbeea400e" y="443.109371"/>
    </g>
   </g>
   <g id="line2d_18">
    <path clip-path="url(#pa2c1436297)" d="M 123.961859 499.707129 
L 139.923719 499.575414 
L 155.885578 498.187243 
L 171.847437 495.833081 
L 187.809297 496.511965 
L 203.771156 496.748403 
L 219.733015 497.673846 
L 235.694875 497.055749 
L 251.656734 497.829204 
L 267.618594 498.014981 
L 283.580453 497.49145 
L 299.542312 497.282028 
L 315.504172 497.05912 
L 331.466031 497.133431 
L 347.42789 497.207743 
L 363.38975 496.582861 
L 379.351609 496.819319 
L 395.313468 496.79229 
L 411.275328 496.70787 
L 427.237187 496.76867 
L 443.199046 496.275535 
L 459.160906 496.566003 
L 475.122765 496.508591 
L 491.084625 496.387003 
L 507.046484 496.133665 
L 523.008343 495.917513 
L 538.970203 495.799299 
L 554.932062 495.802686 
L 570.893921 494.694841 
L 586.855781 494.819813 
L 602.81764 494.684697 
L 618.779499 494.860352 
L 634.741359 494.816435 
L 650.703218 494.762392 
L 666.665077 494.58675 
L 682.626937 493.776132 
L 698.588796 494.471922 
L 714.550656 494.394236 
L 730.512515 494.205085 
L 746.474374 494.046341 
" style="fill:none;stroke:#dd8452;stroke-dasharray:6,2.25;stroke-dashoffset:0;stroke-width:1.5;"/>
    <defs>
     <path d="M 0 3 
C 0.795609 3 1.55874 2.683901 2.12132 2.12132 
C 2.683901 1.55874 3 0.795609 3 0 
C 3 -0.795609 2.683901 -1.55874 2.12132 -2.12132 
C 1.55874 -2.683901 0.795609 -3 0 -3 
C -0.795609 -3 -1.55874 -2.683901 -2.12132 -2.12132 
C -2.683901 -1.55874 -3 -0.795609 -3 0 
C -3 0.795609 -2.683901 1.55874 -2.12132 2.12132 
C -1.55874 2.683901 -0.795609 3 0 3 
z
" id="m86fe37af99" style="stroke:#ffffff;stroke-width:0.75;"/>
    </defs>
    <g clip-path="url(#pa2c1436297)">
     <use style="fill:#dd8452;stroke:#ffffff;stroke-width:0.75;" x="123.961859" xlink:href="#m86fe37af99" y="499.707129"/>
     <use style="fill:#dd8452;stroke:#ffffff;stroke-width:0.75;" x="139.923719" xlink:href="#m86fe37af99" y="499.575414"/>
     <use style="fill:#dd8452;stroke:#ffffff;stroke-width:0.75;" x="155.885578" xlink:href="#m86fe37af99" y="498.187243"/>
     <use style="fill:#dd8452;stroke:#ffffff;stroke-width:0.75;" x="171.847437" xlink:href="#m86fe37af99" y="495.833081"/>
     <use style="fill:#dd8452;stroke:#ffffff;stroke-width:0.75;" x="187.809297" xlink:href="#m86fe37af99" y="496.511965"/>
     <use style="fill:#dd8452;stroke:#ffffff;stroke-width:0.75;" x="203.771156" xlink:href="#m86fe37af99" y="496.748403"/>
     <use style="fill:#dd8452;stroke:#ffffff;stroke-width:0.75;" x="219.733015" xlink:href="#m86fe37af99" y="497.673846"/>
     <use style="fill:#dd8452;stroke:#ffffff;stroke-width:0.75;" x="235.694875" xlink:href="#m86fe37af99" y="497.055749"/>
     <use style="fill:#dd8452;stroke:#ffffff;stroke-width:0.75;" x="251.656734" xlink:href="#m86fe37af99" y="497.829204"/>
     <use style="fill:#dd8452;stroke:#ffffff;stroke-width:0.75;" x="267.618594" xlink:href="#m86fe37af99" y="498.014981"/>
     <use style="fill:#dd8452;stroke:#ffffff;stroke-width:0.75;" x="283.580453" xlink:href="#m86fe37af99" y="497.49145"/>
     <use style="fill:#dd8452;stroke:#ffffff;stroke-width:0.75;" x="299.542312" xlink:href="#m86fe37af99" y="497.282028"/>
     <use style="fill:#dd8452;stroke:#ffffff;stroke-width:0.75;" x="315.504172" xlink:href="#m86fe37af99" y="497.05912"/>
     <use style="fill:#dd8452;stroke:#ffffff;stroke-width:0.75;" x="331.466031" xlink:href="#m86fe37af99" y="497.133431"/>
     <use style="fill:#dd8452;stroke:#ffffff;stroke-width:0.75;" x="347.42789" xlink:href="#m86fe37af99" y="497.207743"/>
     <use style="fill:#dd8452;stroke:#ffffff;stroke-width:0.75;" x="363.38975" xlink:href="#m86fe37af99" y="496.582861"/>
     <use style="fill:#dd8452;stroke:#ffffff;stroke-width:0.75;" x="379.351609" xlink:href="#m86fe37af99" y="496.819319"/>
     <use style="fill:#dd8452;stroke:#ffffff;stroke-width:0.75;" x="395.313468" xlink:href="#m86fe37af99" y="496.79229"/>
     <use style="fill:#dd8452;stroke:#ffffff;stroke-width:0.75;" x="411.275328" xlink:href="#m86fe37af99" y="496.70787"/>
     <use style="fill:#dd8452;stroke:#ffffff;stroke-width:0.75;" x="427.237187" xlink:href="#m86fe37af99" y="496.76867"/>
     <use style="fill:#dd8452;stroke:#ffffff;stroke-width:0.75;" x="443.199046" xlink:href="#m86fe37af99" y="496.275535"/>
     <use style="fill:#dd8452;stroke:#ffffff;stroke-width:0.75;" x="459.160906" xlink:href="#m86fe37af99" y="496.566003"/>
     <use style="fill:#dd8452;stroke:#ffffff;stroke-width:0.75;" x="475.122765" xlink:href="#m86fe37af99" y="496.508591"/>
     <use style="fill:#dd8452;stroke:#ffffff;stroke-width:0.75;" x="491.084625" xlink:href="#m86fe37af99" y="496.387003"/>
     <use style="fill:#dd8452;stroke:#ffffff;stroke-width:0.75;" x="507.046484" xlink:href="#m86fe37af99" y="496.133665"/>
     <use style="fill:#dd8452;stroke:#ffffff;stroke-width:0.75;" x="523.008343" xlink:href="#m86fe37af99" y="495.917513"/>
     <use style="fill:#dd8452;stroke:#ffffff;stroke-width:0.75;" x="538.970203" xlink:href="#m86fe37af99" y="495.799299"/>
     <use style="fill:#dd8452;stroke:#ffffff;stroke-width:0.75;" x="554.932062" xlink:href="#m86fe37af99" y="495.802686"/>
     <use style="fill:#dd8452;stroke:#ffffff;stroke-width:0.75;" x="570.893921" xlink:href="#m86fe37af99" y="494.694841"/>
     <use style="fill:#dd8452;stroke:#ffffff;stroke-width:0.75;" x="586.855781" xlink:href="#m86fe37af99" y="494.819813"/>
     <use style="fill:#dd8452;stroke:#ffffff;stroke-width:0.75;" x="602.81764" xlink:href="#m86fe37af99" y="494.684697"/>
     <use style="fill:#dd8452;stroke:#ffffff;stroke-width:0.75;" x="618.779499" xlink:href="#m86fe37af99" y="494.860352"/>
     <use style="fill:#dd8452;stroke:#ffffff;stroke-width:0.75;" x="634.741359" xlink:href="#m86fe37af99" y="494.816435"/>
     <use style="fill:#dd8452;stroke:#ffffff;stroke-width:0.75;" x="650.703218" xlink:href="#m86fe37af99" y="494.762392"/>
     <use style="fill:#dd8452;stroke:#ffffff;stroke-width:0.75;" x="666.665077" xlink:href="#m86fe37af99" y="494.58675"/>
     <use style="fill:#dd8452;stroke:#ffffff;stroke-width:0.75;" x="682.626937" xlink:href="#m86fe37af99" y="493.776132"/>
     <use style="fill:#dd8452;stroke:#ffffff;stroke-width:0.75;" x="698.588796" xlink:href="#m86fe37af99" y="494.471922"/>
     <use style="fill:#dd8452;stroke:#ffffff;stroke-width:0.75;" x="714.550656" xlink:href="#m86fe37af99" y="494.394236"/>
     <use style="fill:#dd8452;stroke:#ffffff;stroke-width:0.75;" x="730.512515" xlink:href="#m86fe37af99" y="494.205085"/>
     <use style="fill:#dd8452;stroke:#ffffff;stroke-width:0.75;" x="746.474374" xlink:href="#m86fe37af99" y="494.046341"/>
    </g>
   </g>
   <g id="line2d_19">
    <path clip-path="url(#pa2c1436297)" d="M 123.961859 458.149659 
L 139.923719 456.629748 
L 155.885578 458.084857 
L 171.847437 453.836499 
L 187.809297 456.55544 
L 203.771156 454.944417 
L 219.733015 453.657538 
L 235.694875 453.671016 
L 251.656734 451.661392 
L 267.618594 451.093938 
L 283.580453 450.290044 
L 299.542312 453.13398 
L 315.504172 449.688857 
L 331.466031 452.053174 
L 347.42789 450.658212 
L 363.38975 450.425178 
L 379.351609 450.783986 
L 395.313468 449.465948 
L 411.275328 450.33735 
L 427.237187 450.627816 
L 443.199046 450.479212 
L 459.160906 451.029761 
L 475.122765 448.415502 
L 491.084625 447.692934 
L 507.046484 448.621549 
L 523.008343 448.290549 
L 538.970203 449.20586 
L 554.932062 446.990193 
L 570.893921 449.699 
L 586.855781 447.826925 
L 602.81764 449.374746 
L 618.779499 447.70285 
L 634.741359 446.976675 
L 650.703218 447.368481 
L 666.665077 447.361829 
L 682.626937 446.655799 
L 698.588796 447.414415 
L 714.550656 445.753994 
L 730.512515 446.470046 
L 746.474374 445.433136 
" style="fill:none;stroke:#55a868;stroke-dasharray:1.5,1.5;stroke-dashoffset:0;stroke-width:1.5;"/>
    <defs>
     <path d="M -3 3 
L 3 3 
L 3 -3 
L -3 -3 
z
" id="m4dbd938016" style="stroke:#ffffff;stroke-linejoin:miter;stroke-width:0.75;"/>
    </defs>
    <g clip-path="url(#pa2c1436297)">
     <use style="fill:#55a868;stroke:#ffffff;stroke-linejoin:miter;stroke-width:0.75;" x="123.961859" xlink:href="#m4dbd938016" y="458.149659"/>
     <use style="fill:#55a868;stroke:#ffffff;stroke-linejoin:miter;stroke-width:0.75;" x="139.923719" xlink:href="#m4dbd938016" y="456.629748"/>
     <use style="fill:#55a868;stroke:#ffffff;stroke-linejoin:miter;stroke-width:0.75;" x="155.885578" xlink:href="#m4dbd938016" y="458.084857"/>
     <use style="fill:#55a868;stroke:#ffffff;stroke-linejoin:miter;stroke-width:0.75;" x="171.847437" xlink:href="#m4dbd938016" y="453.836499"/>
     <use style="fill:#55a868;stroke:#ffffff;stroke-linejoin:miter;stroke-width:0.75;" x="187.809297" xlink:href="#m4dbd938016" y="456.55544"/>
     <use style="fill:#55a868;stroke:#ffffff;stroke-linejoin:miter;stroke-width:0.75;" x="203.771156" xlink:href="#m4dbd938016" y="454.944417"/>
     <use style="fill:#55a868;stroke:#ffffff;stroke-linejoin:miter;stroke-width:0.75;" x="219.733015" xlink:href="#m4dbd938016" y="453.657538"/>
     <use style="fill:#55a868;stroke:#ffffff;stroke-linejoin:miter;stroke-width:0.75;" x="235.694875" xlink:href="#m4dbd938016" y="453.671016"/>
     <use style="fill:#55a868;stroke:#ffffff;stroke-linejoin:miter;stroke-width:0.75;" x="251.656734" xlink:href="#m4dbd938016" y="451.661392"/>
     <use style="fill:#55a868;stroke:#ffffff;stroke-linejoin:miter;stroke-width:0.75;" x="267.618594" xlink:href="#m4dbd938016" y="451.093938"/>
     <use style="fill:#55a868;stroke:#ffffff;stroke-linejoin:miter;stroke-width:0.75;" x="283.580453" xlink:href="#m4dbd938016" y="450.290044"/>
     <use style="fill:#55a868;stroke:#ffffff;stroke-linejoin:miter;stroke-width:0.75;" x="299.542312" xlink:href="#m4dbd938016" y="453.13398"/>
     <use style="fill:#55a868;stroke:#ffffff;stroke-linejoin:miter;stroke-width:0.75;" x="315.504172" xlink:href="#m4dbd938016" y="449.688857"/>
     <use style="fill:#55a868;stroke:#ffffff;stroke-linejoin:miter;stroke-width:0.75;" x="331.466031" xlink:href="#m4dbd938016" y="452.053174"/>
     <use style="fill:#55a868;stroke:#ffffff;stroke-linejoin:miter;stroke-width:0.75;" x="347.42789" xlink:href="#m4dbd938016" y="450.658212"/>
     <use style="fill:#55a868;stroke:#ffffff;stroke-linejoin:miter;stroke-width:0.75;" x="363.38975" xlink:href="#m4dbd938016" y="450.425178"/>
     <use style="fill:#55a868;stroke:#ffffff;stroke-linejoin:miter;stroke-width:0.75;" x="379.351609" xlink:href="#m4dbd938016" y="450.783986"/>
     <use style="fill:#55a868;stroke:#ffffff;stroke-linejoin:miter;stroke-width:0.75;" x="395.313468" xlink:href="#m4dbd938016" y="449.465948"/>
     <use style="fill:#55a868;stroke:#ffffff;stroke-linejoin:miter;stroke-width:0.75;" x="411.275328" xlink:href="#m4dbd938016" y="450.33735"/>
     <use style="fill:#55a868;stroke:#ffffff;stroke-linejoin:miter;stroke-width:0.75;" x="427.237187" xlink:href="#m4dbd938016" y="450.627816"/>
     <use style="fill:#55a868;stroke:#ffffff;stroke-linejoin:miter;stroke-width:0.75;" x="443.199046" xlink:href="#m4dbd938016" y="450.479212"/>
     <use style="fill:#55a868;stroke:#ffffff;stroke-linejoin:miter;stroke-width:0.75;" x="459.160906" xlink:href="#m4dbd938016" y="451.029761"/>
     <use style="fill:#55a868;stroke:#ffffff;stroke-linejoin:miter;stroke-width:0.75;" x="475.122765" xlink:href="#m4dbd938016" y="448.415502"/>
     <use style="fill:#55a868;stroke:#ffffff;stroke-linejoin:miter;stroke-width:0.75;" x="491.084625" xlink:href="#m4dbd938016" y="447.692934"/>
     <use style="fill:#55a868;stroke:#ffffff;stroke-linejoin:miter;stroke-width:0.75;" x="507.046484" xlink:href="#m4dbd938016" y="448.621549"/>
     <use style="fill:#55a868;stroke:#ffffff;stroke-linejoin:miter;stroke-width:0.75;" x="523.008343" xlink:href="#m4dbd938016" y="448.290549"/>
     <use style="fill:#55a868;stroke:#ffffff;stroke-linejoin:miter;stroke-width:0.75;" x="538.970203" xlink:href="#m4dbd938016" y="449.20586"/>
     <use style="fill:#55a868;stroke:#ffffff;stroke-linejoin:miter;stroke-width:0.75;" x="554.932062" xlink:href="#m4dbd938016" y="446.990193"/>
     <use style="fill:#55a868;stroke:#ffffff;stroke-linejoin:miter;stroke-width:0.75;" x="570.893921" xlink:href="#m4dbd938016" y="449.699"/>
     <use style="fill:#55a868;stroke:#ffffff;stroke-linejoin:miter;stroke-width:0.75;" x="586.855781" xlink:href="#m4dbd938016" y="447.826925"/>
     <use style="fill:#55a868;stroke:#ffffff;stroke-linejoin:miter;stroke-width:0.75;" x="602.81764" xlink:href="#m4dbd938016" y="449.374746"/>
     <use style="fill:#55a868;stroke:#ffffff;stroke-linejoin:miter;stroke-width:0.75;" x="618.779499" xlink:href="#m4dbd938016" y="447.70285"/>
     <use style="fill:#55a868;stroke:#ffffff;stroke-linejoin:miter;stroke-width:0.75;" x="634.741359" xlink:href="#m4dbd938016" y="446.976675"/>
     <use style="fill:#55a868;stroke:#ffffff;stroke-linejoin:miter;stroke-width:0.75;" x="650.703218" xlink:href="#m4dbd938016" y="447.368481"/>
     <use style="fill:#55a868;stroke:#ffffff;stroke-linejoin:miter;stroke-width:0.75;" x="666.665077" xlink:href="#m4dbd938016" y="447.361829"/>
     <use style="fill:#55a868;stroke:#ffffff;stroke-linejoin:miter;stroke-width:0.75;" x="682.626937" xlink:href="#m4dbd938016" y="446.655799"/>
     <use style="fill:#55a868;stroke:#ffffff;stroke-linejoin:miter;stroke-width:0.75;" x="698.588796" xlink:href="#m4dbd938016" y="447.414415"/>
     <use style="fill:#55a868;stroke:#ffffff;stroke-linejoin:miter;stroke-width:0.75;" x="714.550656" xlink:href="#m4dbd938016" y="445.753994"/>
     <use style="fill:#55a868;stroke:#ffffff;stroke-linejoin:miter;stroke-width:0.75;" x="730.512515" xlink:href="#m4dbd938016" y="446.470046"/>
     <use style="fill:#55a868;stroke:#ffffff;stroke-linejoin:miter;stroke-width:0.75;" x="746.474374" xlink:href="#m4dbd938016" y="445.433136"/>
    </g>
   </g>
   <g id="line2d_20">
    <path clip-path="url(#pa2c1436297)" d="M 123.961859 100.584341 
L 139.923719 92.329575 
L 155.885578 89.624149 
L 171.847437 93.457679 
L 187.809297 96.379255 
L 203.771156 103.992279 
L 219.733015 113.294082 
L 235.694875 119.799259 
L 251.656734 127.760155 
L 267.618594 135.163763 
L 283.580453 143.68197 
L 299.542312 148.569311 
L 315.504172 159.698361 
L 331.466031 164.649869 
L 347.42789 175.167577 
L 363.38975 183.121738 
L 379.351609 192.149947 
L 395.313468 201.965136 
L 411.275328 202.492029 
L 427.237187 220.018185 
L 443.199046 228.587059 
L 459.160906 238.034072 
L 475.122765 249.217191 
L 491.084625 258.606798 
L 507.046484 271.340209 
L 523.008343 280.66227 
L 538.970203 290.436918 
L 554.932062 302.224615 
L 570.893921 314.728339 
L 586.855781 325.171744 
L 602.81764 336.483202 
L 618.779499 347.689931 
L 634.741359 358.231282 
L 650.703218 370.478331 
L 666.665077 383.171205 
L 682.626937 395.891088 
L 698.588796 407.83413 
L 714.550656 419.108425 
L 730.512515 430.794783 
L 746.474374 442.741212 
" style="fill:none;stroke:#c44e52;stroke-dasharray:4.5,1.875,2.25,1.875;stroke-dashoffset:0;stroke-width:1.5;"/>
    <defs>
     <path d="M 0 -3 
L -3 3 
L 3 3 
z
" id="md0145727d0" style="stroke:#ffffff;stroke-linejoin:miter;stroke-width:0.75;"/>
    </defs>
    <g clip-path="url(#pa2c1436297)">
     <use style="fill:#c44e52;stroke:#ffffff;stroke-linejoin:miter;stroke-width:0.75;" x="123.961859" xlink:href="#md0145727d0" y="100.584341"/>
     <use style="fill:#c44e52;stroke:#ffffff;stroke-linejoin:miter;stroke-width:0.75;" x="139.923719" xlink:href="#md0145727d0" y="92.329575"/>
     <use style="fill:#c44e52;stroke:#ffffff;stroke-linejoin:miter;stroke-width:0.75;" x="155.885578" xlink:href="#md0145727d0" y="89.624149"/>
     <use style="fill:#c44e52;stroke:#ffffff;stroke-linejoin:miter;stroke-width:0.75;" x="171.847437" xlink:href="#md0145727d0" y="93.457679"/>
     <use style="fill:#c44e52;stroke:#ffffff;stroke-linejoin:miter;stroke-width:0.75;" x="187.809297" xlink:href="#md0145727d0" y="96.379255"/>
     <use style="fill:#c44e52;stroke:#ffffff;stroke-linejoin:miter;stroke-width:0.75;" x="203.771156" xlink:href="#md0145727d0" y="103.992279"/>
     <use style="fill:#c44e52;stroke:#ffffff;stroke-linejoin:miter;stroke-width:0.75;" x="219.733015" xlink:href="#md0145727d0" y="113.294082"/>
     <use style="fill:#c44e52;stroke:#ffffff;stroke-linejoin:miter;stroke-width:0.75;" x="235.694875" xlink:href="#md0145727d0" y="119.799259"/>
     <use style="fill:#c44e52;stroke:#ffffff;stroke-linejoin:miter;stroke-width:0.75;" x="251.656734" xlink:href="#md0145727d0" y="127.760155"/>
     <use style="fill:#c44e52;stroke:#ffffff;stroke-linejoin:miter;stroke-width:0.75;" x="267.618594" xlink:href="#md0145727d0" y="135.163763"/>
     <use style="fill:#c44e52;stroke:#ffffff;stroke-linejoin:miter;stroke-width:0.75;" x="283.580453" xlink:href="#md0145727d0" y="143.68197"/>
     <use style="fill:#c44e52;stroke:#ffffff;stroke-linejoin:miter;stroke-width:0.75;" x="299.542312" xlink:href="#md0145727d0" y="148.569311"/>
     <use style="fill:#c44e52;stroke:#ffffff;stroke-linejoin:miter;stroke-width:0.75;" x="315.504172" xlink:href="#md0145727d0" y="159.698361"/>
     <use style="fill:#c44e52;stroke:#ffffff;stroke-linejoin:miter;stroke-width:0.75;" x="331.466031" xlink:href="#md0145727d0" y="164.649869"/>
     <use style="fill:#c44e52;stroke:#ffffff;stroke-linejoin:miter;stroke-width:0.75;" x="347.42789" xlink:href="#md0145727d0" y="175.167577"/>
     <use style="fill:#c44e52;stroke:#ffffff;stroke-linejoin:miter;stroke-width:0.75;" x="363.38975" xlink:href="#md0145727d0" y="183.121738"/>
     <use style="fill:#c44e52;stroke:#ffffff;stroke-linejoin:miter;stroke-width:0.75;" x="379.351609" xlink:href="#md0145727d0" y="192.149947"/>
     <use style="fill:#c44e52;stroke:#ffffff;stroke-linejoin:miter;stroke-width:0.75;" x="395.313468" xlink:href="#md0145727d0" y="201.965136"/>
     <use style="fill:#c44e52;stroke:#ffffff;stroke-linejoin:miter;stroke-width:0.75;" x="411.275328" xlink:href="#md0145727d0" y="202.492029"/>
     <use style="fill:#c44e52;stroke:#ffffff;stroke-linejoin:miter;stroke-width:0.75;" x="427.237187" xlink:href="#md0145727d0" y="220.018185"/>
     <use style="fill:#c44e52;stroke:#ffffff;stroke-linejoin:miter;stroke-width:0.75;" x="443.199046" xlink:href="#md0145727d0" y="228.587059"/>
     <use style="fill:#c44e52;stroke:#ffffff;stroke-linejoin:miter;stroke-width:0.75;" x="459.160906" xlink:href="#md0145727d0" y="238.034072"/>
     <use style="fill:#c44e52;stroke:#ffffff;stroke-linejoin:miter;stroke-width:0.75;" x="475.122765" xlink:href="#md0145727d0" y="249.217191"/>
     <use style="fill:#c44e52;stroke:#ffffff;stroke-linejoin:miter;stroke-width:0.75;" x="491.084625" xlink:href="#md0145727d0" y="258.606798"/>
     <use style="fill:#c44e52;stroke:#ffffff;stroke-linejoin:miter;stroke-width:0.75;" x="507.046484" xlink:href="#md0145727d0" y="271.340209"/>
     <use style="fill:#c44e52;stroke:#ffffff;stroke-linejoin:miter;stroke-width:0.75;" x="523.008343" xlink:href="#md0145727d0" y="280.66227"/>
     <use style="fill:#c44e52;stroke:#ffffff;stroke-linejoin:miter;stroke-width:0.75;" x="538.970203" xlink:href="#md0145727d0" y="290.436918"/>
     <use style="fill:#c44e52;stroke:#ffffff;stroke-linejoin:miter;stroke-width:0.75;" x="554.932062" xlink:href="#md0145727d0" y="302.224615"/>
     <use style="fill:#c44e52;stroke:#ffffff;stroke-linejoin:miter;stroke-width:0.75;" x="570.893921" xlink:href="#md0145727d0" y="314.728339"/>
     <use style="fill:#c44e52;stroke:#ffffff;stroke-linejoin:miter;stroke-width:0.75;" x="586.855781" xlink:href="#md0145727d0" y="325.171744"/>
     <use style="fill:#c44e52;stroke:#ffffff;stroke-linejoin:miter;stroke-width:0.75;" x="602.81764" xlink:href="#md0145727d0" y="336.483202"/>
     <use style="fill:#c44e52;stroke:#ffffff;stroke-linejoin:miter;stroke-width:0.75;" x="618.779499" xlink:href="#md0145727d0" y="347.689931"/>
     <use style="fill:#c44e52;stroke:#ffffff;stroke-linejoin:miter;stroke-width:0.75;" x="634.741359" xlink:href="#md0145727d0" y="358.231282"/>
     <use style="fill:#c44e52;stroke:#ffffff;stroke-linejoin:miter;stroke-width:0.75;" x="650.703218" xlink:href="#md0145727d0" y="370.478331"/>
     <use style="fill:#c44e52;stroke:#ffffff;stroke-linejoin:miter;stroke-width:0.75;" x="666.665077" xlink:href="#md0145727d0" y="383.171205"/>
     <use style="fill:#c44e52;stroke:#ffffff;stroke-linejoin:miter;stroke-width:0.75;" x="682.626937" xlink:href="#md0145727d0" y="395.891088"/>
     <use style="fill:#c44e52;stroke:#ffffff;stroke-linejoin:miter;stroke-width:0.75;" x="698.588796" xlink:href="#md0145727d0" y="407.83413"/>
     <use style="fill:#c44e52;stroke:#ffffff;stroke-linejoin:miter;stroke-width:0.75;" x="714.550656" xlink:href="#md0145727d0" y="419.108425"/>
     <use style="fill:#c44e52;stroke:#ffffff;stroke-linejoin:miter;stroke-width:0.75;" x="730.512515" xlink:href="#md0145727d0" y="430.794783"/>
     <use style="fill:#c44e52;stroke:#ffffff;stroke-linejoin:miter;stroke-width:0.75;" x="746.474374" xlink:href="#md0145727d0" y="442.741212"/>
    </g>
   </g>
   <g id="line2d_21">
    <path clip-path="url(#pa2c1436297)" d="M 123.961859 480.765775 
L 139.923719 484.997875 
L 155.885578 486.190146 
L 171.847437 486.281341 
L 187.809297 486.40294 
L 203.771156 486.48737 
L 219.733015 486.396171 
L 235.694875 486.365769 
L 251.656734 486.055037 
L 267.618594 485.849005 
L 283.580453 485.717284 
L 299.542312 485.511256 
L 315.504172 485.055291 
L 331.466031 485.203902 
L 347.42789 485.089048 
L 363.38975 484.812086 
L 379.351609 484.173747 
L 395.313468 484.187247 
L 411.275328 483.930531 
L 427.237187 482.478202 
L 443.199046 483.173954 
L 459.160906 482.947668 
L 475.122765 482.613293 
L 491.084625 482.420775 
L 507.046484 482.086394 
L 523.008343 481.914146 
L 538.970203 481.708114 
L 554.932062 481.437922 
L 570.893921 481.502081 
L 586.855781 481.458179 
L 602.81764 481.323082 
L 618.779499 480.596892 
L 634.741359 480.262513 
L 650.703218 480.546231 
L 666.665077 480.046362 
L 682.626937 480.249004 
L 698.588796 480.373984 
L 714.550656 480.154442 
L 730.512515 480.279407 
L 746.474374 480.086877 
" style="fill:none;stroke:#8172b3;stroke-dasharray:7.5,1.5,1.5,1.5;stroke-dashoffset:0;stroke-width:1.5;"/>
    <defs>
     <path d="M 0 4.242641 
L 2.545584 0 
L 0 -4.242641 
L -2.545584 0 
z
" id="m7715a587ae" style="stroke:#ffffff;stroke-linejoin:miter;stroke-width:0.75;"/>
    </defs>
    <g clip-path="url(#pa2c1436297)">
     <use style="fill:#8172b3;stroke:#ffffff;stroke-linejoin:miter;stroke-width:0.75;" x="123.961859" xlink:href="#m7715a587ae" y="480.765775"/>
     <use style="fill:#8172b3;stroke:#ffffff;stroke-linejoin:miter;stroke-width:0.75;" x="139.923719" xlink:href="#m7715a587ae" y="484.997875"/>
     <use style="fill:#8172b3;stroke:#ffffff;stroke-linejoin:miter;stroke-width:0.75;" x="155.885578" xlink:href="#m7715a587ae" y="486.190146"/>
     <use style="fill:#8172b3;stroke:#ffffff;stroke-linejoin:miter;stroke-width:0.75;" x="171.847437" xlink:href="#m7715a587ae" y="486.281341"/>
     <use style="fill:#8172b3;stroke:#ffffff;stroke-linejoin:miter;stroke-width:0.75;" x="187.809297" xlink:href="#m7715a587ae" y="486.40294"/>
     <use style="fill:#8172b3;stroke:#ffffff;stroke-linejoin:miter;stroke-width:0.75;" x="203.771156" xlink:href="#m7715a587ae" y="486.48737"/>
     <use style="fill:#8172b3;stroke:#ffffff;stroke-linejoin:miter;stroke-width:0.75;" x="219.733015" xlink:href="#m7715a587ae" y="486.396171"/>
     <use style="fill:#8172b3;stroke:#ffffff;stroke-linejoin:miter;stroke-width:0.75;" x="235.694875" xlink:href="#m7715a587ae" y="486.365769"/>
     <use style="fill:#8172b3;stroke:#ffffff;stroke-linejoin:miter;stroke-width:0.75;" x="251.656734" xlink:href="#m7715a587ae" y="486.055037"/>
     <use style="fill:#8172b3;stroke:#ffffff;stroke-linejoin:miter;stroke-width:0.75;" x="267.618594" xlink:href="#m7715a587ae" y="485.849005"/>
     <use style="fill:#8172b3;stroke:#ffffff;stroke-linejoin:miter;stroke-width:0.75;" x="283.580453" xlink:href="#m7715a587ae" y="485.717284"/>
     <use style="fill:#8172b3;stroke:#ffffff;stroke-linejoin:miter;stroke-width:0.75;" x="299.542312" xlink:href="#m7715a587ae" y="485.511256"/>
     <use style="fill:#8172b3;stroke:#ffffff;stroke-linejoin:miter;stroke-width:0.75;" x="315.504172" xlink:href="#m7715a587ae" y="485.055291"/>
     <use style="fill:#8172b3;stroke:#ffffff;stroke-linejoin:miter;stroke-width:0.75;" x="331.466031" xlink:href="#m7715a587ae" y="485.203902"/>
     <use style="fill:#8172b3;stroke:#ffffff;stroke-linejoin:miter;stroke-width:0.75;" x="347.42789" xlink:href="#m7715a587ae" y="485.089048"/>
     <use style="fill:#8172b3;stroke:#ffffff;stroke-linejoin:miter;stroke-width:0.75;" x="363.38975" xlink:href="#m7715a587ae" y="484.812086"/>
     <use style="fill:#8172b3;stroke:#ffffff;stroke-linejoin:miter;stroke-width:0.75;" x="379.351609" xlink:href="#m7715a587ae" y="484.173747"/>
     <use style="fill:#8172b3;stroke:#ffffff;stroke-linejoin:miter;stroke-width:0.75;" x="395.313468" xlink:href="#m7715a587ae" y="484.187247"/>
     <use style="fill:#8172b3;stroke:#ffffff;stroke-linejoin:miter;stroke-width:0.75;" x="411.275328" xlink:href="#m7715a587ae" y="483.930531"/>
     <use style="fill:#8172b3;stroke:#ffffff;stroke-linejoin:miter;stroke-width:0.75;" x="427.237187" xlink:href="#m7715a587ae" y="482.478202"/>
     <use style="fill:#8172b3;stroke:#ffffff;stroke-linejoin:miter;stroke-width:0.75;" x="443.199046" xlink:href="#m7715a587ae" y="483.173954"/>
     <use style="fill:#8172b3;stroke:#ffffff;stroke-linejoin:miter;stroke-width:0.75;" x="459.160906" xlink:href="#m7715a587ae" y="482.947668"/>
     <use style="fill:#8172b3;stroke:#ffffff;stroke-linejoin:miter;stroke-width:0.75;" x="475.122765" xlink:href="#m7715a587ae" y="482.613293"/>
     <use style="fill:#8172b3;stroke:#ffffff;stroke-linejoin:miter;stroke-width:0.75;" x="491.084625" xlink:href="#m7715a587ae" y="482.420775"/>
     <use style="fill:#8172b3;stroke:#ffffff;stroke-linejoin:miter;stroke-width:0.75;" x="507.046484" xlink:href="#m7715a587ae" y="482.086394"/>
     <use style="fill:#8172b3;stroke:#ffffff;stroke-linejoin:miter;stroke-width:0.75;" x="523.008343" xlink:href="#m7715a587ae" y="481.914146"/>
     <use style="fill:#8172b3;stroke:#ffffff;stroke-linejoin:miter;stroke-width:0.75;" x="538.970203" xlink:href="#m7715a587ae" y="481.708114"/>
     <use style="fill:#8172b3;stroke:#ffffff;stroke-linejoin:miter;stroke-width:0.75;" x="554.932062" xlink:href="#m7715a587ae" y="481.437922"/>
     <use style="fill:#8172b3;stroke:#ffffff;stroke-linejoin:miter;stroke-width:0.75;" x="570.893921" xlink:href="#m7715a587ae" y="481.502081"/>
     <use style="fill:#8172b3;stroke:#ffffff;stroke-linejoin:miter;stroke-width:0.75;" x="586.855781" xlink:href="#m7715a587ae" y="481.458179"/>
     <use style="fill:#8172b3;stroke:#ffffff;stroke-linejoin:miter;stroke-width:0.75;" x="602.81764" xlink:href="#m7715a587ae" y="481.323082"/>
     <use style="fill:#8172b3;stroke:#ffffff;stroke-linejoin:miter;stroke-width:0.75;" x="618.779499" xlink:href="#m7715a587ae" y="480.596892"/>
     <use style="fill:#8172b3;stroke:#ffffff;stroke-linejoin:miter;stroke-width:0.75;" x="634.741359" xlink:href="#m7715a587ae" y="480.262513"/>
     <use style="fill:#8172b3;stroke:#ffffff;stroke-linejoin:miter;stroke-width:0.75;" x="650.703218" xlink:href="#m7715a587ae" y="480.546231"/>
     <use style="fill:#8172b3;stroke:#ffffff;stroke-linejoin:miter;stroke-width:0.75;" x="666.665077" xlink:href="#m7715a587ae" y="480.046362"/>
     <use style="fill:#8172b3;stroke:#ffffff;stroke-linejoin:miter;stroke-width:0.75;" x="682.626937" xlink:href="#m7715a587ae" y="480.249004"/>
     <use style="fill:#8172b3;stroke:#ffffff;stroke-linejoin:miter;stroke-width:0.75;" x="698.588796" xlink:href="#m7715a587ae" y="480.373984"/>
     <use style="fill:#8172b3;stroke:#ffffff;stroke-linejoin:miter;stroke-width:0.75;" x="714.550656" xlink:href="#m7715a587ae" y="480.154442"/>
     <use style="fill:#8172b3;stroke:#ffffff;stroke-linejoin:miter;stroke-width:0.75;" x="730.512515" xlink:href="#m7715a587ae" y="480.279407"/>
     <use style="fill:#8172b3;stroke:#ffffff;stroke-linejoin:miter;stroke-width:0.75;" x="746.474374" xlink:href="#m7715a587ae" y="480.086877"/>
    </g>
   </g>
   <g id="line2d_22">
    <path clip-path="url(#pa2c1436297)" d="M 123.961859 380.72176 
L 139.923719 378.115003 
L 155.885578 382.259272 
L 171.847437 383.063155 
L 187.809297 388.065292 
L 203.771156 389.301475 
L 219.733015 389.487245 
L 235.694875 391.267228 
L 251.656734 389.524396 
L 267.618594 390.726805 
L 283.580453 386.596053 
L 299.542312 391.736135 
L 315.504172 390.368779 
L 331.466031 389.588557 
L 347.42789 391.540785 
L 363.38975 387.497843 
L 379.351609 389.159622 
L 395.313468 387.491125 
L 411.275328 391.912329 
L 427.237187 391.993401 
L 443.199046 390.291108 
L 459.160906 386.26844 
L 475.122765 387.90653 
L 491.084625 390.220163 
L 507.046484 389.497373 
L 523.008343 388.767816 
L 538.970203 389.264313 
L 554.932062 385.213415 
L 570.893921 391.047666 
L 586.855781 387.89304 
L 602.81764 388.717148 
L 618.779499 387.933567 
L 634.741359 387.396526 
L 650.703218 390.493748 
L 666.665077 387.882891 
L 682.626937 386.795321 
L 698.588796 388.25779 
L 714.550656 389.255947 
L 730.512515 385.589535 
L 746.474374 388.045014 
" style="fill:none;stroke:#937860;stroke-dasharray:4.5,1.875,1.875,1.875,1.875,1.875;stroke-dashoffset:0;stroke-width:1.5;"/>
    <defs>
     <path d="M -1 3 
L 1 3 
L 1 1 
L 3 1 
L 3 -1 
L 1 -1 
L 1 -3 
L -1 -3 
L -1 -1 
L -3 -1 
L -3 1 
L -1 1 
z
" id="m5ac7ac27ad" style="stroke:#ffffff;stroke-linejoin:miter;stroke-width:0.75;"/>
    </defs>
    <g clip-path="url(#pa2c1436297)">
     <use style="fill:#937860;stroke:#ffffff;stroke-linejoin:miter;stroke-width:0.75;" x="123.961859" xlink:href="#m5ac7ac27ad" y="380.72176"/>
     <use style="fill:#937860;stroke:#ffffff;stroke-linejoin:miter;stroke-width:0.75;" x="139.923719" xlink:href="#m5ac7ac27ad" y="378.115003"/>
     <use style="fill:#937860;stroke:#ffffff;stroke-linejoin:miter;stroke-width:0.75;" x="155.885578" xlink:href="#m5ac7ac27ad" y="382.259272"/>
     <use style="fill:#937860;stroke:#ffffff;stroke-linejoin:miter;stroke-width:0.75;" x="171.847437" xlink:href="#m5ac7ac27ad" y="383.063155"/>
     <use style="fill:#937860;stroke:#ffffff;stroke-linejoin:miter;stroke-width:0.75;" x="187.809297" xlink:href="#m5ac7ac27ad" y="388.065292"/>
     <use style="fill:#937860;stroke:#ffffff;stroke-linejoin:miter;stroke-width:0.75;" x="203.771156" xlink:href="#m5ac7ac27ad" y="389.301475"/>
     <use style="fill:#937860;stroke:#ffffff;stroke-linejoin:miter;stroke-width:0.75;" x="219.733015" xlink:href="#m5ac7ac27ad" y="389.487245"/>
     <use style="fill:#937860;stroke:#ffffff;stroke-linejoin:miter;stroke-width:0.75;" x="235.694875" xlink:href="#m5ac7ac27ad" y="391.267228"/>
     <use style="fill:#937860;stroke:#ffffff;stroke-linejoin:miter;stroke-width:0.75;" x="251.656734" xlink:href="#m5ac7ac27ad" y="389.524396"/>
     <use style="fill:#937860;stroke:#ffffff;stroke-linejoin:miter;stroke-width:0.75;" x="267.618594" xlink:href="#m5ac7ac27ad" y="390.726805"/>
     <use style="fill:#937860;stroke:#ffffff;stroke-linejoin:miter;stroke-width:0.75;" x="283.580453" xlink:href="#m5ac7ac27ad" y="386.596053"/>
     <use style="fill:#937860;stroke:#ffffff;stroke-linejoin:miter;stroke-width:0.75;" x="299.542312" xlink:href="#m5ac7ac27ad" y="391.736135"/>
     <use style="fill:#937860;stroke:#ffffff;stroke-linejoin:miter;stroke-width:0.75;" x="315.504172" xlink:href="#m5ac7ac27ad" y="390.368779"/>
     <use style="fill:#937860;stroke:#ffffff;stroke-linejoin:miter;stroke-width:0.75;" x="331.466031" xlink:href="#m5ac7ac27ad" y="389.588557"/>
     <use style="fill:#937860;stroke:#ffffff;stroke-linejoin:miter;stroke-width:0.75;" x="347.42789" xlink:href="#m5ac7ac27ad" y="391.540785"/>
     <use style="fill:#937860;stroke:#ffffff;stroke-linejoin:miter;stroke-width:0.75;" x="363.38975" xlink:href="#m5ac7ac27ad" y="387.497843"/>
     <use style="fill:#937860;stroke:#ffffff;stroke-linejoin:miter;stroke-width:0.75;" x="379.351609" xlink:href="#m5ac7ac27ad" y="389.159622"/>
     <use style="fill:#937860;stroke:#ffffff;stroke-linejoin:miter;stroke-width:0.75;" x="395.313468" xlink:href="#m5ac7ac27ad" y="387.491125"/>
     <use style="fill:#937860;stroke:#ffffff;stroke-linejoin:miter;stroke-width:0.75;" x="411.275328" xlink:href="#m5ac7ac27ad" y="391.912329"/>
     <use style="fill:#937860;stroke:#ffffff;stroke-linejoin:miter;stroke-width:0.75;" x="427.237187" xlink:href="#m5ac7ac27ad" y="391.993401"/>
     <use style="fill:#937860;stroke:#ffffff;stroke-linejoin:miter;stroke-width:0.75;" x="443.199046" xlink:href="#m5ac7ac27ad" y="390.291108"/>
     <use style="fill:#937860;stroke:#ffffff;stroke-linejoin:miter;stroke-width:0.75;" x="459.160906" xlink:href="#m5ac7ac27ad" y="386.26844"/>
     <use style="fill:#937860;stroke:#ffffff;stroke-linejoin:miter;stroke-width:0.75;" x="475.122765" xlink:href="#m5ac7ac27ad" y="387.90653"/>
     <use style="fill:#937860;stroke:#ffffff;stroke-linejoin:miter;stroke-width:0.75;" x="491.084625" xlink:href="#m5ac7ac27ad" y="390.220163"/>
     <use style="fill:#937860;stroke:#ffffff;stroke-linejoin:miter;stroke-width:0.75;" x="507.046484" xlink:href="#m5ac7ac27ad" y="389.497373"/>
     <use style="fill:#937860;stroke:#ffffff;stroke-linejoin:miter;stroke-width:0.75;" x="523.008343" xlink:href="#m5ac7ac27ad" y="388.767816"/>
     <use style="fill:#937860;stroke:#ffffff;stroke-linejoin:miter;stroke-width:0.75;" x="538.970203" xlink:href="#m5ac7ac27ad" y="389.264313"/>
     <use style="fill:#937860;stroke:#ffffff;stroke-linejoin:miter;stroke-width:0.75;" x="554.932062" xlink:href="#m5ac7ac27ad" y="385.213415"/>
     <use style="fill:#937860;stroke:#ffffff;stroke-linejoin:miter;stroke-width:0.75;" x="570.893921" xlink:href="#m5ac7ac27ad" y="391.047666"/>
     <use style="fill:#937860;stroke:#ffffff;stroke-linejoin:miter;stroke-width:0.75;" x="586.855781" xlink:href="#m5ac7ac27ad" y="387.89304"/>
     <use style="fill:#937860;stroke:#ffffff;stroke-linejoin:miter;stroke-width:0.75;" x="602.81764" xlink:href="#m5ac7ac27ad" y="388.717148"/>
     <use style="fill:#937860;stroke:#ffffff;stroke-linejoin:miter;stroke-width:0.75;" x="618.779499" xlink:href="#m5ac7ac27ad" y="387.933567"/>
     <use style="fill:#937860;stroke:#ffffff;stroke-linejoin:miter;stroke-width:0.75;" x="634.741359" xlink:href="#m5ac7ac27ad" y="387.396526"/>
     <use style="fill:#937860;stroke:#ffffff;stroke-linejoin:miter;stroke-width:0.75;" x="650.703218" xlink:href="#m5ac7ac27ad" y="390.493748"/>
     <use style="fill:#937860;stroke:#ffffff;stroke-linejoin:miter;stroke-width:0.75;" x="666.665077" xlink:href="#m5ac7ac27ad" y="387.882891"/>
     <use style="fill:#937860;stroke:#ffffff;stroke-linejoin:miter;stroke-width:0.75;" x="682.626937" xlink:href="#m5ac7ac27ad" y="386.795321"/>
     <use style="fill:#937860;stroke:#ffffff;stroke-linejoin:miter;stroke-width:0.75;" x="698.588796" xlink:href="#m5ac7ac27ad" y="388.25779"/>
     <use style="fill:#937860;stroke:#ffffff;stroke-linejoin:miter;stroke-width:0.75;" x="714.550656" xlink:href="#m5ac7ac27ad" y="389.255947"/>
     <use style="fill:#937860;stroke:#ffffff;stroke-linejoin:miter;stroke-width:0.75;" x="730.512515" xlink:href="#m5ac7ac27ad" y="385.589535"/>
     <use style="fill:#937860;stroke:#ffffff;stroke-linejoin:miter;stroke-width:0.75;" x="746.474374" xlink:href="#m5ac7ac27ad" y="388.045014"/>
    </g>
   </g>
   <g id="line2d_23"/>
   <g id="line2d_24"/>
   <g id="line2d_25"/>
   <g id="line2d_26"/>
   <g id="line2d_27"/>
   <g id="line2d_28"/>
   <g id="patch_3">
    <path d="M 108 504 
L 108 69.12 
" style="fill:none;stroke:#cccccc;stroke-linecap:square;stroke-linejoin:miter;stroke-width:1.25;"/>
   </g>
   <g id="patch_4">
    <path d="M 777.6 504 
L 777.6 69.12 
" style="fill:none;stroke:#cccccc;stroke-linecap:square;stroke-linejoin:miter;stroke-width:1.25;"/>
   </g>
   <g id="patch_5">
    <path d="M 108 504 
L 777.6 504 
" style="fill:none;stroke:#cccccc;stroke-linecap:square;stroke-linejoin:miter;stroke-width:1.25;"/>
   </g>
   <g id="patch_6">
    <path d="M 108 69.12 
L 777.6 69.12 
" style="fill:none;stroke:#cccccc;stroke-linecap:square;stroke-linejoin:miter;stroke-width:1.25;"/>
   </g>
   <g id="text_19">
    <!-- Binary Classifier: Fit_Time - 10-fold CV Mean -->
    <g style="fill:#262626;" transform="translate(262.593281 57.12)scale(0.18 -0.18)">
     <defs>
      <path d="M 7.328125 0 
L 7.328125 71.578125 
L 34.1875 71.578125 
Q 42.390625 71.578125 47.34375 69.40625 
Q 52.296875 67.234375 55.09375 62.71875 
Q 57.90625 58.203125 57.90625 53.265625 
Q 57.90625 48.6875 55.421875 44.625 
Q 52.9375 40.578125 47.90625 38.09375 
Q 54.390625 36.1875 57.875 31.59375 
Q 61.375 27 61.375 20.75 
Q 61.375 15.71875 59.25 11.390625 
Q 57.125 7.078125 54 4.734375 
Q 50.875 2.390625 46.15625 1.1875 
Q 41.453125 0 34.625 0 
z
M 16.796875 41.5 
L 32.28125 41.5 
Q 38.578125 41.5 41.3125 42.328125 
Q 44.921875 43.40625 46.75 45.890625 
Q 48.578125 48.390625 48.578125 52.15625 
Q 48.578125 55.71875 46.875 58.421875 
Q 45.171875 61.140625 41.984375 62.140625 
Q 38.8125 63.140625 31.109375 63.140625 
L 16.796875 63.140625 
z
M 16.796875 8.453125 
L 34.625 8.453125 
Q 39.203125 8.453125 41.0625 8.796875 
Q 44.34375 9.375 46.53125 10.734375 
Q 48.734375 12.109375 50.140625 14.71875 
Q 51.5625 17.328125 51.5625 20.75 
Q 51.5625 24.75 49.515625 27.703125 
Q 47.46875 30.671875 43.828125 31.859375 
Q 40.1875 33.0625 33.34375 33.0625 
L 16.796875 33.0625 
z
" id="ArialMT-66"/>
      <path d="M 6.203125 -19.96875 
L 5.21875 -11.71875 
Q 8.109375 -12.5 10.25 -12.5 
Q 13.1875 -12.5 14.9375 -11.515625 
Q 16.703125 -10.546875 17.828125 -8.796875 
Q 18.65625 -7.46875 20.515625 -2.25 
Q 20.75 -1.515625 21.296875 -0.09375 
L 1.609375 51.859375 
L 11.078125 51.859375 
L 21.875 21.828125 
Q 23.96875 16.109375 25.640625 9.8125 
Q 27.15625 15.875 29.25 21.625 
L 40.328125 51.859375 
L 49.125 51.859375 
L 29.390625 -0.875 
Q 26.21875 -9.421875 24.46875 -12.640625 
Q 22.125 -17 19.09375 -19.015625 
Q 16.0625 -21.046875 11.859375 -21.046875 
Q 9.328125 -21.046875 6.203125 -19.96875 
z
" id="ArialMT-121"/>
      <path d="M 58.796875 25.09375 
L 68.265625 22.703125 
Q 65.28125 11.03125 57.546875 4.90625 
Q 49.8125 -1.21875 38.625 -1.21875 
Q 27.046875 -1.21875 19.796875 3.484375 
Q 12.546875 8.203125 8.765625 17.140625 
Q 4.984375 26.078125 4.984375 36.328125 
Q 4.984375 47.515625 9.25 55.828125 
Q 13.53125 64.15625 21.40625 68.46875 
Q 29.296875 72.796875 38.765625 72.796875 
Q 49.515625 72.796875 56.828125 67.328125 
Q 64.15625 61.859375 67.046875 51.953125 
L 57.71875 49.75 
Q 55.21875 57.5625 50.484375 61.125 
Q 45.75 64.703125 38.578125 64.703125 
Q 30.328125 64.703125 24.78125 60.734375 
Q 19.234375 56.78125 16.984375 50.109375 
Q 14.75 43.453125 14.75 36.375 
Q 14.75 27.25 17.40625 20.4375 
Q 20.0625 13.625 25.671875 10.25 
Q 31.296875 6.890625 37.84375 6.890625 
Q 45.796875 6.890625 51.3125 11.46875 
Q 56.84375 16.0625 58.796875 25.09375 
z
" id="ArialMT-67"/>
      <path d="M 6.390625 0 
L 6.390625 71.578125 
L 15.1875 71.578125 
L 15.1875 0 
z
" id="ArialMT-108"/>
      <path d="M 9.03125 41.84375 
L 9.03125 51.859375 
L 19.046875 51.859375 
L 19.046875 41.84375 
z
M 9.03125 0 
L 9.03125 10.015625 
L 19.046875 10.015625 
L 19.046875 0 
z
" id="ArialMT-58"/>
      <path d="M -1.515625 -19.875 
L -1.515625 -13.53125 
L 56.734375 -13.53125 
L 56.734375 -19.875 
z
" id="ArialMT-95"/>
      <path d="M 25.921875 0 
L 25.921875 63.140625 
L 2.34375 63.140625 
L 2.34375 71.578125 
L 59.078125 71.578125 
L 59.078125 63.140625 
L 35.40625 63.140625 
L 35.40625 0 
z
" id="ArialMT-84"/>
      <path d="M 3.171875 21.484375 
L 3.171875 30.328125 
L 30.171875 30.328125 
L 30.171875 21.484375 
z
" id="ArialMT-45"/>
      <path d="M 28.171875 0 
L 0.4375 71.578125 
L 10.6875 71.578125 
L 29.296875 19.578125 
Q 31.546875 13.328125 33.0625 7.859375 
Q 34.71875 13.71875 36.921875 19.578125 
L 56.25 71.578125 
L 65.921875 71.578125 
L 37.890625 0 
z
" id="ArialMT-86"/>
      <path d="M 7.421875 0 
L 7.421875 71.578125 
L 21.6875 71.578125 
L 38.625 20.90625 
Q 40.96875 13.8125 42.046875 10.296875 
Q 43.265625 14.203125 45.84375 21.78125 
L 62.984375 71.578125 
L 75.734375 71.578125 
L 75.734375 0 
L 66.609375 0 
L 66.609375 59.90625 
L 45.796875 0 
L 37.25 0 
L 16.546875 60.9375 
L 16.546875 0 
z
" id="ArialMT-77"/>
     </defs>
     <use xlink:href="#ArialMT-66"/>
     <use x="66.699219" xlink:href="#ArialMT-105"/>
     <use x="88.916016" xlink:href="#ArialMT-110"/>
     <use x="144.53125" xlink:href="#ArialMT-97"/>
     <use x="200.146484" xlink:href="#ArialMT-114"/>
     <use x="233.447266" xlink:href="#ArialMT-121"/>
     <use x="283.447266" xlink:href="#ArialMT-32"/>
     <use x="311.230469" xlink:href="#ArialMT-67"/>
     <use x="383.447266" xlink:href="#ArialMT-108"/>
     <use x="405.664062" xlink:href="#ArialMT-97"/>
     <use x="461.279297" xlink:href="#ArialMT-115"/>
     <use x="511.279297" xlink:href="#ArialMT-115"/>
     <use x="561.279297" xlink:href="#ArialMT-105"/>
     <use x="583.496094" xlink:href="#ArialMT-102"/>
     <use x="611.279297" xlink:href="#ArialMT-105"/>
     <use x="633.496094" xlink:href="#ArialMT-101"/>
     <use x="689.111328" xlink:href="#ArialMT-114"/>
     <use x="722.412109" xlink:href="#ArialMT-58"/>
     <use x="750.195312" xlink:href="#ArialMT-32"/>
     <use x="777.978516" xlink:href="#ArialMT-70"/>
     <use x="839.0625" xlink:href="#ArialMT-105"/>
     <use x="861.279297" xlink:href="#ArialMT-116"/>
     <use x="889.0625" xlink:href="#ArialMT-95"/>
     <use x="944.677734" xlink:href="#ArialMT-84"/>
     <use x="1002.011719" xlink:href="#ArialMT-105"/>
     <use x="1024.228516" xlink:href="#ArialMT-109"/>
     <use x="1107.529297" xlink:href="#ArialMT-101"/>
     <use x="1163.144531" xlink:href="#ArialMT-32"/>
     <use x="1190.927734" xlink:href="#ArialMT-45"/>
     <use x="1224.228516" xlink:href="#ArialMT-32"/>
     <use x="1252.011719" xlink:href="#ArialMT-49"/>
     <use x="1307.626953" xlink:href="#ArialMT-48"/>
     <use x="1363.242188" xlink:href="#ArialMT-45"/>
     <use x="1396.542969" xlink:href="#ArialMT-102"/>
     <use x="1424.326172" xlink:href="#ArialMT-111"/>
     <use x="1479.941406" xlink:href="#ArialMT-108"/>
     <use x="1502.158203" xlink:href="#ArialMT-100"/>
     <use x="1557.773438" xlink:href="#ArialMT-32"/>
     <use x="1585.556641" xlink:href="#ArialMT-67"/>
     <use x="1657.773438" xlink:href="#ArialMT-86"/>
     <use x="1724.472656" xlink:href="#ArialMT-32"/>
     <use x="1752.255859" xlink:href="#ArialMT-77"/>
     <use x="1835.556641" xlink:href="#ArialMT-101"/>
     <use x="1891.171875" xlink:href="#ArialMT-97"/>
     <use x="1946.787109" xlink:href="#ArialMT-110"/>
    </g>
   </g>
   <g id="legend_1">
    <g id="patch_7">
     <path d="M 604.19225 204.8555 
L 769.52 204.8555 
Q 772.4 204.8555 772.4 201.9755 
L 772.4 81.2 
Q 772.4 78.32 769.52 78.32 
L 604.19225 78.32 
Q 601.31225 78.32 601.31225 81.2 
L 601.31225 201.9755 
Q 601.31225 204.8555 604.19225 204.8555 
z
" style="fill:#4c4c4c;opacity:0.5;stroke:#4c4c4c;stroke-linejoin:miter;"/>
    </g>
    <g id="patch_8">
     <path d="M 602.19225 202.8555 
L 767.52 202.8555 
Q 770.4 202.8555 770.4 199.9755 
L 770.4 79.2 
Q 770.4 76.32 767.52 76.32 
L 602.19225 76.32 
Q 599.31225 76.32 599.31225 79.2 
L 599.31225 199.9755 
Q 599.31225 202.8555 602.19225 202.8555 
z
" style="fill:#ffffff;stroke:#cccccc;stroke-linejoin:miter;"/>
    </g>
    <g id="line2d_29">
     <path d="M 605.07225 87.34725 
L 633.87225 87.34725 
" style="fill:none;stroke:#4c72b0;stroke-linecap:round;stroke-width:1.5;"/>
    </g>
    <g id="line2d_30">
     <defs>
      <path d="M -0 3 
L 3 -3 
L -3 -3 
z
" id="m3f407118fd" style="stroke:#4c72b0;stroke-linejoin:miter;"/>
     </defs>
     <g>
      <use style="fill:#4c72b0;stroke:#4c72b0;stroke-linejoin:miter;" x="619.47225" xlink:href="#m3f407118fd" y="87.34725"/>
     </g>
    </g>
    <g id="text_20">
     <!-- Mutual Information -->
     <g style="fill:#262626;" transform="translate(645.39225 92.38725)scale(0.144 -0.144)">
      <defs>
       <path d="M 9.328125 0 
L 9.328125 71.578125 
L 18.796875 71.578125 
L 18.796875 0 
z
" id="ArialMT-73"/>
      </defs>
      <use xlink:href="#ArialMT-77"/>
      <use x="83.300781" xlink:href="#ArialMT-117"/>
      <use x="138.916016" xlink:href="#ArialMT-116"/>
      <use x="166.699219" xlink:href="#ArialMT-117"/>
      <use x="222.314453" xlink:href="#ArialMT-97"/>
      <use x="277.929688" xlink:href="#ArialMT-108"/>
      <use x="300.146484" xlink:href="#ArialMT-32"/>
      <use x="327.929688" xlink:href="#ArialMT-73"/>
      <use x="355.712891" xlink:href="#ArialMT-110"/>
      <use x="411.328125" xlink:href="#ArialMT-102"/>
      <use x="439.111328" xlink:href="#ArialMT-111"/>
      <use x="494.726562" xlink:href="#ArialMT-114"/>
      <use x="528.027344" xlink:href="#ArialMT-109"/>
      <use x="611.328125" xlink:href="#ArialMT-97"/>
      <use x="666.943359" xlink:href="#ArialMT-116"/>
      <use x="694.726562" xlink:href="#ArialMT-105"/>
      <use x="716.943359" xlink:href="#ArialMT-111"/>
      <use x="772.558594" xlink:href="#ArialMT-110"/>
     </g>
    </g>
    <g id="line2d_31">
     <path d="M 605.07225 107.7165 
L 633.87225 107.7165 
" style="fill:none;stroke:#dd8452;stroke-dasharray:6,2.25;stroke-dashoffset:0;stroke-width:1.5;"/>
    </g>
    <g id="line2d_32">
     <defs>
      <path d="M 0 3 
C 0.795609 3 1.55874 2.683901 2.12132 2.12132 
C 2.683901 1.55874 3 0.795609 3 0 
C 3 -0.795609 2.683901 -1.55874 2.12132 -2.12132 
C 1.55874 -2.683901 0.795609 -3 0 -3 
C -0.795609 -3 -1.55874 -2.683901 -2.12132 -2.12132 
C -2.683901 -1.55874 -3 -0.795609 -3 0 
C -3 0.795609 -2.683901 1.55874 -2.12132 2.12132 
C -1.55874 2.683901 -0.795609 3 0 3 
z
" id="md63979907d" style="stroke:#dd8452;"/>
     </defs>
     <g>
      <use style="fill:#dd8452;stroke:#dd8452;" x="619.47225" xlink:href="#md63979907d" y="107.7165"/>
     </g>
    </g>
    <g id="text_21">
     <!-- ANOVA -->
     <g style="fill:#262626;" transform="translate(645.39225 112.7565)scale(0.144 -0.144)">
      <defs>
       <path d="M -0.140625 0 
L 27.34375 71.578125 
L 37.546875 71.578125 
L 66.84375 0 
L 56.0625 0 
L 47.703125 21.6875 
L 17.78125 21.6875 
L 9.90625 0 
z
M 20.515625 29.390625 
L 44.78125 29.390625 
L 37.3125 49.21875 
Q 33.890625 58.25 32.234375 64.0625 
Q 30.859375 57.171875 28.375 50.390625 
z
" id="ArialMT-65"/>
       <path d="M 4.828125 34.859375 
Q 4.828125 52.6875 14.390625 62.765625 
Q 23.96875 72.859375 39.109375 72.859375 
Q 49.03125 72.859375 56.984375 68.109375 
Q 64.9375 63.375 69.109375 54.90625 
Q 73.296875 46.4375 73.296875 35.6875 
Q 73.296875 24.8125 68.890625 16.21875 
Q 64.5 7.625 56.4375 3.203125 
Q 48.390625 -1.21875 39.0625 -1.21875 
Q 28.953125 -1.21875 20.984375 3.65625 
Q 13.03125 8.546875 8.921875 16.984375 
Q 4.828125 25.4375 4.828125 34.859375 
z
M 14.59375 34.71875 
Q 14.59375 21.78125 21.546875 14.328125 
Q 28.515625 6.890625 39.015625 6.890625 
Q 49.703125 6.890625 56.609375 14.40625 
Q 63.53125 21.921875 63.53125 35.75 
Q 63.53125 44.484375 60.578125 51 
Q 57.625 57.515625 51.921875 61.109375 
Q 46.234375 64.703125 39.15625 64.703125 
Q 29.109375 64.703125 21.84375 57.78125 
Q 14.59375 50.875 14.59375 34.71875 
z
" id="ArialMT-79"/>
      </defs>
      <use xlink:href="#ArialMT-65"/>
      <use x="66.699219" xlink:href="#ArialMT-78"/>
      <use x="138.916016" xlink:href="#ArialMT-79"/>
      <use x="216.699219" xlink:href="#ArialMT-86"/>
      <use x="276.023438" xlink:href="#ArialMT-65"/>
     </g>
    </g>
    <g id="line2d_33">
     <path d="M 605.07225 128.08575 
L 633.87225 128.08575 
" style="fill:none;stroke:#55a868;stroke-dasharray:1.5,1.5;stroke-dashoffset:0;stroke-width:1.5;"/>
    </g>
    <g id="line2d_34">
     <defs>
      <path d="M -3 3 
L 3 3 
L 3 -3 
L -3 -3 
z
" id="m8bd0779647" style="stroke:#55a868;stroke-linejoin:miter;"/>
     </defs>
     <g>
      <use style="fill:#55a868;stroke:#55a868;stroke-linejoin:miter;" x="619.47225" xlink:href="#m8bd0779647" y="128.08575"/>
     </g>
    </g>
    <g id="text_22">
     <!-- ReliefF -->
     <g style="fill:#262626;" transform="translate(645.39225 133.12575)scale(0.144 -0.144)">
      <use xlink:href="#ArialMT-82"/>
      <use x="72.216797" xlink:href="#ArialMT-101"/>
      <use x="127.832031" xlink:href="#ArialMT-108"/>
      <use x="150.048828" xlink:href="#ArialMT-105"/>
      <use x="172.265625" xlink:href="#ArialMT-101"/>
      <use x="227.880859" xlink:href="#ArialMT-102"/>
      <use x="255.664062" xlink:href="#ArialMT-70"/>
     </g>
    </g>
    <g id="line2d_35">
     <path d="M 605.07225 148.455 
L 633.87225 148.455 
" style="fill:none;stroke:#c44e52;stroke-dasharray:4.5,1.875,2.25,1.875;stroke-dashoffset:0;stroke-width:1.5;"/>
    </g>
    <g id="line2d_36">
     <defs>
      <path d="M 0 -3 
L -3 3 
L 3 3 
z
" id="m5d6a20f01c" style="stroke:#c44e52;stroke-linejoin:miter;"/>
     </defs>
     <g>
      <use style="fill:#c44e52;stroke:#c44e52;stroke-linejoin:miter;" x="619.47225" xlink:href="#m5d6a20f01c" y="148.455"/>
     </g>
    </g>
    <g id="text_23">
     <!-- RFE -->
     <g style="fill:#262626;" transform="translate(645.39225 153.495)scale(0.144 -0.144)">
      <defs>
       <path d="M 7.90625 0 
L 7.90625 71.578125 
L 59.671875 71.578125 
L 59.671875 63.140625 
L 17.390625 63.140625 
L 17.390625 41.21875 
L 56.984375 41.21875 
L 56.984375 32.8125 
L 17.390625 32.8125 
L 17.390625 8.453125 
L 61.328125 8.453125 
L 61.328125 0 
z
" id="ArialMT-69"/>
      </defs>
      <use xlink:href="#ArialMT-82"/>
      <use x="72.216797" xlink:href="#ArialMT-70"/>
      <use x="133.300781" xlink:href="#ArialMT-69"/>
     </g>
    </g>
    <g id="line2d_37">
     <path d="M 605.07225 168.82425 
L 633.87225 168.82425 
" style="fill:none;stroke:#8172b3;stroke-dasharray:7.5,1.5,1.5,1.5;stroke-dashoffset:0;stroke-width:1.5;"/>
    </g>
    <g id="line2d_38">
     <defs>
      <path d="M 0 4.242641 
L 2.545584 0 
L 0 -4.242641 
L -2.545584 0 
z
" id="m58d097845d" style="stroke:#8172b3;stroke-linejoin:miter;"/>
     </defs>
     <g>
      <use style="fill:#8172b3;stroke:#8172b3;stroke-linejoin:miter;" x="619.47225" xlink:href="#m58d097845d" y="168.82425"/>
     </g>
    </g>
    <g id="text_24">
     <!-- XGBoost Gain -->
     <g style="fill:#262626;" transform="translate(645.39225 173.86425)scale(0.144 -0.144)">
      <defs>
       <path d="M 0.4375 0 
L 28.125 37.3125 
L 3.71875 71.578125 
L 14.984375 71.578125 
L 27.984375 53.21875 
Q 32.03125 47.515625 33.734375 44.4375 
Q 36.140625 48.34375 39.40625 52.59375 
L 53.8125 71.578125 
L 64.109375 71.578125 
L 38.96875 37.84375 
L 66.0625 0 
L 54.34375 0 
L 36.328125 25.53125 
Q 34.8125 27.734375 33.203125 30.328125 
Q 30.8125 26.421875 29.78125 24.953125 
L 11.8125 0 
z
" id="ArialMT-88"/>
       <path d="M 41.21875 28.078125 
L 41.21875 36.46875 
L 71.53125 36.53125 
L 71.53125 9.96875 
Q 64.546875 4.390625 57.125 1.578125 
Q 49.703125 -1.21875 41.890625 -1.21875 
Q 31.34375 -1.21875 22.71875 3.296875 
Q 14.109375 7.8125 9.71875 16.359375 
Q 5.328125 24.90625 5.328125 35.453125 
Q 5.328125 45.90625 9.6875 54.953125 
Q 14.0625 64.015625 22.265625 68.40625 
Q 30.46875 72.796875 41.15625 72.796875 
Q 48.921875 72.796875 55.1875 70.28125 
Q 61.46875 67.78125 65.03125 63.28125 
Q 68.609375 58.796875 70.453125 51.5625 
L 61.921875 49.21875 
Q 60.296875 54.6875 57.90625 57.8125 
Q 55.515625 60.9375 51.0625 62.8125 
Q 46.625 64.703125 41.21875 64.703125 
Q 34.71875 64.703125 29.984375 62.71875 
Q 25.25 60.75 22.34375 57.515625 
Q 19.4375 54.296875 17.828125 50.4375 
Q 15.09375 43.796875 15.09375 36.03125 
Q 15.09375 26.46875 18.390625 20.015625 
Q 21.6875 13.578125 27.984375 10.453125 
Q 34.28125 7.328125 41.359375 7.328125 
Q 47.515625 7.328125 53.375 9.6875 
Q 59.234375 12.0625 62.25 14.75 
L 62.25 28.078125 
z
" id="ArialMT-71"/>
      </defs>
      <use xlink:href="#ArialMT-88"/>
      <use x="66.699219" xlink:href="#ArialMT-71"/>
      <use x="144.482422" xlink:href="#ArialMT-66"/>
      <use x="211.181641" xlink:href="#ArialMT-111"/>
      <use x="266.796875" xlink:href="#ArialMT-111"/>
      <use x="322.412109" xlink:href="#ArialMT-115"/>
      <use x="372.412109" xlink:href="#ArialMT-116"/>
      <use x="400.195312" xlink:href="#ArialMT-32"/>
      <use x="427.978516" xlink:href="#ArialMT-71"/>
      <use x="505.761719" xlink:href="#ArialMT-97"/>
      <use x="561.376953" xlink:href="#ArialMT-105"/>
      <use x="583.59375" xlink:href="#ArialMT-110"/>
     </g>
    </g>
    <g id="line2d_39">
     <path d="M 605.07225 189.1935 
L 633.87225 189.1935 
" style="fill:none;stroke:#937860;stroke-dasharray:4.5,1.875,1.875,1.875,1.875,1.875;stroke-dashoffset:0;stroke-width:1.5;"/>
    </g>
    <g id="line2d_40">
     <defs>
      <path d="M -1 3 
L 1 3 
L 1 1 
L 3 1 
L 3 -1 
L 1 -1 
L 1 -3 
L -1 -3 
L -1 -1 
L -3 -1 
L -3 1 
L -1 1 
z
" id="m433f202349" style="stroke:#937860;stroke-linejoin:miter;"/>
     </defs>
     <g>
      <use style="fill:#937860;stroke:#937860;stroke-linejoin:miter;" x="619.47225" xlink:href="#m433f202349" y="189.1935"/>
     </g>
    </g>
    <g id="text_25">
     <!-- Ensemble -->
     <g style="fill:#262626;" transform="translate(645.39225 194.2335)scale(0.144 -0.144)">
      <use xlink:href="#ArialMT-69"/>
      <use x="66.699219" xlink:href="#ArialMT-110"/>
      <use x="122.314453" xlink:href="#ArialMT-115"/>
      <use x="172.314453" xlink:href="#ArialMT-101"/>
      <use x="227.929688" xlink:href="#ArialMT-109"/>
      <use x="311.230469" xlink:href="#ArialMT-98"/>
      <use x="366.845703" xlink:href="#ArialMT-108"/>
      <use x="389.0625" xlink:href="#ArialMT-101"/>
     </g>
    </g>
   </g>
  </g>
 </g>
 <defs>
  <clipPath id="pa2c1436297">
   <rect height="434.88" width="669.6" x="108" y="69.12"/>
  </clipPath>
 </defs>
</svg>
