<?xml version="1.0" encoding="utf-8" standalone="no"?>
<!DOCTYPE svg PUBLIC "-//W3C//DTD SVG 1.1//EN"
  "http://www.w3.org/Graphics/SVG/1.1/DTD/svg11.dtd">
<!-- Created with matplotlib (https://matplotlib.org/) -->
<svg height="576pt" version="1.1" viewBox="0 0 864 576" width="864pt" xmlns="http://www.w3.org/2000/svg" xmlns:xlink="http://www.w3.org/1999/xlink">
 <metadata>
  <rdf:RDF xmlns:cc="http://creativecommons.org/ns#" xmlns:dc="http://purl.org/dc/elements/1.1/" xmlns:rdf="http://www.w3.org/1999/02/22-rdf-syntax-ns#">
   <cc:Work>
    <dc:type rdf:resource="http://purl.org/dc/dcmitype/StillImage"/>
    <dc:date>2022-07-10T01:10:49.279622</dc:date>
    <dc:format>image/svg+xml</dc:format>
    <dc:creator>
     <cc:Agent>
      <dc:title>Matplotlib v3.3.2, https://matplotlib.org/</dc:title>
     </cc:Agent>
    </dc:creator>
   </cc:Work>
  </rdf:RDF>
 </metadata>
 <defs>
  <style type="text/css">*{stroke-linecap:butt;stroke-linejoin:round;}</style>
 </defs>
 <g id="figure_1">
  <g id="patch_1">
   <path d="M 0 576 
L 864 576 
L 864 0 
L 0 0 
z
" style="fill:#ffffff;"/>
  </g>
  <g id="axes_1">
   <g id="patch_2">
    <path d="M 108 504 
L 777.6 504 
L 777.6 69.12 
L 108 69.12 
z
" style="fill:#ffffff;"/>
   </g>
   <g id="matplotlib.axis_1">
    <g id="xtick_1">
     <g id="line2d_1">
      <path clip-path="url(#padb5f6a30a)" d="M 108 504 
L 108 69.12 
" style="fill:none;stroke:#cccccc;stroke-linecap:round;"/>
     </g>
     <g id="text_1">
      <!-- 0 -->
      <g style="fill:#262626;" transform="translate(104.941484 521.373594)scale(0.11 -0.11)">
       <defs>
        <path d="M 4.15625 35.296875 
Q 4.15625 48 6.765625 55.734375 
Q 9.375 63.484375 14.515625 67.671875 
Q 19.671875 71.875 27.484375 71.875 
Q 33.25 71.875 37.59375 69.546875 
Q 41.9375 67.234375 44.765625 62.859375 
Q 47.609375 58.5 49.21875 52.21875 
Q 50.828125 45.953125 50.828125 35.296875 
Q 50.828125 22.703125 48.234375 14.96875 
Q 45.65625 7.234375 40.5 3 
Q 35.359375 -1.21875 27.484375 -1.21875 
Q 17.140625 -1.21875 11.234375 6.203125 
Q 4.15625 15.140625 4.15625 35.296875 
z
M 13.1875 35.296875 
Q 13.1875 17.671875 17.3125 11.828125 
Q 21.4375 6 27.484375 6 
Q 33.546875 6 37.671875 11.859375 
Q 41.796875 17.71875 41.796875 35.296875 
Q 41.796875 52.984375 37.671875 58.78125 
Q 33.546875 64.59375 27.390625 64.59375 
Q 21.34375 64.59375 17.71875 59.46875 
Q 13.1875 52.9375 13.1875 35.296875 
z
" id="ArialMT-48"/>
       </defs>
       <use xlink:href="#ArialMT-48"/>
      </g>
     </g>
    </g>
    <g id="xtick_2">
     <g id="line2d_2">
      <path clip-path="url(#padb5f6a30a)" d="M 187.809297 504 
L 187.809297 69.12 
" style="fill:none;stroke:#cccccc;stroke-linecap:round;"/>
     </g>
     <g id="text_2">
      <!-- 5 -->
      <g style="fill:#262626;" transform="translate(184.750781 521.373594)scale(0.11 -0.11)">
       <defs>
        <path d="M 4.15625 18.75 
L 13.375 19.53125 
Q 14.40625 12.796875 18.140625 9.390625 
Q 21.875 6 27.15625 6 
Q 33.5 6 37.890625 10.78125 
Q 42.28125 15.578125 42.28125 23.484375 
Q 42.28125 31 38.0625 35.34375 
Q 33.84375 39.703125 27 39.703125 
Q 22.75 39.703125 19.328125 37.765625 
Q 15.921875 35.84375 13.96875 32.765625 
L 5.71875 33.84375 
L 12.640625 70.609375 
L 48.25 70.609375 
L 48.25 62.203125 
L 19.671875 62.203125 
L 15.828125 42.96875 
Q 22.265625 47.46875 29.34375 47.46875 
Q 38.71875 47.46875 45.15625 40.96875 
Q 51.609375 34.46875 51.609375 24.265625 
Q 51.609375 14.546875 45.953125 7.46875 
Q 39.0625 -1.21875 27.15625 -1.21875 
Q 17.390625 -1.21875 11.203125 4.25 
Q 5.03125 9.71875 4.15625 18.75 
z
" id="ArialMT-53"/>
       </defs>
       <use xlink:href="#ArialMT-53"/>
      </g>
     </g>
    </g>
    <g id="xtick_3">
     <g id="line2d_3">
      <path clip-path="url(#padb5f6a30a)" d="M 267.618594 504 
L 267.618594 69.12 
" style="fill:none;stroke:#cccccc;stroke-linecap:round;"/>
     </g>
     <g id="text_3">
      <!-- 10 -->
      <g style="fill:#262626;" transform="translate(261.501562 521.373594)scale(0.11 -0.11)">
       <defs>
        <path d="M 37.25 0 
L 28.46875 0 
L 28.46875 56 
Q 25.296875 52.984375 20.140625 49.953125 
Q 14.984375 46.921875 10.890625 45.40625 
L 10.890625 53.90625 
Q 18.265625 57.375 23.78125 62.296875 
Q 29.296875 67.234375 31.59375 71.875 
L 37.25 71.875 
z
" id="ArialMT-49"/>
       </defs>
       <use xlink:href="#ArialMT-49"/>
       <use x="55.615234" xlink:href="#ArialMT-48"/>
      </g>
     </g>
    </g>
    <g id="xtick_4">
     <g id="line2d_4">
      <path clip-path="url(#padb5f6a30a)" d="M 347.42789 504 
L 347.42789 69.12 
" style="fill:none;stroke:#cccccc;stroke-linecap:round;"/>
     </g>
     <g id="text_4">
      <!-- 15 -->
      <g style="fill:#262626;" transform="translate(341.310859 521.373594)scale(0.11 -0.11)">
       <use xlink:href="#ArialMT-49"/>
       <use x="55.615234" xlink:href="#ArialMT-53"/>
      </g>
     </g>
    </g>
    <g id="xtick_5">
     <g id="line2d_5">
      <path clip-path="url(#padb5f6a30a)" d="M 427.237187 504 
L 427.237187 69.12 
" style="fill:none;stroke:#cccccc;stroke-linecap:round;"/>
     </g>
     <g id="text_5">
      <!-- 20 -->
      <g style="fill:#262626;" transform="translate(421.120156 521.373594)scale(0.11 -0.11)">
       <defs>
        <path d="M 50.34375 8.453125 
L 50.34375 0 
L 3.03125 0 
Q 2.9375 3.171875 4.046875 6.109375 
Q 5.859375 10.9375 9.828125 15.625 
Q 13.8125 20.3125 21.34375 26.46875 
Q 33.015625 36.03125 37.109375 41.625 
Q 41.21875 47.21875 41.21875 52.203125 
Q 41.21875 57.421875 37.46875 61 
Q 33.734375 64.59375 27.734375 64.59375 
Q 21.390625 64.59375 17.578125 60.78125 
Q 13.765625 56.984375 13.71875 50.25 
L 4.6875 51.171875 
Q 5.609375 61.28125 11.65625 66.578125 
Q 17.71875 71.875 27.9375 71.875 
Q 38.234375 71.875 44.234375 66.15625 
Q 50.25 60.453125 50.25 52 
Q 50.25 47.703125 48.484375 43.546875 
Q 46.734375 39.40625 42.65625 34.8125 
Q 38.578125 30.21875 29.109375 22.21875 
Q 21.1875 15.578125 18.9375 13.203125 
Q 16.703125 10.84375 15.234375 8.453125 
z
" id="ArialMT-50"/>
       </defs>
       <use xlink:href="#ArialMT-50"/>
       <use x="55.615234" xlink:href="#ArialMT-48"/>
      </g>
     </g>
    </g>
    <g id="xtick_6">
     <g id="line2d_6">
      <path clip-path="url(#padb5f6a30a)" d="M 507.046484 504 
L 507.046484 69.12 
" style="fill:none;stroke:#cccccc;stroke-linecap:round;"/>
     </g>
     <g id="text_6">
      <!-- 25 -->
      <g style="fill:#262626;" transform="translate(500.929453 521.373594)scale(0.11 -0.11)">
       <use xlink:href="#ArialMT-50"/>
       <use x="55.615234" xlink:href="#ArialMT-53"/>
      </g>
     </g>
    </g>
    <g id="xtick_7">
     <g id="line2d_7">
      <path clip-path="url(#padb5f6a30a)" d="M 586.855781 504 
L 586.855781 69.12 
" style="fill:none;stroke:#cccccc;stroke-linecap:round;"/>
     </g>
     <g id="text_7">
      <!-- 30 -->
      <g style="fill:#262626;" transform="translate(580.738749 521.373594)scale(0.11 -0.11)">
       <defs>
        <path d="M 4.203125 18.890625 
L 12.984375 20.0625 
Q 14.5 12.59375 18.140625 9.296875 
Q 21.78125 6 27 6 
Q 33.203125 6 37.46875 10.296875 
Q 41.75 14.59375 41.75 20.953125 
Q 41.75 27 37.796875 30.921875 
Q 33.84375 34.859375 27.734375 34.859375 
Q 25.25 34.859375 21.53125 33.890625 
L 22.515625 41.609375 
Q 23.390625 41.5 23.921875 41.5 
Q 29.546875 41.5 34.03125 44.421875 
Q 38.53125 47.359375 38.53125 53.46875 
Q 38.53125 58.296875 35.25 61.46875 
Q 31.984375 64.65625 26.8125 64.65625 
Q 21.6875 64.65625 18.265625 61.421875 
Q 14.84375 58.203125 13.875 51.765625 
L 5.078125 53.328125 
Q 6.6875 62.15625 12.390625 67.015625 
Q 18.109375 71.875 26.609375 71.875 
Q 32.46875 71.875 37.390625 69.359375 
Q 42.328125 66.84375 44.9375 62.5 
Q 47.5625 58.15625 47.5625 53.265625 
Q 47.5625 48.640625 45.0625 44.828125 
Q 42.578125 41.015625 37.703125 38.765625 
Q 44.046875 37.3125 47.5625 32.6875 
Q 51.078125 28.078125 51.078125 21.140625 
Q 51.078125 11.765625 44.234375 5.25 
Q 37.40625 -1.265625 26.953125 -1.265625 
Q 17.53125 -1.265625 11.296875 4.34375 
Q 5.078125 9.96875 4.203125 18.890625 
z
" id="ArialMT-51"/>
       </defs>
       <use xlink:href="#ArialMT-51"/>
       <use x="55.615234" xlink:href="#ArialMT-48"/>
      </g>
     </g>
    </g>
    <g id="xtick_8">
     <g id="line2d_8">
      <path clip-path="url(#padb5f6a30a)" d="M 666.665077 504 
L 666.665077 69.12 
" style="fill:none;stroke:#cccccc;stroke-linecap:round;"/>
     </g>
     <g id="text_8">
      <!-- 35 -->
      <g style="fill:#262626;" transform="translate(660.548046 521.373594)scale(0.11 -0.11)">
       <use xlink:href="#ArialMT-51"/>
       <use x="55.615234" xlink:href="#ArialMT-53"/>
      </g>
     </g>
    </g>
    <g id="xtick_9">
     <g id="line2d_9">
      <path clip-path="url(#padb5f6a30a)" d="M 746.474374 504 
L 746.474374 69.12 
" style="fill:none;stroke:#cccccc;stroke-linecap:round;"/>
     </g>
     <g id="text_9">
      <!-- 40 -->
      <g style="fill:#262626;" transform="translate(740.357343 521.373594)scale(0.11 -0.11)">
       <defs>
        <path d="M 32.328125 0 
L 32.328125 17.140625 
L 1.265625 17.140625 
L 1.265625 25.203125 
L 33.9375 71.578125 
L 41.109375 71.578125 
L 41.109375 25.203125 
L 50.78125 25.203125 
L 50.78125 17.140625 
L 41.109375 17.140625 
L 41.109375 0 
z
M 32.328125 25.203125 
L 32.328125 57.46875 
L 9.90625 25.203125 
z
" id="ArialMT-52"/>
       </defs>
       <use xlink:href="#ArialMT-52"/>
       <use x="55.615234" xlink:href="#ArialMT-48"/>
      </g>
     </g>
    </g>
    <g id="text_10">
     <!-- Number of Features -->
     <g style="fill:#262626;" transform="translate(371.665 543.012344)scale(0.16 -0.16)">
      <defs>
       <path d="M 7.625 0 
L 7.625 71.578125 
L 17.328125 71.578125 
L 54.9375 15.375 
L 54.9375 71.578125 
L 64.015625 71.578125 
L 64.015625 0 
L 54.296875 0 
L 16.703125 56.25 
L 16.703125 0 
z
" id="ArialMT-78"/>
       <path d="M 40.578125 0 
L 40.578125 7.625 
Q 34.515625 -1.171875 24.125 -1.171875 
Q 19.53125 -1.171875 15.546875 0.578125 
Q 11.578125 2.34375 9.640625 5 
Q 7.71875 7.671875 6.9375 11.53125 
Q 6.390625 14.109375 6.390625 19.734375 
L 6.390625 51.859375 
L 15.1875 51.859375 
L 15.1875 23.09375 
Q 15.1875 16.21875 15.71875 13.8125 
Q 16.546875 10.359375 19.234375 8.375 
Q 21.921875 6.390625 25.875 6.390625 
Q 29.828125 6.390625 33.296875 8.421875 
Q 36.765625 10.453125 38.203125 13.9375 
Q 39.65625 17.4375 39.65625 24.078125 
L 39.65625 51.859375 
L 48.4375 51.859375 
L 48.4375 0 
z
" id="ArialMT-117"/>
       <path d="M 6.59375 0 
L 6.59375 51.859375 
L 14.453125 51.859375 
L 14.453125 44.578125 
Q 16.890625 48.390625 20.9375 50.703125 
Q 25 53.03125 30.171875 53.03125 
Q 35.9375 53.03125 39.625 50.640625 
Q 43.3125 48.25 44.828125 43.953125 
Q 50.984375 53.03125 60.84375 53.03125 
Q 68.5625 53.03125 72.703125 48.75 
Q 76.859375 44.484375 76.859375 35.59375 
L 76.859375 0 
L 68.109375 0 
L 68.109375 32.671875 
Q 68.109375 37.9375 67.25 40.25 
Q 66.40625 42.578125 64.15625 43.984375 
Q 61.921875 45.40625 58.890625 45.40625 
Q 53.421875 45.40625 49.796875 41.765625 
Q 46.1875 38.140625 46.1875 30.125 
L 46.1875 0 
L 37.40625 0 
L 37.40625 33.6875 
Q 37.40625 39.546875 35.25 42.46875 
Q 33.109375 45.40625 28.21875 45.40625 
Q 24.515625 45.40625 21.359375 43.453125 
Q 18.21875 41.5 16.796875 37.734375 
Q 15.375 33.984375 15.375 26.90625 
L 15.375 0 
z
" id="ArialMT-109"/>
       <path d="M 14.703125 0 
L 6.546875 0 
L 6.546875 71.578125 
L 15.328125 71.578125 
L 15.328125 46.046875 
Q 20.90625 53.03125 29.546875 53.03125 
Q 34.328125 53.03125 38.59375 51.09375 
Q 42.875 49.171875 45.625 45.671875 
Q 48.390625 42.1875 49.953125 37.25 
Q 51.515625 32.328125 51.515625 26.703125 
Q 51.515625 13.375 44.921875 6.09375 
Q 38.328125 -1.171875 29.109375 -1.171875 
Q 19.921875 -1.171875 14.703125 6.5 
z
M 14.59375 26.3125 
Q 14.59375 17 17.140625 12.84375 
Q 21.296875 6.0625 28.375 6.0625 
Q 34.125 6.0625 38.328125 11.0625 
Q 42.53125 16.0625 42.53125 25.984375 
Q 42.53125 36.140625 38.5 40.96875 
Q 34.46875 45.796875 28.765625 45.796875 
Q 23 45.796875 18.796875 40.796875 
Q 14.59375 35.796875 14.59375 26.3125 
z
" id="ArialMT-98"/>
       <path d="M 42.09375 16.703125 
L 51.171875 15.578125 
Q 49.03125 7.625 43.21875 3.21875 
Q 37.40625 -1.171875 28.375 -1.171875 
Q 17 -1.171875 10.328125 5.828125 
Q 3.65625 12.84375 3.65625 25.484375 
Q 3.65625 38.578125 10.390625 45.796875 
Q 17.140625 53.03125 27.875 53.03125 
Q 38.28125 53.03125 44.875 45.953125 
Q 51.46875 38.875 51.46875 26.03125 
Q 51.46875 25.25 51.421875 23.6875 
L 12.75 23.6875 
Q 13.234375 15.140625 17.578125 10.59375 
Q 21.921875 6.0625 28.421875 6.0625 
Q 33.25 6.0625 36.671875 8.59375 
Q 40.09375 11.140625 42.09375 16.703125 
z
M 13.234375 30.90625 
L 42.1875 30.90625 
Q 41.609375 37.453125 38.875 40.71875 
Q 34.671875 45.796875 27.984375 45.796875 
Q 21.921875 45.796875 17.796875 41.75 
Q 13.671875 37.703125 13.234375 30.90625 
z
" id="ArialMT-101"/>
       <path d="M 6.5 0 
L 6.5 51.859375 
L 14.40625 51.859375 
L 14.40625 44 
Q 17.4375 49.515625 20 51.265625 
Q 22.5625 53.03125 25.640625 53.03125 
Q 30.078125 53.03125 34.671875 50.203125 
L 31.640625 42.046875 
Q 28.421875 43.953125 25.203125 43.953125 
Q 22.3125 43.953125 20.015625 42.21875 
Q 17.71875 40.484375 16.75 37.40625 
Q 15.28125 32.71875 15.28125 27.15625 
L 15.28125 0 
z
" id="ArialMT-114"/>
       <path id="ArialMT-32"/>
       <path d="M 3.328125 25.921875 
Q 3.328125 40.328125 11.328125 47.265625 
Q 18.015625 53.03125 27.640625 53.03125 
Q 38.328125 53.03125 45.109375 46.015625 
Q 51.90625 39.015625 51.90625 26.65625 
Q 51.90625 16.65625 48.90625 10.90625 
Q 45.90625 5.171875 40.15625 2 
Q 34.421875 -1.171875 27.640625 -1.171875 
Q 16.75 -1.171875 10.03125 5.8125 
Q 3.328125 12.796875 3.328125 25.921875 
z
M 12.359375 25.921875 
Q 12.359375 15.96875 16.703125 11.015625 
Q 21.046875 6.0625 27.640625 6.0625 
Q 34.1875 6.0625 38.53125 11.03125 
Q 42.875 16.015625 42.875 26.21875 
Q 42.875 35.84375 38.5 40.796875 
Q 34.125 45.75 27.640625 45.75 
Q 21.046875 45.75 16.703125 40.8125 
Q 12.359375 35.890625 12.359375 25.921875 
z
" id="ArialMT-111"/>
       <path d="M 8.6875 0 
L 8.6875 45.015625 
L 0.921875 45.015625 
L 0.921875 51.859375 
L 8.6875 51.859375 
L 8.6875 57.375 
Q 8.6875 62.59375 9.625 65.140625 
Q 10.890625 68.5625 14.078125 70.671875 
Q 17.28125 72.796875 23.046875 72.796875 
Q 26.765625 72.796875 31.25 71.921875 
L 29.9375 64.265625 
Q 27.203125 64.75 24.75 64.75 
Q 20.75 64.75 19.09375 63.03125 
Q 17.4375 61.328125 17.4375 56.640625 
L 17.4375 51.859375 
L 27.546875 51.859375 
L 27.546875 45.015625 
L 17.4375 45.015625 
L 17.4375 0 
z
" id="ArialMT-102"/>
       <path d="M 8.203125 0 
L 8.203125 71.578125 
L 56.5 71.578125 
L 56.5 63.140625 
L 17.671875 63.140625 
L 17.671875 40.96875 
L 51.265625 40.96875 
L 51.265625 32.515625 
L 17.671875 32.515625 
L 17.671875 0 
z
" id="ArialMT-70"/>
       <path d="M 40.4375 6.390625 
Q 35.546875 2.25 31.03125 0.53125 
Q 26.515625 -1.171875 21.34375 -1.171875 
Q 12.796875 -1.171875 8.203125 3 
Q 3.609375 7.171875 3.609375 13.671875 
Q 3.609375 17.484375 5.34375 20.625 
Q 7.078125 23.78125 9.890625 25.6875 
Q 12.703125 27.59375 16.21875 28.5625 
Q 18.796875 29.25 24.03125 29.890625 
Q 34.671875 31.15625 39.703125 32.90625 
Q 39.75 34.71875 39.75 35.203125 
Q 39.75 40.578125 37.25 42.78125 
Q 33.890625 45.75 27.25 45.75 
Q 21.046875 45.75 18.09375 43.578125 
Q 15.140625 41.40625 13.71875 35.890625 
L 5.125 37.0625 
Q 6.296875 42.578125 8.984375 45.96875 
Q 11.671875 49.359375 16.75 51.1875 
Q 21.828125 53.03125 28.515625 53.03125 
Q 35.15625 53.03125 39.296875 51.46875 
Q 43.453125 49.90625 45.40625 47.53125 
Q 47.359375 45.171875 48.140625 41.546875 
Q 48.578125 39.3125 48.578125 33.453125 
L 48.578125 21.734375 
Q 48.578125 9.46875 49.140625 6.21875 
Q 49.703125 2.984375 51.375 0 
L 42.1875 0 
Q 40.828125 2.734375 40.4375 6.390625 
z
M 39.703125 26.03125 
Q 34.90625 24.078125 25.34375 22.703125 
Q 19.921875 21.921875 17.671875 20.9375 
Q 15.4375 19.96875 14.203125 18.09375 
Q 12.984375 16.21875 12.984375 13.921875 
Q 12.984375 10.40625 15.640625 8.0625 
Q 18.3125 5.71875 23.4375 5.71875 
Q 28.515625 5.71875 32.46875 7.9375 
Q 36.421875 10.15625 38.28125 14.015625 
Q 39.703125 17 39.703125 22.796875 
z
" id="ArialMT-97"/>
       <path d="M 25.78125 7.859375 
L 27.046875 0.09375 
Q 23.34375 -0.6875 20.40625 -0.6875 
Q 15.625 -0.6875 12.984375 0.828125 
Q 10.359375 2.34375 9.28125 4.8125 
Q 8.203125 7.28125 8.203125 15.1875 
L 8.203125 45.015625 
L 1.765625 45.015625 
L 1.765625 51.859375 
L 8.203125 51.859375 
L 8.203125 64.703125 
L 16.9375 69.96875 
L 16.9375 51.859375 
L 25.78125 51.859375 
L 25.78125 45.015625 
L 16.9375 45.015625 
L 16.9375 14.703125 
Q 16.9375 10.9375 17.40625 9.859375 
Q 17.875 8.796875 18.921875 8.15625 
Q 19.96875 7.515625 21.921875 7.515625 
Q 23.390625 7.515625 25.78125 7.859375 
z
" id="ArialMT-116"/>
       <path d="M 3.078125 15.484375 
L 11.765625 16.84375 
Q 12.5 11.625 15.84375 8.84375 
Q 19.1875 6.0625 25.203125 6.0625 
Q 31.25 6.0625 34.171875 8.515625 
Q 37.109375 10.984375 37.109375 14.3125 
Q 37.109375 17.28125 34.515625 19 
Q 32.71875 20.171875 25.53125 21.96875 
Q 15.875 24.421875 12.140625 26.203125 
Q 8.40625 27.984375 6.46875 31.125 
Q 4.546875 34.28125 4.546875 38.09375 
Q 4.546875 41.546875 6.125 44.5 
Q 7.71875 47.46875 10.453125 49.421875 
Q 12.5 50.921875 16.03125 51.96875 
Q 19.578125 53.03125 23.640625 53.03125 
Q 29.734375 53.03125 34.34375 51.265625 
Q 38.96875 49.515625 41.15625 46.5 
Q 43.359375 43.5 44.1875 38.484375 
L 35.59375 37.3125 
Q 35.015625 41.3125 32.203125 43.546875 
Q 29.390625 45.796875 24.265625 45.796875 
Q 18.21875 45.796875 15.625 43.796875 
Q 13.03125 41.796875 13.03125 39.109375 
Q 13.03125 37.40625 14.109375 36.03125 
Q 15.1875 34.625 17.484375 33.6875 
Q 18.796875 33.203125 25.25 31.453125 
Q 34.578125 28.953125 38.25 27.359375 
Q 41.9375 25.78125 44.03125 22.75 
Q 46.140625 19.734375 46.140625 15.234375 
Q 46.140625 10.84375 43.578125 6.953125 
Q 41.015625 3.078125 36.171875 0.953125 
Q 31.34375 -1.171875 25.25 -1.171875 
Q 15.140625 -1.171875 9.84375 3.03125 
Q 4.546875 7.234375 3.078125 15.484375 
z
" id="ArialMT-115"/>
      </defs>
      <use xlink:href="#ArialMT-78"/>
      <use x="72.216797" xlink:href="#ArialMT-117"/>
      <use x="127.832031" xlink:href="#ArialMT-109"/>
      <use x="211.132812" xlink:href="#ArialMT-98"/>
      <use x="266.748047" xlink:href="#ArialMT-101"/>
      <use x="322.363281" xlink:href="#ArialMT-114"/>
      <use x="355.664062" xlink:href="#ArialMT-32"/>
      <use x="383.447266" xlink:href="#ArialMT-111"/>
      <use x="439.0625" xlink:href="#ArialMT-102"/>
      <use x="466.845703" xlink:href="#ArialMT-32"/>
      <use x="494.628906" xlink:href="#ArialMT-70"/>
      <use x="555.712891" xlink:href="#ArialMT-101"/>
      <use x="611.328125" xlink:href="#ArialMT-97"/>
      <use x="666.943359" xlink:href="#ArialMT-116"/>
      <use x="694.726562" xlink:href="#ArialMT-117"/>
      <use x="750.341797" xlink:href="#ArialMT-114"/>
      <use x="783.642578" xlink:href="#ArialMT-101"/>
      <use x="839.257812" xlink:href="#ArialMT-115"/>
     </g>
    </g>
   </g>
   <g id="matplotlib.axis_2">
    <g id="ytick_1">
     <g id="line2d_10">
      <path clip-path="url(#padb5f6a30a)" d="M 108 504 
L 777.6 504 
" style="fill:none;stroke:#cccccc;stroke-linecap:round;"/>
     </g>
     <g id="text_11">
      <!-- 0 -->
      <g style="fill:#262626;" transform="translate(92.382969 507.936797)scale(0.11 -0.11)">
       <use xlink:href="#ArialMT-48"/>
      </g>
     </g>
    </g>
    <g id="ytick_2">
     <g id="line2d_11">
      <path clip-path="url(#padb5f6a30a)" d="M 108 442.284994 
L 777.6 442.284994 
" style="fill:none;stroke:#cccccc;stroke-linecap:round;"/>
     </g>
     <g id="text_12">
      <!-- 2 -->
      <g style="fill:#262626;" transform="translate(92.382969 446.221791)scale(0.11 -0.11)">
       <use xlink:href="#ArialMT-50"/>
      </g>
     </g>
    </g>
    <g id="ytick_3">
     <g id="line2d_12">
      <path clip-path="url(#padb5f6a30a)" d="M 108 380.569989 
L 777.6 380.569989 
" style="fill:none;stroke:#cccccc;stroke-linecap:round;"/>
     </g>
     <g id="text_13">
      <!-- 4 -->
      <g style="fill:#262626;" transform="translate(92.382969 384.506786)scale(0.11 -0.11)">
       <use xlink:href="#ArialMT-52"/>
      </g>
     </g>
    </g>
    <g id="ytick_4">
     <g id="line2d_13">
      <path clip-path="url(#padb5f6a30a)" d="M 108 318.854983 
L 777.6 318.854983 
" style="fill:none;stroke:#cccccc;stroke-linecap:round;"/>
     </g>
     <g id="text_14">
      <!-- 6 -->
      <g style="fill:#262626;" transform="translate(92.382969 322.79178)scale(0.11 -0.11)">
       <defs>
        <path d="M 49.75 54.046875 
L 41.015625 53.375 
Q 39.84375 58.546875 37.703125 60.890625 
Q 34.125 64.65625 28.90625 64.65625 
Q 24.703125 64.65625 21.53125 62.3125 
Q 17.390625 59.28125 14.984375 53.46875 
Q 12.59375 47.65625 12.5 36.921875 
Q 15.671875 41.75 20.265625 44.09375 
Q 24.859375 46.4375 29.890625 46.4375 
Q 38.671875 46.4375 44.84375 39.96875 
Q 51.03125 33.5 51.03125 23.25 
Q 51.03125 16.5 48.125 10.71875 
Q 45.21875 4.9375 40.140625 1.859375 
Q 35.0625 -1.21875 28.609375 -1.21875 
Q 17.625 -1.21875 10.6875 6.859375 
Q 3.765625 14.9375 3.765625 33.5 
Q 3.765625 54.25 11.421875 63.671875 
Q 18.109375 71.875 29.4375 71.875 
Q 37.890625 71.875 43.28125 67.140625 
Q 48.6875 62.40625 49.75 54.046875 
z
M 13.875 23.1875 
Q 13.875 18.65625 15.796875 14.5 
Q 17.71875 10.359375 21.1875 8.171875 
Q 24.65625 6 28.46875 6 
Q 34.03125 6 38.03125 10.484375 
Q 42.046875 14.984375 42.046875 22.703125 
Q 42.046875 30.125 38.078125 34.390625 
Q 34.125 38.671875 28.125 38.671875 
Q 22.171875 38.671875 18.015625 34.390625 
Q 13.875 30.125 13.875 23.1875 
z
" id="ArialMT-54"/>
       </defs>
       <use xlink:href="#ArialMT-54"/>
      </g>
     </g>
    </g>
    <g id="ytick_5">
     <g id="line2d_14">
      <path clip-path="url(#padb5f6a30a)" d="M 108 257.139978 
L 777.6 257.139978 
" style="fill:none;stroke:#cccccc;stroke-linecap:round;"/>
     </g>
     <g id="text_15">
      <!-- 8 -->
      <g style="fill:#262626;" transform="translate(92.382969 261.076775)scale(0.11 -0.11)">
       <defs>
        <path d="M 17.671875 38.8125 
Q 12.203125 40.828125 9.5625 44.53125 
Q 6.9375 48.25 6.9375 53.421875 
Q 6.9375 61.234375 12.546875 66.546875 
Q 18.171875 71.875 27.484375 71.875 
Q 36.859375 71.875 42.578125 66.421875 
Q 48.296875 60.984375 48.296875 53.171875 
Q 48.296875 48.1875 45.671875 44.5 
Q 43.0625 40.828125 37.75 38.8125 
Q 44.34375 36.671875 47.78125 31.875 
Q 51.21875 27.09375 51.21875 20.453125 
Q 51.21875 11.28125 44.71875 5.03125 
Q 38.234375 -1.21875 27.640625 -1.21875 
Q 17.046875 -1.21875 10.546875 5.046875 
Q 4.046875 11.328125 4.046875 20.703125 
Q 4.046875 27.6875 7.59375 32.390625 
Q 11.140625 37.109375 17.671875 38.8125 
z
M 15.921875 53.71875 
Q 15.921875 48.640625 19.1875 45.40625 
Q 22.46875 42.1875 27.6875 42.1875 
Q 32.765625 42.1875 36.015625 45.375 
Q 39.265625 48.578125 39.265625 53.21875 
Q 39.265625 58.0625 35.90625 61.359375 
Q 32.5625 64.65625 27.59375 64.65625 
Q 22.5625 64.65625 19.234375 61.421875 
Q 15.921875 58.203125 15.921875 53.71875 
z
M 13.09375 20.65625 
Q 13.09375 16.890625 14.875 13.375 
Q 16.65625 9.859375 20.171875 7.921875 
Q 23.6875 6 27.734375 6 
Q 34.03125 6 38.125 10.046875 
Q 42.234375 14.109375 42.234375 20.359375 
Q 42.234375 26.703125 38.015625 30.859375 
Q 33.796875 35.015625 27.4375 35.015625 
Q 21.234375 35.015625 17.15625 30.90625 
Q 13.09375 26.8125 13.09375 20.65625 
z
" id="ArialMT-56"/>
       </defs>
       <use xlink:href="#ArialMT-56"/>
      </g>
     </g>
    </g>
    <g id="ytick_6">
     <g id="line2d_15">
      <path clip-path="url(#padb5f6a30a)" d="M 108 195.424972 
L 777.6 195.424972 
" style="fill:none;stroke:#cccccc;stroke-linecap:round;"/>
     </g>
     <g id="text_16">
      <!-- 10 -->
      <g style="fill:#262626;" transform="translate(86.265938 199.361769)scale(0.11 -0.11)">
       <use xlink:href="#ArialMT-49"/>
       <use x="55.615234" xlink:href="#ArialMT-48"/>
      </g>
     </g>
    </g>
    <g id="ytick_7">
     <g id="line2d_16">
      <path clip-path="url(#padb5f6a30a)" d="M 108 133.709967 
L 777.6 133.709967 
" style="fill:none;stroke:#cccccc;stroke-linecap:round;"/>
     </g>
     <g id="text_17">
      <!-- 12 -->
      <g style="fill:#262626;" transform="translate(86.265938 137.646764)scale(0.11 -0.11)">
       <use xlink:href="#ArialMT-49"/>
       <use x="55.615234" xlink:href="#ArialMT-50"/>
      </g>
     </g>
    </g>
    <g id="ytick_8">
     <g id="line2d_17">
      <path clip-path="url(#padb5f6a30a)" d="M 108 71.994961 
L 777.6 71.994961 
" style="fill:none;stroke:#cccccc;stroke-linecap:round;"/>
     </g>
     <g id="text_18">
      <!-- 14 -->
      <g style="fill:#262626;" transform="translate(86.265938 75.931758)scale(0.11 -0.11)">
       <use xlink:href="#ArialMT-49"/>
       <use x="55.615234" xlink:href="#ArialMT-52"/>
      </g>
     </g>
    </g>
    <g id="text_19">
     <!-- Runtime (seconds) -->
     <g style="fill:#262626;" transform="translate(74.898438 353.6925)rotate(-90)scale(0.16 -0.16)">
      <defs>
       <path d="M 7.859375 0 
L 7.859375 71.578125 
L 39.59375 71.578125 
Q 49.171875 71.578125 54.140625 69.640625 
Q 59.125 67.71875 62.109375 62.828125 
Q 65.09375 57.953125 65.09375 52.046875 
Q 65.09375 44.4375 60.15625 39.203125 
Q 55.21875 33.984375 44.921875 32.5625 
Q 48.6875 30.765625 50.640625 29 
Q 54.78125 25.203125 58.5 19.484375 
L 70.953125 0 
L 59.03125 0 
L 49.5625 14.890625 
Q 45.40625 21.34375 42.71875 24.75 
Q 40.046875 28.171875 37.921875 29.53125 
Q 35.796875 30.90625 33.59375 31.453125 
Q 31.984375 31.78125 28.328125 31.78125 
L 17.328125 31.78125 
L 17.328125 0 
z
M 17.328125 39.984375 
L 37.703125 39.984375 
Q 44.1875 39.984375 47.84375 41.328125 
Q 51.515625 42.671875 53.421875 45.625 
Q 55.328125 48.578125 55.328125 52.046875 
Q 55.328125 57.125 51.640625 60.390625 
Q 47.953125 63.671875 39.984375 63.671875 
L 17.328125 63.671875 
z
" id="ArialMT-82"/>
       <path d="M 6.59375 0 
L 6.59375 51.859375 
L 14.5 51.859375 
L 14.5 44.484375 
Q 20.21875 53.03125 31 53.03125 
Q 35.6875 53.03125 39.625 51.34375 
Q 43.5625 49.65625 45.515625 46.921875 
Q 47.46875 44.1875 48.25 40.4375 
Q 48.734375 37.984375 48.734375 31.890625 
L 48.734375 0 
L 39.9375 0 
L 39.9375 31.546875 
Q 39.9375 36.921875 38.90625 39.578125 
Q 37.890625 42.234375 35.28125 43.8125 
Q 32.671875 45.40625 29.15625 45.40625 
Q 23.53125 45.40625 19.453125 41.84375 
Q 15.375 38.28125 15.375 28.328125 
L 15.375 0 
z
" id="ArialMT-110"/>
       <path d="M 6.640625 61.46875 
L 6.640625 71.578125 
L 15.4375 71.578125 
L 15.4375 61.46875 
z
M 6.640625 0 
L 6.640625 51.859375 
L 15.4375 51.859375 
L 15.4375 0 
z
" id="ArialMT-105"/>
       <path d="M 23.390625 -21.046875 
Q 16.109375 -11.859375 11.078125 0.4375 
Q 6.0625 12.75 6.0625 25.921875 
Q 6.0625 37.546875 9.8125 48.1875 
Q 14.203125 60.546875 23.390625 72.796875 
L 29.6875 72.796875 
Q 23.78125 62.640625 21.875 58.296875 
Q 18.890625 51.5625 17.1875 44.234375 
Q 15.09375 35.109375 15.09375 25.875 
Q 15.09375 2.390625 29.6875 -21.046875 
z
" id="ArialMT-40"/>
       <path d="M 40.4375 19 
L 49.078125 17.875 
Q 47.65625 8.9375 41.8125 3.875 
Q 35.984375 -1.171875 27.484375 -1.171875 
Q 16.84375 -1.171875 10.375 5.78125 
Q 3.90625 12.75 3.90625 25.734375 
Q 3.90625 34.125 6.6875 40.421875 
Q 9.46875 46.734375 15.15625 49.875 
Q 20.84375 53.03125 27.546875 53.03125 
Q 35.984375 53.03125 41.359375 48.75 
Q 46.734375 44.484375 48.25 36.625 
L 39.703125 35.296875 
Q 38.484375 40.53125 35.375 43.15625 
Q 32.28125 45.796875 27.875 45.796875 
Q 21.234375 45.796875 17.078125 41.03125 
Q 12.9375 36.28125 12.9375 25.984375 
Q 12.9375 15.53125 16.9375 10.796875 
Q 20.953125 6.0625 27.390625 6.0625 
Q 32.5625 6.0625 36.03125 9.234375 
Q 39.5 12.40625 40.4375 19 
z
" id="ArialMT-99"/>
       <path d="M 40.234375 0 
L 40.234375 6.546875 
Q 35.296875 -1.171875 25.734375 -1.171875 
Q 19.53125 -1.171875 14.328125 2.25 
Q 9.125 5.671875 6.265625 11.796875 
Q 3.421875 17.921875 3.421875 25.875 
Q 3.421875 33.640625 6 39.96875 
Q 8.59375 46.296875 13.765625 49.65625 
Q 18.953125 53.03125 25.34375 53.03125 
Q 30.03125 53.03125 33.6875 51.046875 
Q 37.359375 49.078125 39.65625 45.90625 
L 39.65625 71.578125 
L 48.390625 71.578125 
L 48.390625 0 
z
M 12.453125 25.875 
Q 12.453125 15.921875 16.640625 10.984375 
Q 20.84375 6.0625 26.5625 6.0625 
Q 32.328125 6.0625 36.34375 10.765625 
Q 40.375 15.484375 40.375 25.140625 
Q 40.375 35.796875 36.265625 40.765625 
Q 32.171875 45.75 26.171875 45.75 
Q 20.3125 45.75 16.375 40.96875 
Q 12.453125 36.1875 12.453125 25.875 
z
" id="ArialMT-100"/>
       <path d="M 12.359375 -21.046875 
L 6.0625 -21.046875 
Q 20.65625 2.390625 20.65625 25.875 
Q 20.65625 35.0625 18.5625 44.09375 
Q 16.890625 51.421875 13.921875 58.15625 
Q 12.015625 62.546875 6.0625 72.796875 
L 12.359375 72.796875 
Q 21.53125 60.546875 25.921875 48.1875 
Q 29.6875 37.546875 29.6875 25.921875 
Q 29.6875 12.75 24.625 0.4375 
Q 19.578125 -11.859375 12.359375 -21.046875 
z
" id="ArialMT-41"/>
      </defs>
      <use xlink:href="#ArialMT-82"/>
      <use x="72.216797" xlink:href="#ArialMT-117"/>
      <use x="127.832031" xlink:href="#ArialMT-110"/>
      <use x="183.447266" xlink:href="#ArialMT-116"/>
      <use x="211.230469" xlink:href="#ArialMT-105"/>
      <use x="233.447266" xlink:href="#ArialMT-109"/>
      <use x="316.748047" xlink:href="#ArialMT-101"/>
      <use x="372.363281" xlink:href="#ArialMT-32"/>
      <use x="400.146484" xlink:href="#ArialMT-40"/>
      <use x="433.447266" xlink:href="#ArialMT-115"/>
      <use x="483.447266" xlink:href="#ArialMT-101"/>
      <use x="539.0625" xlink:href="#ArialMT-99"/>
      <use x="589.0625" xlink:href="#ArialMT-111"/>
      <use x="644.677734" xlink:href="#ArialMT-110"/>
      <use x="700.292969" xlink:href="#ArialMT-100"/>
      <use x="755.908203" xlink:href="#ArialMT-115"/>
      <use x="805.908203" xlink:href="#ArialMT-41"/>
     </g>
    </g>
   </g>
   <g id="line2d_18">
    <path clip-path="url(#padb5f6a30a)" d="M 123.961859 449.030472 
L 139.923719 450.823323 
L 155.885578 450.743056 
L 171.847437 449.138481 
L 187.809297 446.074295 
L 203.771156 446.126761 
L 219.733015 445.895352 
L 235.694875 446.358226 
L 251.656734 446.006435 
L 267.618594 446.793287 
L 283.580453 446.475446 
L 299.542312 446.219326 
L 315.504172 446.000265 
L 331.466031 445.413983 
L 347.42789 445.85209 
L 363.38975 448.070792 
L 379.351609 449.647578 
L 395.313468 448.410241 
L 411.275328 447.216072 
L 427.237187 447.333274 
L 443.199046 448.73425 
L 459.160906 446.950625 
L 475.122765 448.68482 
L 491.084625 447.302443 
L 507.046484 447.222209 
L 523.008343 447.39196 
L 538.970203 447.614058 
L 554.932062 446.842682 
L 570.893921 448.780543 
L 586.855781 446.799466 
L 602.81764 447.595612 
L 618.779499 447.259241 
L 634.741359 447.811594 
L 650.703218 446.626656 
L 666.665077 446.728477 
L 682.626937 447.864072 
L 698.588796 446.447688 
L 714.550656 446.074334 
L 730.512515 448.188095 
L 746.474374 445.969399 
" style="fill:none;stroke:#4c72b0;stroke-linecap:round;stroke-width:1.5;"/>
    <defs>
     <path d="M -0 3 
L 3 -3 
L -3 -3 
z
" id="m95e933b9a0" style="stroke:#ffffff;stroke-linejoin:miter;stroke-width:0.75;"/>
    </defs>
    <g clip-path="url(#padb5f6a30a)">
     <use style="fill:#4c72b0;stroke:#ffffff;stroke-linejoin:miter;stroke-width:0.75;" x="123.961859" xlink:href="#m95e933b9a0" y="449.030472"/>
     <use style="fill:#4c72b0;stroke:#ffffff;stroke-linejoin:miter;stroke-width:0.75;" x="139.923719" xlink:href="#m95e933b9a0" y="450.823323"/>
     <use style="fill:#4c72b0;stroke:#ffffff;stroke-linejoin:miter;stroke-width:0.75;" x="155.885578" xlink:href="#m95e933b9a0" y="450.743056"/>
     <use style="fill:#4c72b0;stroke:#ffffff;stroke-linejoin:miter;stroke-width:0.75;" x="171.847437" xlink:href="#m95e933b9a0" y="449.138481"/>
     <use style="fill:#4c72b0;stroke:#ffffff;stroke-linejoin:miter;stroke-width:0.75;" x="187.809297" xlink:href="#m95e933b9a0" y="446.074295"/>
     <use style="fill:#4c72b0;stroke:#ffffff;stroke-linejoin:miter;stroke-width:0.75;" x="203.771156" xlink:href="#m95e933b9a0" y="446.126761"/>
     <use style="fill:#4c72b0;stroke:#ffffff;stroke-linejoin:miter;stroke-width:0.75;" x="219.733015" xlink:href="#m95e933b9a0" y="445.895352"/>
     <use style="fill:#4c72b0;stroke:#ffffff;stroke-linejoin:miter;stroke-width:0.75;" x="235.694875" xlink:href="#m95e933b9a0" y="446.358226"/>
     <use style="fill:#4c72b0;stroke:#ffffff;stroke-linejoin:miter;stroke-width:0.75;" x="251.656734" xlink:href="#m95e933b9a0" y="446.006435"/>
     <use style="fill:#4c72b0;stroke:#ffffff;stroke-linejoin:miter;stroke-width:0.75;" x="267.618594" xlink:href="#m95e933b9a0" y="446.793287"/>
     <use style="fill:#4c72b0;stroke:#ffffff;stroke-linejoin:miter;stroke-width:0.75;" x="283.580453" xlink:href="#m95e933b9a0" y="446.475446"/>
     <use style="fill:#4c72b0;stroke:#ffffff;stroke-linejoin:miter;stroke-width:0.75;" x="299.542312" xlink:href="#m95e933b9a0" y="446.219326"/>
     <use style="fill:#4c72b0;stroke:#ffffff;stroke-linejoin:miter;stroke-width:0.75;" x="315.504172" xlink:href="#m95e933b9a0" y="446.000265"/>
     <use style="fill:#4c72b0;stroke:#ffffff;stroke-linejoin:miter;stroke-width:0.75;" x="331.466031" xlink:href="#m95e933b9a0" y="445.413983"/>
     <use style="fill:#4c72b0;stroke:#ffffff;stroke-linejoin:miter;stroke-width:0.75;" x="347.42789" xlink:href="#m95e933b9a0" y="445.85209"/>
     <use style="fill:#4c72b0;stroke:#ffffff;stroke-linejoin:miter;stroke-width:0.75;" x="363.38975" xlink:href="#m95e933b9a0" y="448.070792"/>
     <use style="fill:#4c72b0;stroke:#ffffff;stroke-linejoin:miter;stroke-width:0.75;" x="379.351609" xlink:href="#m95e933b9a0" y="449.647578"/>
     <use style="fill:#4c72b0;stroke:#ffffff;stroke-linejoin:miter;stroke-width:0.75;" x="395.313468" xlink:href="#m95e933b9a0" y="448.410241"/>
     <use style="fill:#4c72b0;stroke:#ffffff;stroke-linejoin:miter;stroke-width:0.75;" x="411.275328" xlink:href="#m95e933b9a0" y="447.216072"/>
     <use style="fill:#4c72b0;stroke:#ffffff;stroke-linejoin:miter;stroke-width:0.75;" x="427.237187" xlink:href="#m95e933b9a0" y="447.333274"/>
     <use style="fill:#4c72b0;stroke:#ffffff;stroke-linejoin:miter;stroke-width:0.75;" x="443.199046" xlink:href="#m95e933b9a0" y="448.73425"/>
     <use style="fill:#4c72b0;stroke:#ffffff;stroke-linejoin:miter;stroke-width:0.75;" x="459.160906" xlink:href="#m95e933b9a0" y="446.950625"/>
     <use style="fill:#4c72b0;stroke:#ffffff;stroke-linejoin:miter;stroke-width:0.75;" x="475.122765" xlink:href="#m95e933b9a0" y="448.68482"/>
     <use style="fill:#4c72b0;stroke:#ffffff;stroke-linejoin:miter;stroke-width:0.75;" x="491.084625" xlink:href="#m95e933b9a0" y="447.302443"/>
     <use style="fill:#4c72b0;stroke:#ffffff;stroke-linejoin:miter;stroke-width:0.75;" x="507.046484" xlink:href="#m95e933b9a0" y="447.222209"/>
     <use style="fill:#4c72b0;stroke:#ffffff;stroke-linejoin:miter;stroke-width:0.75;" x="523.008343" xlink:href="#m95e933b9a0" y="447.39196"/>
     <use style="fill:#4c72b0;stroke:#ffffff;stroke-linejoin:miter;stroke-width:0.75;" x="538.970203" xlink:href="#m95e933b9a0" y="447.614058"/>
     <use style="fill:#4c72b0;stroke:#ffffff;stroke-linejoin:miter;stroke-width:0.75;" x="554.932062" xlink:href="#m95e933b9a0" y="446.842682"/>
     <use style="fill:#4c72b0;stroke:#ffffff;stroke-linejoin:miter;stroke-width:0.75;" x="570.893921" xlink:href="#m95e933b9a0" y="448.780543"/>
     <use style="fill:#4c72b0;stroke:#ffffff;stroke-linejoin:miter;stroke-width:0.75;" x="586.855781" xlink:href="#m95e933b9a0" y="446.799466"/>
     <use style="fill:#4c72b0;stroke:#ffffff;stroke-linejoin:miter;stroke-width:0.75;" x="602.81764" xlink:href="#m95e933b9a0" y="447.595612"/>
     <use style="fill:#4c72b0;stroke:#ffffff;stroke-linejoin:miter;stroke-width:0.75;" x="618.779499" xlink:href="#m95e933b9a0" y="447.259241"/>
     <use style="fill:#4c72b0;stroke:#ffffff;stroke-linejoin:miter;stroke-width:0.75;" x="634.741359" xlink:href="#m95e933b9a0" y="447.811594"/>
     <use style="fill:#4c72b0;stroke:#ffffff;stroke-linejoin:miter;stroke-width:0.75;" x="650.703218" xlink:href="#m95e933b9a0" y="446.626656"/>
     <use style="fill:#4c72b0;stroke:#ffffff;stroke-linejoin:miter;stroke-width:0.75;" x="666.665077" xlink:href="#m95e933b9a0" y="446.728477"/>
     <use style="fill:#4c72b0;stroke:#ffffff;stroke-linejoin:miter;stroke-width:0.75;" x="682.626937" xlink:href="#m95e933b9a0" y="447.864072"/>
     <use style="fill:#4c72b0;stroke:#ffffff;stroke-linejoin:miter;stroke-width:0.75;" x="698.588796" xlink:href="#m95e933b9a0" y="446.447688"/>
     <use style="fill:#4c72b0;stroke:#ffffff;stroke-linejoin:miter;stroke-width:0.75;" x="714.550656" xlink:href="#m95e933b9a0" y="446.074334"/>
     <use style="fill:#4c72b0;stroke:#ffffff;stroke-linejoin:miter;stroke-width:0.75;" x="730.512515" xlink:href="#m95e933b9a0" y="448.188095"/>
     <use style="fill:#4c72b0;stroke:#ffffff;stroke-linejoin:miter;stroke-width:0.75;" x="746.474374" xlink:href="#m95e933b9a0" y="445.969399"/>
    </g>
   </g>
   <g id="line2d_19">
    <path clip-path="url(#padb5f6a30a)" d="M 123.961859 498.85921 
L 139.923719 498.732658 
L 155.885578 497.103416 
L 171.847437 494.363235 
L 187.809297 494.363281 
L 203.771156 494.014569 
L 219.733015 494.159613 
L 235.694875 494.181189 
L 251.656734 493.851038 
L 267.618594 493.749131 
L 283.580453 493.403571 
L 299.542312 493.582546 
L 315.504172 495.409293 
L 331.466031 495.474084 
L 347.42789 495.390807 
L 363.38975 495.313634 
L 379.351609 494.832292 
L 395.313468 494.573121 
L 411.275328 494.625504 
L 427.237187 494.529849 
L 443.199046 494.20895 
L 459.160906 494.295379 
L 475.122765 493.996062 
L 491.084625 493.607208 
L 507.046484 493.415926 
L 523.008343 492.919071 
L 538.970203 492.878991 
L 554.932062 492.811085 
L 570.893921 492.484027 
L 586.855781 492.385255 
L 602.81764 491.110835 
L 618.779499 491.798983 
L 634.741359 491.144798 
L 650.703218 491.030611 
L 666.665077 490.700465 
L 682.626937 490.938002 
L 698.588796 490.922633 
L 714.550656 490.635631 
L 730.512515 490.851623 
L 746.474374 490.845461 
" style="fill:none;stroke:#dd8452;stroke-dasharray:6,2.25;stroke-dashoffset:0;stroke-width:1.5;"/>
    <defs>
     <path d="M 0 3 
C 0.795609 3 1.55874 2.683901 2.12132 2.12132 
C 2.683901 1.55874 3 0.795609 3 0 
C 3 -0.795609 2.683901 -1.55874 2.12132 -2.12132 
C 1.55874 -2.683901 0.795609 -3 0 -3 
C -0.795609 -3 -1.55874 -2.683901 -2.12132 -2.12132 
C -2.683901 -1.55874 -3 -0.795609 -3 0 
C -3 0.795609 -2.683901 1.55874 -2.12132 2.12132 
C -1.55874 2.683901 -0.795609 3 0 3 
z
" id="me30697d90a" style="stroke:#ffffff;stroke-width:0.75;"/>
    </defs>
    <g clip-path="url(#padb5f6a30a)">
     <use style="fill:#dd8452;stroke:#ffffff;stroke-width:0.75;" x="123.961859" xlink:href="#me30697d90a" y="498.85921"/>
     <use style="fill:#dd8452;stroke:#ffffff;stroke-width:0.75;" x="139.923719" xlink:href="#me30697d90a" y="498.732658"/>
     <use style="fill:#dd8452;stroke:#ffffff;stroke-width:0.75;" x="155.885578" xlink:href="#me30697d90a" y="497.103416"/>
     <use style="fill:#dd8452;stroke:#ffffff;stroke-width:0.75;" x="171.847437" xlink:href="#me30697d90a" y="494.363235"/>
     <use style="fill:#dd8452;stroke:#ffffff;stroke-width:0.75;" x="187.809297" xlink:href="#me30697d90a" y="494.363281"/>
     <use style="fill:#dd8452;stroke:#ffffff;stroke-width:0.75;" x="203.771156" xlink:href="#me30697d90a" y="494.014569"/>
     <use style="fill:#dd8452;stroke:#ffffff;stroke-width:0.75;" x="219.733015" xlink:href="#me30697d90a" y="494.159613"/>
     <use style="fill:#dd8452;stroke:#ffffff;stroke-width:0.75;" x="235.694875" xlink:href="#me30697d90a" y="494.181189"/>
     <use style="fill:#dd8452;stroke:#ffffff;stroke-width:0.75;" x="251.656734" xlink:href="#me30697d90a" y="493.851038"/>
     <use style="fill:#dd8452;stroke:#ffffff;stroke-width:0.75;" x="267.618594" xlink:href="#me30697d90a" y="493.749131"/>
     <use style="fill:#dd8452;stroke:#ffffff;stroke-width:0.75;" x="283.580453" xlink:href="#me30697d90a" y="493.403571"/>
     <use style="fill:#dd8452;stroke:#ffffff;stroke-width:0.75;" x="299.542312" xlink:href="#me30697d90a" y="493.582546"/>
     <use style="fill:#dd8452;stroke:#ffffff;stroke-width:0.75;" x="315.504172" xlink:href="#me30697d90a" y="495.409293"/>
     <use style="fill:#dd8452;stroke:#ffffff;stroke-width:0.75;" x="331.466031" xlink:href="#me30697d90a" y="495.474084"/>
     <use style="fill:#dd8452;stroke:#ffffff;stroke-width:0.75;" x="347.42789" xlink:href="#me30697d90a" y="495.390807"/>
     <use style="fill:#dd8452;stroke:#ffffff;stroke-width:0.75;" x="363.38975" xlink:href="#me30697d90a" y="495.313634"/>
     <use style="fill:#dd8452;stroke:#ffffff;stroke-width:0.75;" x="379.351609" xlink:href="#me30697d90a" y="494.832292"/>
     <use style="fill:#dd8452;stroke:#ffffff;stroke-width:0.75;" x="395.313468" xlink:href="#me30697d90a" y="494.573121"/>
     <use style="fill:#dd8452;stroke:#ffffff;stroke-width:0.75;" x="411.275328" xlink:href="#me30697d90a" y="494.625504"/>
     <use style="fill:#dd8452;stroke:#ffffff;stroke-width:0.75;" x="427.237187" xlink:href="#me30697d90a" y="494.529849"/>
     <use style="fill:#dd8452;stroke:#ffffff;stroke-width:0.75;" x="443.199046" xlink:href="#me30697d90a" y="494.20895"/>
     <use style="fill:#dd8452;stroke:#ffffff;stroke-width:0.75;" x="459.160906" xlink:href="#me30697d90a" y="494.295379"/>
     <use style="fill:#dd8452;stroke:#ffffff;stroke-width:0.75;" x="475.122765" xlink:href="#me30697d90a" y="493.996062"/>
     <use style="fill:#dd8452;stroke:#ffffff;stroke-width:0.75;" x="491.084625" xlink:href="#me30697d90a" y="493.607208"/>
     <use style="fill:#dd8452;stroke:#ffffff;stroke-width:0.75;" x="507.046484" xlink:href="#me30697d90a" y="493.415926"/>
     <use style="fill:#dd8452;stroke:#ffffff;stroke-width:0.75;" x="523.008343" xlink:href="#me30697d90a" y="492.919071"/>
     <use style="fill:#dd8452;stroke:#ffffff;stroke-width:0.75;" x="538.970203" xlink:href="#me30697d90a" y="492.878991"/>
     <use style="fill:#dd8452;stroke:#ffffff;stroke-width:0.75;" x="554.932062" xlink:href="#me30697d90a" y="492.811085"/>
     <use style="fill:#dd8452;stroke:#ffffff;stroke-width:0.75;" x="570.893921" xlink:href="#me30697d90a" y="492.484027"/>
     <use style="fill:#dd8452;stroke:#ffffff;stroke-width:0.75;" x="586.855781" xlink:href="#me30697d90a" y="492.385255"/>
     <use style="fill:#dd8452;stroke:#ffffff;stroke-width:0.75;" x="602.81764" xlink:href="#me30697d90a" y="491.110835"/>
     <use style="fill:#dd8452;stroke:#ffffff;stroke-width:0.75;" x="618.779499" xlink:href="#me30697d90a" y="491.798983"/>
     <use style="fill:#dd8452;stroke:#ffffff;stroke-width:0.75;" x="634.741359" xlink:href="#me30697d90a" y="491.144798"/>
     <use style="fill:#dd8452;stroke:#ffffff;stroke-width:0.75;" x="650.703218" xlink:href="#me30697d90a" y="491.030611"/>
     <use style="fill:#dd8452;stroke:#ffffff;stroke-width:0.75;" x="666.665077" xlink:href="#me30697d90a" y="490.700465"/>
     <use style="fill:#dd8452;stroke:#ffffff;stroke-width:0.75;" x="682.626937" xlink:href="#me30697d90a" y="490.938002"/>
     <use style="fill:#dd8452;stroke:#ffffff;stroke-width:0.75;" x="698.588796" xlink:href="#me30697d90a" y="490.922633"/>
     <use style="fill:#dd8452;stroke:#ffffff;stroke-width:0.75;" x="714.550656" xlink:href="#me30697d90a" y="490.635631"/>
     <use style="fill:#dd8452;stroke:#ffffff;stroke-width:0.75;" x="730.512515" xlink:href="#me30697d90a" y="490.851623"/>
     <use style="fill:#dd8452;stroke:#ffffff;stroke-width:0.75;" x="746.474374" xlink:href="#me30697d90a" y="490.845461"/>
    </g>
   </g>
   <g id="line2d_20">
    <path clip-path="url(#padb5f6a30a)" d="M 123.961859 458.540743 
L 139.923719 458.661117 
L 155.885578 459.713353 
L 171.847437 460.373674 
L 187.809297 457.94209 
L 203.771156 460.126831 
L 219.733015 457.142934 
L 235.694875 457.297229 
L 251.656734 454.007793 
L 267.618594 456.917692 
L 283.580453 456.065995 
L 299.542312 455.137174 
L 315.504172 454.279342 
L 331.466031 454.510763 
L 347.42789 455.239029 
L 363.38975 454.921174 
L 379.351609 451.708865 
L 395.313468 454.67124 
L 411.275328 454.742224 
L 427.237187 454.121957 
L 443.199046 453.063566 
L 459.160906 454.754551 
L 475.122765 453.63441 
L 491.084625 453.128339 
L 507.046484 453.279567 
L 523.008343 453.776381 
L 538.970203 452.717955 
L 554.932062 451.298486 
L 570.893921 454.128131 
L 586.855781 456.476412 
L 602.81764 452.801264 
L 618.779499 451.406528 
L 634.741359 452.443296 
L 650.703218 454.047922 
L 666.665077 449.8019 
L 682.626937 452.060725 
L 698.588796 451.378762 
L 714.550656 450.008663 
L 730.512515 451.909496 
L 746.474374 451.372542 
" style="fill:none;stroke:#55a868;stroke-dasharray:1.5,1.5;stroke-dashoffset:0;stroke-width:1.5;"/>
    <defs>
     <path d="M -3 3 
L 3 3 
L 3 -3 
L -3 -3 
z
" id="m163c099e2a" style="stroke:#ffffff;stroke-linejoin:miter;stroke-width:0.75;"/>
    </defs>
    <g clip-path="url(#padb5f6a30a)">
     <use style="fill:#55a868;stroke:#ffffff;stroke-linejoin:miter;stroke-width:0.75;" x="123.961859" xlink:href="#m163c099e2a" y="458.540743"/>
     <use style="fill:#55a868;stroke:#ffffff;stroke-linejoin:miter;stroke-width:0.75;" x="139.923719" xlink:href="#m163c099e2a" y="458.661117"/>
     <use style="fill:#55a868;stroke:#ffffff;stroke-linejoin:miter;stroke-width:0.75;" x="155.885578" xlink:href="#m163c099e2a" y="459.713353"/>
     <use style="fill:#55a868;stroke:#ffffff;stroke-linejoin:miter;stroke-width:0.75;" x="171.847437" xlink:href="#m163c099e2a" y="460.373674"/>
     <use style="fill:#55a868;stroke:#ffffff;stroke-linejoin:miter;stroke-width:0.75;" x="187.809297" xlink:href="#m163c099e2a" y="457.94209"/>
     <use style="fill:#55a868;stroke:#ffffff;stroke-linejoin:miter;stroke-width:0.75;" x="203.771156" xlink:href="#m163c099e2a" y="460.126831"/>
     <use style="fill:#55a868;stroke:#ffffff;stroke-linejoin:miter;stroke-width:0.75;" x="219.733015" xlink:href="#m163c099e2a" y="457.142934"/>
     <use style="fill:#55a868;stroke:#ffffff;stroke-linejoin:miter;stroke-width:0.75;" x="235.694875" xlink:href="#m163c099e2a" y="457.297229"/>
     <use style="fill:#55a868;stroke:#ffffff;stroke-linejoin:miter;stroke-width:0.75;" x="251.656734" xlink:href="#m163c099e2a" y="454.007793"/>
     <use style="fill:#55a868;stroke:#ffffff;stroke-linejoin:miter;stroke-width:0.75;" x="267.618594" xlink:href="#m163c099e2a" y="456.917692"/>
     <use style="fill:#55a868;stroke:#ffffff;stroke-linejoin:miter;stroke-width:0.75;" x="283.580453" xlink:href="#m163c099e2a" y="456.065995"/>
     <use style="fill:#55a868;stroke:#ffffff;stroke-linejoin:miter;stroke-width:0.75;" x="299.542312" xlink:href="#m163c099e2a" y="455.137174"/>
     <use style="fill:#55a868;stroke:#ffffff;stroke-linejoin:miter;stroke-width:0.75;" x="315.504172" xlink:href="#m163c099e2a" y="454.279342"/>
     <use style="fill:#55a868;stroke:#ffffff;stroke-linejoin:miter;stroke-width:0.75;" x="331.466031" xlink:href="#m163c099e2a" y="454.510763"/>
     <use style="fill:#55a868;stroke:#ffffff;stroke-linejoin:miter;stroke-width:0.75;" x="347.42789" xlink:href="#m163c099e2a" y="455.239029"/>
     <use style="fill:#55a868;stroke:#ffffff;stroke-linejoin:miter;stroke-width:0.75;" x="363.38975" xlink:href="#m163c099e2a" y="454.921174"/>
     <use style="fill:#55a868;stroke:#ffffff;stroke-linejoin:miter;stroke-width:0.75;" x="379.351609" xlink:href="#m163c099e2a" y="451.708865"/>
     <use style="fill:#55a868;stroke:#ffffff;stroke-linejoin:miter;stroke-width:0.75;" x="395.313468" xlink:href="#m163c099e2a" y="454.67124"/>
     <use style="fill:#55a868;stroke:#ffffff;stroke-linejoin:miter;stroke-width:0.75;" x="411.275328" xlink:href="#m163c099e2a" y="454.742224"/>
     <use style="fill:#55a868;stroke:#ffffff;stroke-linejoin:miter;stroke-width:0.75;" x="427.237187" xlink:href="#m163c099e2a" y="454.121957"/>
     <use style="fill:#55a868;stroke:#ffffff;stroke-linejoin:miter;stroke-width:0.75;" x="443.199046" xlink:href="#m163c099e2a" y="453.063566"/>
     <use style="fill:#55a868;stroke:#ffffff;stroke-linejoin:miter;stroke-width:0.75;" x="459.160906" xlink:href="#m163c099e2a" y="454.754551"/>
     <use style="fill:#55a868;stroke:#ffffff;stroke-linejoin:miter;stroke-width:0.75;" x="475.122765" xlink:href="#m163c099e2a" y="453.63441"/>
     <use style="fill:#55a868;stroke:#ffffff;stroke-linejoin:miter;stroke-width:0.75;" x="491.084625" xlink:href="#m163c099e2a" y="453.128339"/>
     <use style="fill:#55a868;stroke:#ffffff;stroke-linejoin:miter;stroke-width:0.75;" x="507.046484" xlink:href="#m163c099e2a" y="453.279567"/>
     <use style="fill:#55a868;stroke:#ffffff;stroke-linejoin:miter;stroke-width:0.75;" x="523.008343" xlink:href="#m163c099e2a" y="453.776381"/>
     <use style="fill:#55a868;stroke:#ffffff;stroke-linejoin:miter;stroke-width:0.75;" x="538.970203" xlink:href="#m163c099e2a" y="452.717955"/>
     <use style="fill:#55a868;stroke:#ffffff;stroke-linejoin:miter;stroke-width:0.75;" x="554.932062" xlink:href="#m163c099e2a" y="451.298486"/>
     <use style="fill:#55a868;stroke:#ffffff;stroke-linejoin:miter;stroke-width:0.75;" x="570.893921" xlink:href="#m163c099e2a" y="454.128131"/>
     <use style="fill:#55a868;stroke:#ffffff;stroke-linejoin:miter;stroke-width:0.75;" x="586.855781" xlink:href="#m163c099e2a" y="456.476412"/>
     <use style="fill:#55a868;stroke:#ffffff;stroke-linejoin:miter;stroke-width:0.75;" x="602.81764" xlink:href="#m163c099e2a" y="452.801264"/>
     <use style="fill:#55a868;stroke:#ffffff;stroke-linejoin:miter;stroke-width:0.75;" x="618.779499" xlink:href="#m163c099e2a" y="451.406528"/>
     <use style="fill:#55a868;stroke:#ffffff;stroke-linejoin:miter;stroke-width:0.75;" x="634.741359" xlink:href="#m163c099e2a" y="452.443296"/>
     <use style="fill:#55a868;stroke:#ffffff;stroke-linejoin:miter;stroke-width:0.75;" x="650.703218" xlink:href="#m163c099e2a" y="454.047922"/>
     <use style="fill:#55a868;stroke:#ffffff;stroke-linejoin:miter;stroke-width:0.75;" x="666.665077" xlink:href="#m163c099e2a" y="449.8019"/>
     <use style="fill:#55a868;stroke:#ffffff;stroke-linejoin:miter;stroke-width:0.75;" x="682.626937" xlink:href="#m163c099e2a" y="452.060725"/>
     <use style="fill:#55a868;stroke:#ffffff;stroke-linejoin:miter;stroke-width:0.75;" x="698.588796" xlink:href="#m163c099e2a" y="451.378762"/>
     <use style="fill:#55a868;stroke:#ffffff;stroke-linejoin:miter;stroke-width:0.75;" x="714.550656" xlink:href="#m163c099e2a" y="450.008663"/>
     <use style="fill:#55a868;stroke:#ffffff;stroke-linejoin:miter;stroke-width:0.75;" x="730.512515" xlink:href="#m163c099e2a" y="451.909496"/>
     <use style="fill:#55a868;stroke:#ffffff;stroke-linejoin:miter;stroke-width:0.75;" x="746.474374" xlink:href="#m163c099e2a" y="451.372542"/>
    </g>
   </g>
   <g id="line2d_21">
    <path clip-path="url(#padb5f6a30a)" d="M 123.961859 139.060657 
L 139.923719 122.798798 
L 155.885578 117.778258 
L 171.847437 95.786155 
L 187.809297 89.583772 
L 203.771156 90.929159 
L 219.733015 97.2117 
L 235.694875 107.697089 
L 251.656734 113.168151 
L 267.618594 121.968732 
L 283.580453 133.012576 
L 299.542312 143.766469 
L 315.504172 145.886358 
L 331.466031 158.991584 
L 347.42789 169.945927 
L 363.38975 177.188236 
L 379.351609 187.522346 
L 395.313468 196.168703 
L 411.275328 205.29013 
L 427.237187 217.512813 
L 443.199046 229.442264 
L 459.160906 238.3972 
L 475.122765 252.637852 
L 491.084625 264.740193 
L 507.046484 275.719298 
L 523.008343 290.72223 
L 538.970203 299.377692 
L 554.932062 314.309712 
L 570.893921 324.804343 
L 586.855781 338.60999 
L 602.81764 354.066505 
L 618.779499 366.245967 
L 634.741359 378.724704 
L 650.703218 393.033332 
L 666.665077 408.218406 
L 682.626937 420.81128 
L 698.588796 434.311435 
L 714.550656 448.274456 
L 730.512515 463.502637 
L 746.474374 477.462556 
" style="fill:none;stroke:#c44e52;stroke-dasharray:4.5,1.875,2.25,1.875;stroke-dashoffset:0;stroke-width:1.5;"/>
    <defs>
     <path d="M 0 -3 
L -3 3 
L 3 3 
z
" id="m5e88f932ae" style="stroke:#ffffff;stroke-linejoin:miter;stroke-width:0.75;"/>
    </defs>
    <g clip-path="url(#padb5f6a30a)">
     <use style="fill:#c44e52;stroke:#ffffff;stroke-linejoin:miter;stroke-width:0.75;" x="123.961859" xlink:href="#m5e88f932ae" y="139.060657"/>
     <use style="fill:#c44e52;stroke:#ffffff;stroke-linejoin:miter;stroke-width:0.75;" x="139.923719" xlink:href="#m5e88f932ae" y="122.798798"/>
     <use style="fill:#c44e52;stroke:#ffffff;stroke-linejoin:miter;stroke-width:0.75;" x="155.885578" xlink:href="#m5e88f932ae" y="117.778258"/>
     <use style="fill:#c44e52;stroke:#ffffff;stroke-linejoin:miter;stroke-width:0.75;" x="171.847437" xlink:href="#m5e88f932ae" y="95.786155"/>
     <use style="fill:#c44e52;stroke:#ffffff;stroke-linejoin:miter;stroke-width:0.75;" x="187.809297" xlink:href="#m5e88f932ae" y="89.583772"/>
     <use style="fill:#c44e52;stroke:#ffffff;stroke-linejoin:miter;stroke-width:0.75;" x="203.771156" xlink:href="#m5e88f932ae" y="90.929159"/>
     <use style="fill:#c44e52;stroke:#ffffff;stroke-linejoin:miter;stroke-width:0.75;" x="219.733015" xlink:href="#m5e88f932ae" y="97.2117"/>
     <use style="fill:#c44e52;stroke:#ffffff;stroke-linejoin:miter;stroke-width:0.75;" x="235.694875" xlink:href="#m5e88f932ae" y="107.697089"/>
     <use style="fill:#c44e52;stroke:#ffffff;stroke-linejoin:miter;stroke-width:0.75;" x="251.656734" xlink:href="#m5e88f932ae" y="113.168151"/>
     <use style="fill:#c44e52;stroke:#ffffff;stroke-linejoin:miter;stroke-width:0.75;" x="267.618594" xlink:href="#m5e88f932ae" y="121.968732"/>
     <use style="fill:#c44e52;stroke:#ffffff;stroke-linejoin:miter;stroke-width:0.75;" x="283.580453" xlink:href="#m5e88f932ae" y="133.012576"/>
     <use style="fill:#c44e52;stroke:#ffffff;stroke-linejoin:miter;stroke-width:0.75;" x="299.542312" xlink:href="#m5e88f932ae" y="143.766469"/>
     <use style="fill:#c44e52;stroke:#ffffff;stroke-linejoin:miter;stroke-width:0.75;" x="315.504172" xlink:href="#m5e88f932ae" y="145.886358"/>
     <use style="fill:#c44e52;stroke:#ffffff;stroke-linejoin:miter;stroke-width:0.75;" x="331.466031" xlink:href="#m5e88f932ae" y="158.991584"/>
     <use style="fill:#c44e52;stroke:#ffffff;stroke-linejoin:miter;stroke-width:0.75;" x="347.42789" xlink:href="#m5e88f932ae" y="169.945927"/>
     <use style="fill:#c44e52;stroke:#ffffff;stroke-linejoin:miter;stroke-width:0.75;" x="363.38975" xlink:href="#m5e88f932ae" y="177.188236"/>
     <use style="fill:#c44e52;stroke:#ffffff;stroke-linejoin:miter;stroke-width:0.75;" x="379.351609" xlink:href="#m5e88f932ae" y="187.522346"/>
     <use style="fill:#c44e52;stroke:#ffffff;stroke-linejoin:miter;stroke-width:0.75;" x="395.313468" xlink:href="#m5e88f932ae" y="196.168703"/>
     <use style="fill:#c44e52;stroke:#ffffff;stroke-linejoin:miter;stroke-width:0.75;" x="411.275328" xlink:href="#m5e88f932ae" y="205.29013"/>
     <use style="fill:#c44e52;stroke:#ffffff;stroke-linejoin:miter;stroke-width:0.75;" x="427.237187" xlink:href="#m5e88f932ae" y="217.512813"/>
     <use style="fill:#c44e52;stroke:#ffffff;stroke-linejoin:miter;stroke-width:0.75;" x="443.199046" xlink:href="#m5e88f932ae" y="229.442264"/>
     <use style="fill:#c44e52;stroke:#ffffff;stroke-linejoin:miter;stroke-width:0.75;" x="459.160906" xlink:href="#m5e88f932ae" y="238.3972"/>
     <use style="fill:#c44e52;stroke:#ffffff;stroke-linejoin:miter;stroke-width:0.75;" x="475.122765" xlink:href="#m5e88f932ae" y="252.637852"/>
     <use style="fill:#c44e52;stroke:#ffffff;stroke-linejoin:miter;stroke-width:0.75;" x="491.084625" xlink:href="#m5e88f932ae" y="264.740193"/>
     <use style="fill:#c44e52;stroke:#ffffff;stroke-linejoin:miter;stroke-width:0.75;" x="507.046484" xlink:href="#m5e88f932ae" y="275.719298"/>
     <use style="fill:#c44e52;stroke:#ffffff;stroke-linejoin:miter;stroke-width:0.75;" x="523.008343" xlink:href="#m5e88f932ae" y="290.72223"/>
     <use style="fill:#c44e52;stroke:#ffffff;stroke-linejoin:miter;stroke-width:0.75;" x="538.970203" xlink:href="#m5e88f932ae" y="299.377692"/>
     <use style="fill:#c44e52;stroke:#ffffff;stroke-linejoin:miter;stroke-width:0.75;" x="554.932062" xlink:href="#m5e88f932ae" y="314.309712"/>
     <use style="fill:#c44e52;stroke:#ffffff;stroke-linejoin:miter;stroke-width:0.75;" x="570.893921" xlink:href="#m5e88f932ae" y="324.804343"/>
     <use style="fill:#c44e52;stroke:#ffffff;stroke-linejoin:miter;stroke-width:0.75;" x="586.855781" xlink:href="#m5e88f932ae" y="338.60999"/>
     <use style="fill:#c44e52;stroke:#ffffff;stroke-linejoin:miter;stroke-width:0.75;" x="602.81764" xlink:href="#m5e88f932ae" y="354.066505"/>
     <use style="fill:#c44e52;stroke:#ffffff;stroke-linejoin:miter;stroke-width:0.75;" x="618.779499" xlink:href="#m5e88f932ae" y="366.245967"/>
     <use style="fill:#c44e52;stroke:#ffffff;stroke-linejoin:miter;stroke-width:0.75;" x="634.741359" xlink:href="#m5e88f932ae" y="378.724704"/>
     <use style="fill:#c44e52;stroke:#ffffff;stroke-linejoin:miter;stroke-width:0.75;" x="650.703218" xlink:href="#m5e88f932ae" y="393.033332"/>
     <use style="fill:#c44e52;stroke:#ffffff;stroke-linejoin:miter;stroke-width:0.75;" x="666.665077" xlink:href="#m5e88f932ae" y="408.218406"/>
     <use style="fill:#c44e52;stroke:#ffffff;stroke-linejoin:miter;stroke-width:0.75;" x="682.626937" xlink:href="#m5e88f932ae" y="420.81128"/>
     <use style="fill:#c44e52;stroke:#ffffff;stroke-linejoin:miter;stroke-width:0.75;" x="698.588796" xlink:href="#m5e88f932ae" y="434.311435"/>
     <use style="fill:#c44e52;stroke:#ffffff;stroke-linejoin:miter;stroke-width:0.75;" x="714.550656" xlink:href="#m5e88f932ae" y="448.274456"/>
     <use style="fill:#c44e52;stroke:#ffffff;stroke-linejoin:miter;stroke-width:0.75;" x="730.512515" xlink:href="#m5e88f932ae" y="463.502637"/>
     <use style="fill:#c44e52;stroke:#ffffff;stroke-linejoin:miter;stroke-width:0.75;" x="746.474374" xlink:href="#m5e88f932ae" y="477.462556"/>
    </g>
   </g>
   <g id="line2d_22">
    <path clip-path="url(#padb5f6a30a)" d="M 123.961859 486.753813 
L 139.923719 486.096507 
L 155.885578 485.954568 
L 171.847437 485.49479 
L 187.809297 484.15557 
L 203.771156 484.457967 
L 219.733015 484.44566 
L 235.694875 484.451802 
L 251.656734 484.069178 
L 267.618594 484.238906 
L 283.580453 483.738996 
L 299.542312 483.58471 
L 315.504172 483.165087 
L 331.466031 483.057045 
L 347.42789 482.837949 
L 363.38975 482.6713 
L 379.351609 482.020204 
L 395.313468 482.134404 
L 411.275328 482.091204 
L 427.237187 481.798023 
L 443.199046 481.264185 
L 459.160906 480.801325 
L 475.122765 480.785931 
L 491.084625 480.25211 
L 507.046484 479.937321 
L 523.008343 479.924976 
L 538.970203 479.273869 
L 554.932062 479.372644 
L 570.893921 479.770676 
L 586.855781 478.320377 
L 602.81764 478.625881 
L 618.779499 478.31736 
L 634.741359 478.567259 
L 650.703218 477.869867 
L 666.665077 477.545911 
L 682.626937 477.567458 
L 698.588796 477.731051 
L 714.550656 477.882259 
L 730.512515 477.780416 
L 746.474374 477.684731 
" style="fill:none;stroke:#8172b3;stroke-dasharray:7.5,1.5,1.5,1.5;stroke-dashoffset:0;stroke-width:1.5;"/>
    <defs>
     <path d="M 0 4.242641 
L 2.545584 0 
L 0 -4.242641 
L -2.545584 0 
z
" id="m64d15ce403" style="stroke:#ffffff;stroke-linejoin:miter;stroke-width:0.75;"/>
    </defs>
    <g clip-path="url(#padb5f6a30a)">
     <use style="fill:#8172b3;stroke:#ffffff;stroke-linejoin:miter;stroke-width:0.75;" x="123.961859" xlink:href="#m64d15ce403" y="486.753813"/>
     <use style="fill:#8172b3;stroke:#ffffff;stroke-linejoin:miter;stroke-width:0.75;" x="139.923719" xlink:href="#m64d15ce403" y="486.096507"/>
     <use style="fill:#8172b3;stroke:#ffffff;stroke-linejoin:miter;stroke-width:0.75;" x="155.885578" xlink:href="#m64d15ce403" y="485.954568"/>
     <use style="fill:#8172b3;stroke:#ffffff;stroke-linejoin:miter;stroke-width:0.75;" x="171.847437" xlink:href="#m64d15ce403" y="485.49479"/>
     <use style="fill:#8172b3;stroke:#ffffff;stroke-linejoin:miter;stroke-width:0.75;" x="187.809297" xlink:href="#m64d15ce403" y="484.15557"/>
     <use style="fill:#8172b3;stroke:#ffffff;stroke-linejoin:miter;stroke-width:0.75;" x="203.771156" xlink:href="#m64d15ce403" y="484.457967"/>
     <use style="fill:#8172b3;stroke:#ffffff;stroke-linejoin:miter;stroke-width:0.75;" x="219.733015" xlink:href="#m64d15ce403" y="484.44566"/>
     <use style="fill:#8172b3;stroke:#ffffff;stroke-linejoin:miter;stroke-width:0.75;" x="235.694875" xlink:href="#m64d15ce403" y="484.451802"/>
     <use style="fill:#8172b3;stroke:#ffffff;stroke-linejoin:miter;stroke-width:0.75;" x="251.656734" xlink:href="#m64d15ce403" y="484.069178"/>
     <use style="fill:#8172b3;stroke:#ffffff;stroke-linejoin:miter;stroke-width:0.75;" x="267.618594" xlink:href="#m64d15ce403" y="484.238906"/>
     <use style="fill:#8172b3;stroke:#ffffff;stroke-linejoin:miter;stroke-width:0.75;" x="283.580453" xlink:href="#m64d15ce403" y="483.738996"/>
     <use style="fill:#8172b3;stroke:#ffffff;stroke-linejoin:miter;stroke-width:0.75;" x="299.542312" xlink:href="#m64d15ce403" y="483.58471"/>
     <use style="fill:#8172b3;stroke:#ffffff;stroke-linejoin:miter;stroke-width:0.75;" x="315.504172" xlink:href="#m64d15ce403" y="483.165087"/>
     <use style="fill:#8172b3;stroke:#ffffff;stroke-linejoin:miter;stroke-width:0.75;" x="331.466031" xlink:href="#m64d15ce403" y="483.057045"/>
     <use style="fill:#8172b3;stroke:#ffffff;stroke-linejoin:miter;stroke-width:0.75;" x="347.42789" xlink:href="#m64d15ce403" y="482.837949"/>
     <use style="fill:#8172b3;stroke:#ffffff;stroke-linejoin:miter;stroke-width:0.75;" x="363.38975" xlink:href="#m64d15ce403" y="482.6713"/>
     <use style="fill:#8172b3;stroke:#ffffff;stroke-linejoin:miter;stroke-width:0.75;" x="379.351609" xlink:href="#m64d15ce403" y="482.020204"/>
     <use style="fill:#8172b3;stroke:#ffffff;stroke-linejoin:miter;stroke-width:0.75;" x="395.313468" xlink:href="#m64d15ce403" y="482.134404"/>
     <use style="fill:#8172b3;stroke:#ffffff;stroke-linejoin:miter;stroke-width:0.75;" x="411.275328" xlink:href="#m64d15ce403" y="482.091204"/>
     <use style="fill:#8172b3;stroke:#ffffff;stroke-linejoin:miter;stroke-width:0.75;" x="427.237187" xlink:href="#m64d15ce403" y="481.798023"/>
     <use style="fill:#8172b3;stroke:#ffffff;stroke-linejoin:miter;stroke-width:0.75;" x="443.199046" xlink:href="#m64d15ce403" y="481.264185"/>
     <use style="fill:#8172b3;stroke:#ffffff;stroke-linejoin:miter;stroke-width:0.75;" x="459.160906" xlink:href="#m64d15ce403" y="480.801325"/>
     <use style="fill:#8172b3;stroke:#ffffff;stroke-linejoin:miter;stroke-width:0.75;" x="475.122765" xlink:href="#m64d15ce403" y="480.785931"/>
     <use style="fill:#8172b3;stroke:#ffffff;stroke-linejoin:miter;stroke-width:0.75;" x="491.084625" xlink:href="#m64d15ce403" y="480.25211"/>
     <use style="fill:#8172b3;stroke:#ffffff;stroke-linejoin:miter;stroke-width:0.75;" x="507.046484" xlink:href="#m64d15ce403" y="479.937321"/>
     <use style="fill:#8172b3;stroke:#ffffff;stroke-linejoin:miter;stroke-width:0.75;" x="523.008343" xlink:href="#m64d15ce403" y="479.924976"/>
     <use style="fill:#8172b3;stroke:#ffffff;stroke-linejoin:miter;stroke-width:0.75;" x="538.970203" xlink:href="#m64d15ce403" y="479.273869"/>
     <use style="fill:#8172b3;stroke:#ffffff;stroke-linejoin:miter;stroke-width:0.75;" x="554.932062" xlink:href="#m64d15ce403" y="479.372644"/>
     <use style="fill:#8172b3;stroke:#ffffff;stroke-linejoin:miter;stroke-width:0.75;" x="570.893921" xlink:href="#m64d15ce403" y="479.770676"/>
     <use style="fill:#8172b3;stroke:#ffffff;stroke-linejoin:miter;stroke-width:0.75;" x="586.855781" xlink:href="#m64d15ce403" y="478.320377"/>
     <use style="fill:#8172b3;stroke:#ffffff;stroke-linejoin:miter;stroke-width:0.75;" x="602.81764" xlink:href="#m64d15ce403" y="478.625881"/>
     <use style="fill:#8172b3;stroke:#ffffff;stroke-linejoin:miter;stroke-width:0.75;" x="618.779499" xlink:href="#m64d15ce403" y="478.31736"/>
     <use style="fill:#8172b3;stroke:#ffffff;stroke-linejoin:miter;stroke-width:0.75;" x="634.741359" xlink:href="#m64d15ce403" y="478.567259"/>
     <use style="fill:#8172b3;stroke:#ffffff;stroke-linejoin:miter;stroke-width:0.75;" x="650.703218" xlink:href="#m64d15ce403" y="477.869867"/>
     <use style="fill:#8172b3;stroke:#ffffff;stroke-linejoin:miter;stroke-width:0.75;" x="666.665077" xlink:href="#m64d15ce403" y="477.545911"/>
     <use style="fill:#8172b3;stroke:#ffffff;stroke-linejoin:miter;stroke-width:0.75;" x="682.626937" xlink:href="#m64d15ce403" y="477.567458"/>
     <use style="fill:#8172b3;stroke:#ffffff;stroke-linejoin:miter;stroke-width:0.75;" x="698.588796" xlink:href="#m64d15ce403" y="477.731051"/>
     <use style="fill:#8172b3;stroke:#ffffff;stroke-linejoin:miter;stroke-width:0.75;" x="714.550656" xlink:href="#m64d15ce403" y="477.882259"/>
     <use style="fill:#8172b3;stroke:#ffffff;stroke-linejoin:miter;stroke-width:0.75;" x="730.512515" xlink:href="#m64d15ce403" y="477.780416"/>
     <use style="fill:#8172b3;stroke:#ffffff;stroke-linejoin:miter;stroke-width:0.75;" x="746.474374" xlink:href="#m64d15ce403" y="477.684731"/>
    </g>
   </g>
   <g id="line2d_23">
    <path clip-path="url(#padb5f6a30a)" d="M 123.961859 393.406784 
L 139.923719 393.36972 
L 155.885578 393.292591 
L 171.847437 396.461663 
L 187.809297 395.329158 
L 203.771156 397.445999 
L 219.733015 397.899649 
L 235.694875 396.396855 
L 251.656734 395.829028 
L 267.618594 397.945897 
L 283.580453 397.544757 
L 299.542312 397.081868 
L 315.504172 395.218065 
L 331.466031 396.011143 
L 347.42789 397.458366 
L 363.38975 398.979619 
L 379.351609 397.229972 
L 395.313468 393.996105 
L 411.275328 398.300739 
L 427.237187 399.963947 
L 443.199046 396.53259 
L 459.160906 397.976709 
L 475.122765 398.001427 
L 491.084625 398.686455 
L 507.046484 393.96834 
L 523.008343 398.155699 
L 538.970203 395.702533 
L 554.932062 394.310876 
L 570.893921 398.476643 
L 586.855781 396.248727 
L 602.81764 394.890975 
L 618.779499 394.872469 
L 634.741359 396.816482 
L 650.703218 394.75524 
L 666.665077 394.681163 
L 682.626937 395.779719 
L 698.588796 395.687109 
L 714.550656 399.337563 
L 730.512515 391.684909 
L 746.474374 396.137652 
" style="fill:none;stroke:#937860;stroke-dasharray:4.5,1.875,1.875,1.875,1.875,1.875;stroke-dashoffset:0;stroke-width:1.5;"/>
    <defs>
     <path d="M -1 3 
L 1 3 
L 1 1 
L 3 1 
L 3 -1 
L 1 -1 
L 1 -3 
L -1 -3 
L -1 -1 
L -3 -1 
L -3 1 
L -1 1 
z
" id="m2283470f2f" style="stroke:#ffffff;stroke-linejoin:miter;stroke-width:0.75;"/>
    </defs>
    <g clip-path="url(#padb5f6a30a)">
     <use style="fill:#937860;stroke:#ffffff;stroke-linejoin:miter;stroke-width:0.75;" x="123.961859" xlink:href="#m2283470f2f" y="393.406784"/>
     <use style="fill:#937860;stroke:#ffffff;stroke-linejoin:miter;stroke-width:0.75;" x="139.923719" xlink:href="#m2283470f2f" y="393.36972"/>
     <use style="fill:#937860;stroke:#ffffff;stroke-linejoin:miter;stroke-width:0.75;" x="155.885578" xlink:href="#m2283470f2f" y="393.292591"/>
     <use style="fill:#937860;stroke:#ffffff;stroke-linejoin:miter;stroke-width:0.75;" x="171.847437" xlink:href="#m2283470f2f" y="396.461663"/>
     <use style="fill:#937860;stroke:#ffffff;stroke-linejoin:miter;stroke-width:0.75;" x="187.809297" xlink:href="#m2283470f2f" y="395.329158"/>
     <use style="fill:#937860;stroke:#ffffff;stroke-linejoin:miter;stroke-width:0.75;" x="203.771156" xlink:href="#m2283470f2f" y="397.445999"/>
     <use style="fill:#937860;stroke:#ffffff;stroke-linejoin:miter;stroke-width:0.75;" x="219.733015" xlink:href="#m2283470f2f" y="397.899649"/>
     <use style="fill:#937860;stroke:#ffffff;stroke-linejoin:miter;stroke-width:0.75;" x="235.694875" xlink:href="#m2283470f2f" y="396.396855"/>
     <use style="fill:#937860;stroke:#ffffff;stroke-linejoin:miter;stroke-width:0.75;" x="251.656734" xlink:href="#m2283470f2f" y="395.829028"/>
     <use style="fill:#937860;stroke:#ffffff;stroke-linejoin:miter;stroke-width:0.75;" x="267.618594" xlink:href="#m2283470f2f" y="397.945897"/>
     <use style="fill:#937860;stroke:#ffffff;stroke-linejoin:miter;stroke-width:0.75;" x="283.580453" xlink:href="#m2283470f2f" y="397.544757"/>
     <use style="fill:#937860;stroke:#ffffff;stroke-linejoin:miter;stroke-width:0.75;" x="299.542312" xlink:href="#m2283470f2f" y="397.081868"/>
     <use style="fill:#937860;stroke:#ffffff;stroke-linejoin:miter;stroke-width:0.75;" x="315.504172" xlink:href="#m2283470f2f" y="395.218065"/>
     <use style="fill:#937860;stroke:#ffffff;stroke-linejoin:miter;stroke-width:0.75;" x="331.466031" xlink:href="#m2283470f2f" y="396.011143"/>
     <use style="fill:#937860;stroke:#ffffff;stroke-linejoin:miter;stroke-width:0.75;" x="347.42789" xlink:href="#m2283470f2f" y="397.458366"/>
     <use style="fill:#937860;stroke:#ffffff;stroke-linejoin:miter;stroke-width:0.75;" x="363.38975" xlink:href="#m2283470f2f" y="398.979619"/>
     <use style="fill:#937860;stroke:#ffffff;stroke-linejoin:miter;stroke-width:0.75;" x="379.351609" xlink:href="#m2283470f2f" y="397.229972"/>
     <use style="fill:#937860;stroke:#ffffff;stroke-linejoin:miter;stroke-width:0.75;" x="395.313468" xlink:href="#m2283470f2f" y="393.996105"/>
     <use style="fill:#937860;stroke:#ffffff;stroke-linejoin:miter;stroke-width:0.75;" x="411.275328" xlink:href="#m2283470f2f" y="398.300739"/>
     <use style="fill:#937860;stroke:#ffffff;stroke-linejoin:miter;stroke-width:0.75;" x="427.237187" xlink:href="#m2283470f2f" y="399.963947"/>
     <use style="fill:#937860;stroke:#ffffff;stroke-linejoin:miter;stroke-width:0.75;" x="443.199046" xlink:href="#m2283470f2f" y="396.53259"/>
     <use style="fill:#937860;stroke:#ffffff;stroke-linejoin:miter;stroke-width:0.75;" x="459.160906" xlink:href="#m2283470f2f" y="397.976709"/>
     <use style="fill:#937860;stroke:#ffffff;stroke-linejoin:miter;stroke-width:0.75;" x="475.122765" xlink:href="#m2283470f2f" y="398.001427"/>
     <use style="fill:#937860;stroke:#ffffff;stroke-linejoin:miter;stroke-width:0.75;" x="491.084625" xlink:href="#m2283470f2f" y="398.686455"/>
     <use style="fill:#937860;stroke:#ffffff;stroke-linejoin:miter;stroke-width:0.75;" x="507.046484" xlink:href="#m2283470f2f" y="393.96834"/>
     <use style="fill:#937860;stroke:#ffffff;stroke-linejoin:miter;stroke-width:0.75;" x="523.008343" xlink:href="#m2283470f2f" y="398.155699"/>
     <use style="fill:#937860;stroke:#ffffff;stroke-linejoin:miter;stroke-width:0.75;" x="538.970203" xlink:href="#m2283470f2f" y="395.702533"/>
     <use style="fill:#937860;stroke:#ffffff;stroke-linejoin:miter;stroke-width:0.75;" x="554.932062" xlink:href="#m2283470f2f" y="394.310876"/>
     <use style="fill:#937860;stroke:#ffffff;stroke-linejoin:miter;stroke-width:0.75;" x="570.893921" xlink:href="#m2283470f2f" y="398.476643"/>
     <use style="fill:#937860;stroke:#ffffff;stroke-linejoin:miter;stroke-width:0.75;" x="586.855781" xlink:href="#m2283470f2f" y="396.248727"/>
     <use style="fill:#937860;stroke:#ffffff;stroke-linejoin:miter;stroke-width:0.75;" x="602.81764" xlink:href="#m2283470f2f" y="394.890975"/>
     <use style="fill:#937860;stroke:#ffffff;stroke-linejoin:miter;stroke-width:0.75;" x="618.779499" xlink:href="#m2283470f2f" y="394.872469"/>
     <use style="fill:#937860;stroke:#ffffff;stroke-linejoin:miter;stroke-width:0.75;" x="634.741359" xlink:href="#m2283470f2f" y="396.816482"/>
     <use style="fill:#937860;stroke:#ffffff;stroke-linejoin:miter;stroke-width:0.75;" x="650.703218" xlink:href="#m2283470f2f" y="394.75524"/>
     <use style="fill:#937860;stroke:#ffffff;stroke-linejoin:miter;stroke-width:0.75;" x="666.665077" xlink:href="#m2283470f2f" y="394.681163"/>
     <use style="fill:#937860;stroke:#ffffff;stroke-linejoin:miter;stroke-width:0.75;" x="682.626937" xlink:href="#m2283470f2f" y="395.779719"/>
     <use style="fill:#937860;stroke:#ffffff;stroke-linejoin:miter;stroke-width:0.75;" x="698.588796" xlink:href="#m2283470f2f" y="395.687109"/>
     <use style="fill:#937860;stroke:#ffffff;stroke-linejoin:miter;stroke-width:0.75;" x="714.550656" xlink:href="#m2283470f2f" y="399.337563"/>
     <use style="fill:#937860;stroke:#ffffff;stroke-linejoin:miter;stroke-width:0.75;" x="730.512515" xlink:href="#m2283470f2f" y="391.684909"/>
     <use style="fill:#937860;stroke:#ffffff;stroke-linejoin:miter;stroke-width:0.75;" x="746.474374" xlink:href="#m2283470f2f" y="396.137652"/>
    </g>
   </g>
   <g id="line2d_24"/>
   <g id="line2d_25"/>
   <g id="line2d_26"/>
   <g id="line2d_27"/>
   <g id="line2d_28"/>
   <g id="line2d_29"/>
   <g id="patch_3">
    <path d="M 108 504 
L 108 69.12 
" style="fill:none;stroke:#cccccc;stroke-linecap:square;stroke-linejoin:miter;stroke-width:1.25;"/>
   </g>
   <g id="patch_4">
    <path d="M 777.6 504 
L 777.6 69.12 
" style="fill:none;stroke:#cccccc;stroke-linecap:square;stroke-linejoin:miter;stroke-width:1.25;"/>
   </g>
   <g id="patch_5">
    <path d="M 108 504 
L 777.6 504 
" style="fill:none;stroke:#cccccc;stroke-linecap:square;stroke-linejoin:miter;stroke-width:1.25;"/>
   </g>
   <g id="patch_6">
    <path d="M 108 69.12 
L 777.6 69.12 
" style="fill:none;stroke:#cccccc;stroke-linecap:square;stroke-linejoin:miter;stroke-width:1.25;"/>
   </g>
   <g id="text_20">
    <!-- Binary Classifier: Fit_Time - 10-fold CV Mean -->
    <g style="fill:#262626;" transform="translate(262.593281 57.12)scale(0.18 -0.18)">
     <defs>
      <path d="M 7.328125 0 
L 7.328125 71.578125 
L 34.1875 71.578125 
Q 42.390625 71.578125 47.34375 69.40625 
Q 52.296875 67.234375 55.09375 62.71875 
Q 57.90625 58.203125 57.90625 53.265625 
Q 57.90625 48.6875 55.421875 44.625 
Q 52.9375 40.578125 47.90625 38.09375 
Q 54.390625 36.1875 57.875 31.59375 
Q 61.375 27 61.375 20.75 
Q 61.375 15.71875 59.25 11.390625 
Q 57.125 7.078125 54 4.734375 
Q 50.875 2.390625 46.15625 1.1875 
Q 41.453125 0 34.625 0 
z
M 16.796875 41.5 
L 32.28125 41.5 
Q 38.578125 41.5 41.3125 42.328125 
Q 44.921875 43.40625 46.75 45.890625 
Q 48.578125 48.390625 48.578125 52.15625 
Q 48.578125 55.71875 46.875 58.421875 
Q 45.171875 61.140625 41.984375 62.140625 
Q 38.8125 63.140625 31.109375 63.140625 
L 16.796875 63.140625 
z
M 16.796875 8.453125 
L 34.625 8.453125 
Q 39.203125 8.453125 41.0625 8.796875 
Q 44.34375 9.375 46.53125 10.734375 
Q 48.734375 12.109375 50.140625 14.71875 
Q 51.5625 17.328125 51.5625 20.75 
Q 51.5625 24.75 49.515625 27.703125 
Q 47.46875 30.671875 43.828125 31.859375 
Q 40.1875 33.0625 33.34375 33.0625 
L 16.796875 33.0625 
z
" id="ArialMT-66"/>
      <path d="M 6.203125 -19.96875 
L 5.21875 -11.71875 
Q 8.109375 -12.5 10.25 -12.5 
Q 13.1875 -12.5 14.9375 -11.515625 
Q 16.703125 -10.546875 17.828125 -8.796875 
Q 18.65625 -7.46875 20.515625 -2.25 
Q 20.75 -1.515625 21.296875 -0.09375 
L 1.609375 51.859375 
L 11.078125 51.859375 
L 21.875 21.828125 
Q 23.96875 16.109375 25.640625 9.8125 
Q 27.15625 15.875 29.25 21.625 
L 40.328125 51.859375 
L 49.125 51.859375 
L 29.390625 -0.875 
Q 26.21875 -9.421875 24.46875 -12.640625 
Q 22.125 -17 19.09375 -19.015625 
Q 16.0625 -21.046875 11.859375 -21.046875 
Q 9.328125 -21.046875 6.203125 -19.96875 
z
" id="ArialMT-121"/>
      <path d="M 58.796875 25.09375 
L 68.265625 22.703125 
Q 65.28125 11.03125 57.546875 4.90625 
Q 49.8125 -1.21875 38.625 -1.21875 
Q 27.046875 -1.21875 19.796875 3.484375 
Q 12.546875 8.203125 8.765625 17.140625 
Q 4.984375 26.078125 4.984375 36.328125 
Q 4.984375 47.515625 9.25 55.828125 
Q 13.53125 64.15625 21.40625 68.46875 
Q 29.296875 72.796875 38.765625 72.796875 
Q 49.515625 72.796875 56.828125 67.328125 
Q 64.15625 61.859375 67.046875 51.953125 
L 57.71875 49.75 
Q 55.21875 57.5625 50.484375 61.125 
Q 45.75 64.703125 38.578125 64.703125 
Q 30.328125 64.703125 24.78125 60.734375 
Q 19.234375 56.78125 16.984375 50.109375 
Q 14.75 43.453125 14.75 36.375 
Q 14.75 27.25 17.40625 20.4375 
Q 20.0625 13.625 25.671875 10.25 
Q 31.296875 6.890625 37.84375 6.890625 
Q 45.796875 6.890625 51.3125 11.46875 
Q 56.84375 16.0625 58.796875 25.09375 
z
" id="ArialMT-67"/>
      <path d="M 6.390625 0 
L 6.390625 71.578125 
L 15.1875 71.578125 
L 15.1875 0 
z
" id="ArialMT-108"/>
      <path d="M 9.03125 41.84375 
L 9.03125 51.859375 
L 19.046875 51.859375 
L 19.046875 41.84375 
z
M 9.03125 0 
L 9.03125 10.015625 
L 19.046875 10.015625 
L 19.046875 0 
z
" id="ArialMT-58"/>
      <path d="M -1.515625 -19.875 
L -1.515625 -13.53125 
L 56.734375 -13.53125 
L 56.734375 -19.875 
z
" id="ArialMT-95"/>
      <path d="M 25.921875 0 
L 25.921875 63.140625 
L 2.34375 63.140625 
L 2.34375 71.578125 
L 59.078125 71.578125 
L 59.078125 63.140625 
L 35.40625 63.140625 
L 35.40625 0 
z
" id="ArialMT-84"/>
      <path d="M 3.171875 21.484375 
L 3.171875 30.328125 
L 30.171875 30.328125 
L 30.171875 21.484375 
z
" id="ArialMT-45"/>
      <path d="M 28.171875 0 
L 0.4375 71.578125 
L 10.6875 71.578125 
L 29.296875 19.578125 
Q 31.546875 13.328125 33.0625 7.859375 
Q 34.71875 13.71875 36.921875 19.578125 
L 56.25 71.578125 
L 65.921875 71.578125 
L 37.890625 0 
z
" id="ArialMT-86"/>
      <path d="M 7.421875 0 
L 7.421875 71.578125 
L 21.6875 71.578125 
L 38.625 20.90625 
Q 40.96875 13.8125 42.046875 10.296875 
Q 43.265625 14.203125 45.84375 21.78125 
L 62.984375 71.578125 
L 75.734375 71.578125 
L 75.734375 0 
L 66.609375 0 
L 66.609375 59.90625 
L 45.796875 0 
L 37.25 0 
L 16.546875 60.9375 
L 16.546875 0 
z
" id="ArialMT-77"/>
     </defs>
     <use xlink:href="#ArialMT-66"/>
     <use x="66.699219" xlink:href="#ArialMT-105"/>
     <use x="88.916016" xlink:href="#ArialMT-110"/>
     <use x="144.53125" xlink:href="#ArialMT-97"/>
     <use x="200.146484" xlink:href="#ArialMT-114"/>
     <use x="233.447266" xlink:href="#ArialMT-121"/>
     <use x="283.447266" xlink:href="#ArialMT-32"/>
     <use x="311.230469" xlink:href="#ArialMT-67"/>
     <use x="383.447266" xlink:href="#ArialMT-108"/>
     <use x="405.664062" xlink:href="#ArialMT-97"/>
     <use x="461.279297" xlink:href="#ArialMT-115"/>
     <use x="511.279297" xlink:href="#ArialMT-115"/>
     <use x="561.279297" xlink:href="#ArialMT-105"/>
     <use x="583.496094" xlink:href="#ArialMT-102"/>
     <use x="611.279297" xlink:href="#ArialMT-105"/>
     <use x="633.496094" xlink:href="#ArialMT-101"/>
     <use x="689.111328" xlink:href="#ArialMT-114"/>
     <use x="722.412109" xlink:href="#ArialMT-58"/>
     <use x="750.195312" xlink:href="#ArialMT-32"/>
     <use x="777.978516" xlink:href="#ArialMT-70"/>
     <use x="839.0625" xlink:href="#ArialMT-105"/>
     <use x="861.279297" xlink:href="#ArialMT-116"/>
     <use x="889.0625" xlink:href="#ArialMT-95"/>
     <use x="944.677734" xlink:href="#ArialMT-84"/>
     <use x="1002.011719" xlink:href="#ArialMT-105"/>
     <use x="1024.228516" xlink:href="#ArialMT-109"/>
     <use x="1107.529297" xlink:href="#ArialMT-101"/>
     <use x="1163.144531" xlink:href="#ArialMT-32"/>
     <use x="1190.927734" xlink:href="#ArialMT-45"/>
     <use x="1224.228516" xlink:href="#ArialMT-32"/>
     <use x="1252.011719" xlink:href="#ArialMT-49"/>
     <use x="1307.626953" xlink:href="#ArialMT-48"/>
     <use x="1363.242188" xlink:href="#ArialMT-45"/>
     <use x="1396.542969" xlink:href="#ArialMT-102"/>
     <use x="1424.326172" xlink:href="#ArialMT-111"/>
     <use x="1479.941406" xlink:href="#ArialMT-108"/>
     <use x="1502.158203" xlink:href="#ArialMT-100"/>
     <use x="1557.773438" xlink:href="#ArialMT-32"/>
     <use x="1585.556641" xlink:href="#ArialMT-67"/>
     <use x="1657.773438" xlink:href="#ArialMT-86"/>
     <use x="1724.472656" xlink:href="#ArialMT-32"/>
     <use x="1752.255859" xlink:href="#ArialMT-77"/>
     <use x="1835.556641" xlink:href="#ArialMT-101"/>
     <use x="1891.171875" xlink:href="#ArialMT-97"/>
     <use x="1946.787109" xlink:href="#ArialMT-110"/>
    </g>
   </g>
   <g id="legend_1">
    <g id="patch_7">
     <path d="M 604.19225 204.8555 
L 769.52 204.8555 
Q 772.4 204.8555 772.4 201.9755 
L 772.4 81.2 
Q 772.4 78.32 769.52 78.32 
L 604.19225 78.32 
Q 601.31225 78.32 601.31225 81.2 
L 601.31225 201.9755 
Q 601.31225 204.8555 604.19225 204.8555 
z
" style="fill:#4c4c4c;opacity:0.5;stroke:#4c4c4c;stroke-linejoin:miter;"/>
    </g>
    <g id="patch_8">
     <path d="M 602.19225 202.8555 
L 767.52 202.8555 
Q 770.4 202.8555 770.4 199.9755 
L 770.4 79.2 
Q 770.4 76.32 767.52 76.32 
L 602.19225 76.32 
Q 599.31225 76.32 599.31225 79.2 
L 599.31225 199.9755 
Q 599.31225 202.8555 602.19225 202.8555 
z
" style="fill:#ffffff;stroke:#cccccc;stroke-linejoin:miter;"/>
    </g>
    <g id="line2d_30">
     <path d="M 605.07225 87.34725 
L 633.87225 87.34725 
" style="fill:none;stroke:#4c72b0;stroke-linecap:round;stroke-width:1.5;"/>
    </g>
    <g id="line2d_31">
     <defs>
      <path d="M -0 3 
L 3 -3 
L -3 -3 
z
" id="mddd48e1ba4" style="stroke:#4c72b0;stroke-linejoin:miter;"/>
     </defs>
     <g>
      <use style="fill:#4c72b0;stroke:#4c72b0;stroke-linejoin:miter;" x="619.47225" xlink:href="#mddd48e1ba4" y="87.34725"/>
     </g>
    </g>
    <g id="text_21">
     <!-- Mutual Information -->
     <g style="fill:#262626;" transform="translate(645.39225 92.38725)scale(0.144 -0.144)">
      <defs>
       <path d="M 9.328125 0 
L 9.328125 71.578125 
L 18.796875 71.578125 
L 18.796875 0 
z
" id="ArialMT-73"/>
      </defs>
      <use xlink:href="#ArialMT-77"/>
      <use x="83.300781" xlink:href="#ArialMT-117"/>
      <use x="138.916016" xlink:href="#ArialMT-116"/>
      <use x="166.699219" xlink:href="#ArialMT-117"/>
      <use x="222.314453" xlink:href="#ArialMT-97"/>
      <use x="277.929688" xlink:href="#ArialMT-108"/>
      <use x="300.146484" xlink:href="#ArialMT-32"/>
      <use x="327.929688" xlink:href="#ArialMT-73"/>
      <use x="355.712891" xlink:href="#ArialMT-110"/>
      <use x="411.328125" xlink:href="#ArialMT-102"/>
      <use x="439.111328" xlink:href="#ArialMT-111"/>
      <use x="494.726562" xlink:href="#ArialMT-114"/>
      <use x="528.027344" xlink:href="#ArialMT-109"/>
      <use x="611.328125" xlink:href="#ArialMT-97"/>
      <use x="666.943359" xlink:href="#ArialMT-116"/>
      <use x="694.726562" xlink:href="#ArialMT-105"/>
      <use x="716.943359" xlink:href="#ArialMT-111"/>
      <use x="772.558594" xlink:href="#ArialMT-110"/>
     </g>
    </g>
    <g id="line2d_32">
     <path d="M 605.07225 107.7165 
L 633.87225 107.7165 
" style="fill:none;stroke:#dd8452;stroke-dasharray:6,2.25;stroke-dashoffset:0;stroke-width:1.5;"/>
    </g>
    <g id="line2d_33">
     <defs>
      <path d="M 0 3 
C 0.795609 3 1.55874 2.683901 2.12132 2.12132 
C 2.683901 1.55874 3 0.795609 3 0 
C 3 -0.795609 2.683901 -1.55874 2.12132 -2.12132 
C 1.55874 -2.683901 0.795609 -3 0 -3 
C -0.795609 -3 -1.55874 -2.683901 -2.12132 -2.12132 
C -2.683901 -1.55874 -3 -0.795609 -3 0 
C -3 0.795609 -2.683901 1.55874 -2.12132 2.12132 
C -1.55874 2.683901 -0.795609 3 0 3 
z
" id="m5d1cf1bb18" style="stroke:#dd8452;"/>
     </defs>
     <g>
      <use style="fill:#dd8452;stroke:#dd8452;" x="619.47225" xlink:href="#m5d1cf1bb18" y="107.7165"/>
     </g>
    </g>
    <g id="text_22">
     <!-- ANOVA -->
     <g style="fill:#262626;" transform="translate(645.39225 112.7565)scale(0.144 -0.144)">
      <defs>
       <path d="M -0.140625 0 
L 27.34375 71.578125 
L 37.546875 71.578125 
L 66.84375 0 
L 56.0625 0 
L 47.703125 21.6875 
L 17.78125 21.6875 
L 9.90625 0 
z
M 20.515625 29.390625 
L 44.78125 29.390625 
L 37.3125 49.21875 
Q 33.890625 58.25 32.234375 64.0625 
Q 30.859375 57.171875 28.375 50.390625 
z
" id="ArialMT-65"/>
       <path d="M 4.828125 34.859375 
Q 4.828125 52.6875 14.390625 62.765625 
Q 23.96875 72.859375 39.109375 72.859375 
Q 49.03125 72.859375 56.984375 68.109375 
Q 64.9375 63.375 69.109375 54.90625 
Q 73.296875 46.4375 73.296875 35.6875 
Q 73.296875 24.8125 68.890625 16.21875 
Q 64.5 7.625 56.4375 3.203125 
Q 48.390625 -1.21875 39.0625 -1.21875 
Q 28.953125 -1.21875 20.984375 3.65625 
Q 13.03125 8.546875 8.921875 16.984375 
Q 4.828125 25.4375 4.828125 34.859375 
z
M 14.59375 34.71875 
Q 14.59375 21.78125 21.546875 14.328125 
Q 28.515625 6.890625 39.015625 6.890625 
Q 49.703125 6.890625 56.609375 14.40625 
Q 63.53125 21.921875 63.53125 35.75 
Q 63.53125 44.484375 60.578125 51 
Q 57.625 57.515625 51.921875 61.109375 
Q 46.234375 64.703125 39.15625 64.703125 
Q 29.109375 64.703125 21.84375 57.78125 
Q 14.59375 50.875 14.59375 34.71875 
z
" id="ArialMT-79"/>
      </defs>
      <use xlink:href="#ArialMT-65"/>
      <use x="66.699219" xlink:href="#ArialMT-78"/>
      <use x="138.916016" xlink:href="#ArialMT-79"/>
      <use x="216.699219" xlink:href="#ArialMT-86"/>
      <use x="276.023438" xlink:href="#ArialMT-65"/>
     </g>
    </g>
    <g id="line2d_34">
     <path d="M 605.07225 128.08575 
L 633.87225 128.08575 
" style="fill:none;stroke:#55a868;stroke-dasharray:1.5,1.5;stroke-dashoffset:0;stroke-width:1.5;"/>
    </g>
    <g id="line2d_35">
     <defs>
      <path d="M -3 3 
L 3 3 
L 3 -3 
L -3 -3 
z
" id="ma40c96dd28" style="stroke:#55a868;stroke-linejoin:miter;"/>
     </defs>
     <g>
      <use style="fill:#55a868;stroke:#55a868;stroke-linejoin:miter;" x="619.47225" xlink:href="#ma40c96dd28" y="128.08575"/>
     </g>
    </g>
    <g id="text_23">
     <!-- ReliefF -->
     <g style="fill:#262626;" transform="translate(645.39225 133.12575)scale(0.144 -0.144)">
      <use xlink:href="#ArialMT-82"/>
      <use x="72.216797" xlink:href="#ArialMT-101"/>
      <use x="127.832031" xlink:href="#ArialMT-108"/>
      <use x="150.048828" xlink:href="#ArialMT-105"/>
      <use x="172.265625" xlink:href="#ArialMT-101"/>
      <use x="227.880859" xlink:href="#ArialMT-102"/>
      <use x="255.664062" xlink:href="#ArialMT-70"/>
     </g>
    </g>
    <g id="line2d_36">
     <path d="M 605.07225 148.455 
L 633.87225 148.455 
" style="fill:none;stroke:#c44e52;stroke-dasharray:4.5,1.875,2.25,1.875;stroke-dashoffset:0;stroke-width:1.5;"/>
    </g>
    <g id="line2d_37">
     <defs>
      <path d="M 0 -3 
L -3 3 
L 3 3 
z
" id="mb1ee41192e" style="stroke:#c44e52;stroke-linejoin:miter;"/>
     </defs>
     <g>
      <use style="fill:#c44e52;stroke:#c44e52;stroke-linejoin:miter;" x="619.47225" xlink:href="#mb1ee41192e" y="148.455"/>
     </g>
    </g>
    <g id="text_24">
     <!-- RFE -->
     <g style="fill:#262626;" transform="translate(645.39225 153.495)scale(0.144 -0.144)">
      <defs>
       <path d="M 7.90625 0 
L 7.90625 71.578125 
L 59.671875 71.578125 
L 59.671875 63.140625 
L 17.390625 63.140625 
L 17.390625 41.21875 
L 56.984375 41.21875 
L 56.984375 32.8125 
L 17.390625 32.8125 
L 17.390625 8.453125 
L 61.328125 8.453125 
L 61.328125 0 
z
" id="ArialMT-69"/>
      </defs>
      <use xlink:href="#ArialMT-82"/>
      <use x="72.216797" xlink:href="#ArialMT-70"/>
      <use x="133.300781" xlink:href="#ArialMT-69"/>
     </g>
    </g>
    <g id="line2d_38">
     <path d="M 605.07225 168.82425 
L 633.87225 168.82425 
" style="fill:none;stroke:#8172b3;stroke-dasharray:7.5,1.5,1.5,1.5;stroke-dashoffset:0;stroke-width:1.5;"/>
    </g>
    <g id="line2d_39">
     <defs>
      <path d="M 0 4.242641 
L 2.545584 0 
L 0 -4.242641 
L -2.545584 0 
z
" id="ma37be53465" style="stroke:#8172b3;stroke-linejoin:miter;"/>
     </defs>
     <g>
      <use style="fill:#8172b3;stroke:#8172b3;stroke-linejoin:miter;" x="619.47225" xlink:href="#ma37be53465" y="168.82425"/>
     </g>
    </g>
    <g id="text_25">
     <!-- XGBoost Gain -->
     <g style="fill:#262626;" transform="translate(645.39225 173.86425)scale(0.144 -0.144)">
      <defs>
       <path d="M 0.4375 0 
L 28.125 37.3125 
L 3.71875 71.578125 
L 14.984375 71.578125 
L 27.984375 53.21875 
Q 32.03125 47.515625 33.734375 44.4375 
Q 36.140625 48.34375 39.40625 52.59375 
L 53.8125 71.578125 
L 64.109375 71.578125 
L 38.96875 37.84375 
L 66.0625 0 
L 54.34375 0 
L 36.328125 25.53125 
Q 34.8125 27.734375 33.203125 30.328125 
Q 30.8125 26.421875 29.78125 24.953125 
L 11.8125 0 
z
" id="ArialMT-88"/>
       <path d="M 41.21875 28.078125 
L 41.21875 36.46875 
L 71.53125 36.53125 
L 71.53125 9.96875 
Q 64.546875 4.390625 57.125 1.578125 
Q 49.703125 -1.21875 41.890625 -1.21875 
Q 31.34375 -1.21875 22.71875 3.296875 
Q 14.109375 7.8125 9.71875 16.359375 
Q 5.328125 24.90625 5.328125 35.453125 
Q 5.328125 45.90625 9.6875 54.953125 
Q 14.0625 64.015625 22.265625 68.40625 
Q 30.46875 72.796875 41.15625 72.796875 
Q 48.921875 72.796875 55.1875 70.28125 
Q 61.46875 67.78125 65.03125 63.28125 
Q 68.609375 58.796875 70.453125 51.5625 
L 61.921875 49.21875 
Q 60.296875 54.6875 57.90625 57.8125 
Q 55.515625 60.9375 51.0625 62.8125 
Q 46.625 64.703125 41.21875 64.703125 
Q 34.71875 64.703125 29.984375 62.71875 
Q 25.25 60.75 22.34375 57.515625 
Q 19.4375 54.296875 17.828125 50.4375 
Q 15.09375 43.796875 15.09375 36.03125 
Q 15.09375 26.46875 18.390625 20.015625 
Q 21.6875 13.578125 27.984375 10.453125 
Q 34.28125 7.328125 41.359375 7.328125 
Q 47.515625 7.328125 53.375 9.6875 
Q 59.234375 12.0625 62.25 14.75 
L 62.25 28.078125 
z
" id="ArialMT-71"/>
      </defs>
      <use xlink:href="#ArialMT-88"/>
      <use x="66.699219" xlink:href="#ArialMT-71"/>
      <use x="144.482422" xlink:href="#ArialMT-66"/>
      <use x="211.181641" xlink:href="#ArialMT-111"/>
      <use x="266.796875" xlink:href="#ArialMT-111"/>
      <use x="322.412109" xlink:href="#ArialMT-115"/>
      <use x="372.412109" xlink:href="#ArialMT-116"/>
      <use x="400.195312" xlink:href="#ArialMT-32"/>
      <use x="427.978516" xlink:href="#ArialMT-71"/>
      <use x="505.761719" xlink:href="#ArialMT-97"/>
      <use x="561.376953" xlink:href="#ArialMT-105"/>
      <use x="583.59375" xlink:href="#ArialMT-110"/>
     </g>
    </g>
    <g id="line2d_40">
     <path d="M 605.07225 189.1935 
L 633.87225 189.1935 
" style="fill:none;stroke:#937860;stroke-dasharray:4.5,1.875,1.875,1.875,1.875,1.875;stroke-dashoffset:0;stroke-width:1.5;"/>
    </g>
    <g id="line2d_41">
     <defs>
      <path d="M -1 3 
L 1 3 
L 1 1 
L 3 1 
L 3 -1 
L 1 -1 
L 1 -3 
L -1 -3 
L -1 -1 
L -3 -1 
L -3 1 
L -1 1 
z
" id="m391ebe89ba" style="stroke:#937860;stroke-linejoin:miter;"/>
     </defs>
     <g>
      <use style="fill:#937860;stroke:#937860;stroke-linejoin:miter;" x="619.47225" xlink:href="#m391ebe89ba" y="189.1935"/>
     </g>
    </g>
    <g id="text_26">
     <!-- Ensemble -->
     <g style="fill:#262626;" transform="translate(645.39225 194.2335)scale(0.144 -0.144)">
      <use xlink:href="#ArialMT-69"/>
      <use x="66.699219" xlink:href="#ArialMT-110"/>
      <use x="122.314453" xlink:href="#ArialMT-115"/>
      <use x="172.314453" xlink:href="#ArialMT-101"/>
      <use x="227.929688" xlink:href="#ArialMT-109"/>
      <use x="311.230469" xlink:href="#ArialMT-98"/>
      <use x="366.845703" xlink:href="#ArialMT-108"/>
      <use x="389.0625" xlink:href="#ArialMT-101"/>
     </g>
    </g>
   </g>
  </g>
 </g>
 <defs>
  <clipPath id="padb5f6a30a">
   <rect height="434.88" width="669.6" x="108" y="69.12"/>
  </clipPath>
 </defs>
</svg>
