<?xml version="1.0" encoding="utf-8" standalone="no"?>
<!DOCTYPE svg PUBLIC "-//W3C//DTD SVG 1.1//EN"
  "http://www.w3.org/Graphics/SVG/1.1/DTD/svg11.dtd">
<!-- Created with matplotlib (https://matplotlib.org/) -->
<svg height="576pt" version="1.1" viewBox="0 0 864 576" width="864pt" xmlns="http://www.w3.org/2000/svg" xmlns:xlink="http://www.w3.org/1999/xlink">
 <metadata>
  <rdf:RDF xmlns:cc="http://creativecommons.org/ns#" xmlns:dc="http://purl.org/dc/elements/1.1/" xmlns:rdf="http://www.w3.org/1999/02/22-rdf-syntax-ns#">
   <cc:Work>
    <dc:type rdf:resource="http://purl.org/dc/dcmitype/StillImage"/>
    <dc:date>2021-11-03T17:15:56.031779</dc:date>
    <dc:format>image/svg+xml</dc:format>
    <dc:creator>
     <cc:Agent>
      <dc:title>Matplotlib v3.3.2, https://matplotlib.org/</dc:title>
     </cc:Agent>
    </dc:creator>
   </cc:Work>
  </rdf:RDF>
 </metadata>
 <defs>
  <style type="text/css">*{stroke-linecap:butt;stroke-linejoin:round;}</style>
 </defs>
 <g id="figure_1">
  <g id="patch_1">
   <path d="M 0 576 
L 864 576 
L 864 0 
L 0 0 
z
" style="fill:#ffffff;"/>
  </g>
  <g id="axes_1">
   <g id="patch_2">
    <path d="M 108 504 
L 777.6 504 
L 777.6 69.12 
L 108 69.12 
z
" style="fill:#ffffff;"/>
   </g>
   <g id="matplotlib.axis_1">
    <g id="xtick_1">
     <g id="line2d_1">
      <path clip-path="url(#pc1a5615959)" d="M 108 504 
L 108 69.12 
" style="fill:none;stroke:#cccccc;stroke-linecap:round;"/>
     </g>
     <g id="text_1">
      <!-- 0 -->
      <g style="fill:#262626;" transform="translate(104.941484 521.373594)scale(0.11 -0.11)">
       <defs>
        <path d="M 4.15625 35.296875 
Q 4.15625 48 6.765625 55.734375 
Q 9.375 63.484375 14.515625 67.671875 
Q 19.671875 71.875 27.484375 71.875 
Q 33.25 71.875 37.59375 69.546875 
Q 41.9375 67.234375 44.765625 62.859375 
Q 47.609375 58.5 49.21875 52.21875 
Q 50.828125 45.953125 50.828125 35.296875 
Q 50.828125 22.703125 48.234375 14.96875 
Q 45.65625 7.234375 40.5 3 
Q 35.359375 -1.21875 27.484375 -1.21875 
Q 17.140625 -1.21875 11.234375 6.203125 
Q 4.15625 15.140625 4.15625 35.296875 
z
M 13.1875 35.296875 
Q 13.1875 17.671875 17.3125 11.828125 
Q 21.4375 6 27.484375 6 
Q 33.546875 6 37.671875 11.859375 
Q 41.796875 17.71875 41.796875 35.296875 
Q 41.796875 52.984375 37.671875 58.78125 
Q 33.546875 64.59375 27.390625 64.59375 
Q 21.34375 64.59375 17.71875 59.46875 
Q 13.1875 52.9375 13.1875 35.296875 
z
" id="ArialMT-48"/>
       </defs>
       <use xlink:href="#ArialMT-48"/>
      </g>
     </g>
    </g>
    <g id="xtick_2">
     <g id="line2d_2">
      <path clip-path="url(#pc1a5615959)" d="M 187.809297 504 
L 187.809297 69.12 
" style="fill:none;stroke:#cccccc;stroke-linecap:round;"/>
     </g>
     <g id="text_2">
      <!-- 5 -->
      <g style="fill:#262626;" transform="translate(184.750781 521.373594)scale(0.11 -0.11)">
       <defs>
        <path d="M 4.15625 18.75 
L 13.375 19.53125 
Q 14.40625 12.796875 18.140625 9.390625 
Q 21.875 6 27.15625 6 
Q 33.5 6 37.890625 10.78125 
Q 42.28125 15.578125 42.28125 23.484375 
Q 42.28125 31 38.0625 35.34375 
Q 33.84375 39.703125 27 39.703125 
Q 22.75 39.703125 19.328125 37.765625 
Q 15.921875 35.84375 13.96875 32.765625 
L 5.71875 33.84375 
L 12.640625 70.609375 
L 48.25 70.609375 
L 48.25 62.203125 
L 19.671875 62.203125 
L 15.828125 42.96875 
Q 22.265625 47.46875 29.34375 47.46875 
Q 38.71875 47.46875 45.15625 40.96875 
Q 51.609375 34.46875 51.609375 24.265625 
Q 51.609375 14.546875 45.953125 7.46875 
Q 39.0625 -1.21875 27.15625 -1.21875 
Q 17.390625 -1.21875 11.203125 4.25 
Q 5.03125 9.71875 4.15625 18.75 
z
" id="ArialMT-53"/>
       </defs>
       <use xlink:href="#ArialMT-53"/>
      </g>
     </g>
    </g>
    <g id="xtick_3">
     <g id="line2d_3">
      <path clip-path="url(#pc1a5615959)" d="M 267.618594 504 
L 267.618594 69.12 
" style="fill:none;stroke:#cccccc;stroke-linecap:round;"/>
     </g>
     <g id="text_3">
      <!-- 10 -->
      <g style="fill:#262626;" transform="translate(261.501562 521.373594)scale(0.11 -0.11)">
       <defs>
        <path d="M 37.25 0 
L 28.46875 0 
L 28.46875 56 
Q 25.296875 52.984375 20.140625 49.953125 
Q 14.984375 46.921875 10.890625 45.40625 
L 10.890625 53.90625 
Q 18.265625 57.375 23.78125 62.296875 
Q 29.296875 67.234375 31.59375 71.875 
L 37.25 71.875 
z
" id="ArialMT-49"/>
       </defs>
       <use xlink:href="#ArialMT-49"/>
       <use x="55.615234" xlink:href="#ArialMT-48"/>
      </g>
     </g>
    </g>
    <g id="xtick_4">
     <g id="line2d_4">
      <path clip-path="url(#pc1a5615959)" d="M 347.42789 504 
L 347.42789 69.12 
" style="fill:none;stroke:#cccccc;stroke-linecap:round;"/>
     </g>
     <g id="text_4">
      <!-- 15 -->
      <g style="fill:#262626;" transform="translate(341.310859 521.373594)scale(0.11 -0.11)">
       <use xlink:href="#ArialMT-49"/>
       <use x="55.615234" xlink:href="#ArialMT-53"/>
      </g>
     </g>
    </g>
    <g id="xtick_5">
     <g id="line2d_5">
      <path clip-path="url(#pc1a5615959)" d="M 427.237187 504 
L 427.237187 69.12 
" style="fill:none;stroke:#cccccc;stroke-linecap:round;"/>
     </g>
     <g id="text_5">
      <!-- 20 -->
      <g style="fill:#262626;" transform="translate(421.120156 521.373594)scale(0.11 -0.11)">
       <defs>
        <path d="M 50.34375 8.453125 
L 50.34375 0 
L 3.03125 0 
Q 2.9375 3.171875 4.046875 6.109375 
Q 5.859375 10.9375 9.828125 15.625 
Q 13.8125 20.3125 21.34375 26.46875 
Q 33.015625 36.03125 37.109375 41.625 
Q 41.21875 47.21875 41.21875 52.203125 
Q 41.21875 57.421875 37.46875 61 
Q 33.734375 64.59375 27.734375 64.59375 
Q 21.390625 64.59375 17.578125 60.78125 
Q 13.765625 56.984375 13.71875 50.25 
L 4.6875 51.171875 
Q 5.609375 61.28125 11.65625 66.578125 
Q 17.71875 71.875 27.9375 71.875 
Q 38.234375 71.875 44.234375 66.15625 
Q 50.25 60.453125 50.25 52 
Q 50.25 47.703125 48.484375 43.546875 
Q 46.734375 39.40625 42.65625 34.8125 
Q 38.578125 30.21875 29.109375 22.21875 
Q 21.1875 15.578125 18.9375 13.203125 
Q 16.703125 10.84375 15.234375 8.453125 
z
" id="ArialMT-50"/>
       </defs>
       <use xlink:href="#ArialMT-50"/>
       <use x="55.615234" xlink:href="#ArialMT-48"/>
      </g>
     </g>
    </g>
    <g id="xtick_6">
     <g id="line2d_6">
      <path clip-path="url(#pc1a5615959)" d="M 507.046484 504 
L 507.046484 69.12 
" style="fill:none;stroke:#cccccc;stroke-linecap:round;"/>
     </g>
     <g id="text_6">
      <!-- 25 -->
      <g style="fill:#262626;" transform="translate(500.929453 521.373594)scale(0.11 -0.11)">
       <use xlink:href="#ArialMT-50"/>
       <use x="55.615234" xlink:href="#ArialMT-53"/>
      </g>
     </g>
    </g>
    <g id="xtick_7">
     <g id="line2d_7">
      <path clip-path="url(#pc1a5615959)" d="M 586.855781 504 
L 586.855781 69.12 
" style="fill:none;stroke:#cccccc;stroke-linecap:round;"/>
     </g>
     <g id="text_7">
      <!-- 30 -->
      <g style="fill:#262626;" transform="translate(580.738749 521.373594)scale(0.11 -0.11)">
       <defs>
        <path d="M 4.203125 18.890625 
L 12.984375 20.0625 
Q 14.5 12.59375 18.140625 9.296875 
Q 21.78125 6 27 6 
Q 33.203125 6 37.46875 10.296875 
Q 41.75 14.59375 41.75 20.953125 
Q 41.75 27 37.796875 30.921875 
Q 33.84375 34.859375 27.734375 34.859375 
Q 25.25 34.859375 21.53125 33.890625 
L 22.515625 41.609375 
Q 23.390625 41.5 23.921875 41.5 
Q 29.546875 41.5 34.03125 44.421875 
Q 38.53125 47.359375 38.53125 53.46875 
Q 38.53125 58.296875 35.25 61.46875 
Q 31.984375 64.65625 26.8125 64.65625 
Q 21.6875 64.65625 18.265625 61.421875 
Q 14.84375 58.203125 13.875 51.765625 
L 5.078125 53.328125 
Q 6.6875 62.15625 12.390625 67.015625 
Q 18.109375 71.875 26.609375 71.875 
Q 32.46875 71.875 37.390625 69.359375 
Q 42.328125 66.84375 44.9375 62.5 
Q 47.5625 58.15625 47.5625 53.265625 
Q 47.5625 48.640625 45.0625 44.828125 
Q 42.578125 41.015625 37.703125 38.765625 
Q 44.046875 37.3125 47.5625 32.6875 
Q 51.078125 28.078125 51.078125 21.140625 
Q 51.078125 11.765625 44.234375 5.25 
Q 37.40625 -1.265625 26.953125 -1.265625 
Q 17.53125 -1.265625 11.296875 4.34375 
Q 5.078125 9.96875 4.203125 18.890625 
z
" id="ArialMT-51"/>
       </defs>
       <use xlink:href="#ArialMT-51"/>
       <use x="55.615234" xlink:href="#ArialMT-48"/>
      </g>
     </g>
    </g>
    <g id="xtick_8">
     <g id="line2d_8">
      <path clip-path="url(#pc1a5615959)" d="M 666.665077 504 
L 666.665077 69.12 
" style="fill:none;stroke:#cccccc;stroke-linecap:round;"/>
     </g>
     <g id="text_8">
      <!-- 35 -->
      <g style="fill:#262626;" transform="translate(660.548046 521.373594)scale(0.11 -0.11)">
       <use xlink:href="#ArialMT-51"/>
       <use x="55.615234" xlink:href="#ArialMT-53"/>
      </g>
     </g>
    </g>
    <g id="xtick_9">
     <g id="line2d_9">
      <path clip-path="url(#pc1a5615959)" d="M 746.474374 504 
L 746.474374 69.12 
" style="fill:none;stroke:#cccccc;stroke-linecap:round;"/>
     </g>
     <g id="text_9">
      <!-- 40 -->
      <g style="fill:#262626;" transform="translate(740.357343 521.373594)scale(0.11 -0.11)">
       <defs>
        <path d="M 32.328125 0 
L 32.328125 17.140625 
L 1.265625 17.140625 
L 1.265625 25.203125 
L 33.9375 71.578125 
L 41.109375 71.578125 
L 41.109375 25.203125 
L 50.78125 25.203125 
L 50.78125 17.140625 
L 41.109375 17.140625 
L 41.109375 0 
z
M 32.328125 25.203125 
L 32.328125 57.46875 
L 9.90625 25.203125 
z
" id="ArialMT-52"/>
       </defs>
       <use xlink:href="#ArialMT-52"/>
       <use x="55.615234" xlink:href="#ArialMT-48"/>
      </g>
     </g>
    </g>
    <g id="text_10">
     <!-- Number of Features -->
     <g style="fill:#262626;" transform="translate(371.665 543.012344)scale(0.16 -0.16)">
      <defs>
       <path d="M 7.625 0 
L 7.625 71.578125 
L 17.328125 71.578125 
L 54.9375 15.375 
L 54.9375 71.578125 
L 64.015625 71.578125 
L 64.015625 0 
L 54.296875 0 
L 16.703125 56.25 
L 16.703125 0 
z
" id="ArialMT-78"/>
       <path d="M 40.578125 0 
L 40.578125 7.625 
Q 34.515625 -1.171875 24.125 -1.171875 
Q 19.53125 -1.171875 15.546875 0.578125 
Q 11.578125 2.34375 9.640625 5 
Q 7.71875 7.671875 6.9375 11.53125 
Q 6.390625 14.109375 6.390625 19.734375 
L 6.390625 51.859375 
L 15.1875 51.859375 
L 15.1875 23.09375 
Q 15.1875 16.21875 15.71875 13.8125 
Q 16.546875 10.359375 19.234375 8.375 
Q 21.921875 6.390625 25.875 6.390625 
Q 29.828125 6.390625 33.296875 8.421875 
Q 36.765625 10.453125 38.203125 13.9375 
Q 39.65625 17.4375 39.65625 24.078125 
L 39.65625 51.859375 
L 48.4375 51.859375 
L 48.4375 0 
z
" id="ArialMT-117"/>
       <path d="M 6.59375 0 
L 6.59375 51.859375 
L 14.453125 51.859375 
L 14.453125 44.578125 
Q 16.890625 48.390625 20.9375 50.703125 
Q 25 53.03125 30.171875 53.03125 
Q 35.9375 53.03125 39.625 50.640625 
Q 43.3125 48.25 44.828125 43.953125 
Q 50.984375 53.03125 60.84375 53.03125 
Q 68.5625 53.03125 72.703125 48.75 
Q 76.859375 44.484375 76.859375 35.59375 
L 76.859375 0 
L 68.109375 0 
L 68.109375 32.671875 
Q 68.109375 37.9375 67.25 40.25 
Q 66.40625 42.578125 64.15625 43.984375 
Q 61.921875 45.40625 58.890625 45.40625 
Q 53.421875 45.40625 49.796875 41.765625 
Q 46.1875 38.140625 46.1875 30.125 
L 46.1875 0 
L 37.40625 0 
L 37.40625 33.6875 
Q 37.40625 39.546875 35.25 42.46875 
Q 33.109375 45.40625 28.21875 45.40625 
Q 24.515625 45.40625 21.359375 43.453125 
Q 18.21875 41.5 16.796875 37.734375 
Q 15.375 33.984375 15.375 26.90625 
L 15.375 0 
z
" id="ArialMT-109"/>
       <path d="M 14.703125 0 
L 6.546875 0 
L 6.546875 71.578125 
L 15.328125 71.578125 
L 15.328125 46.046875 
Q 20.90625 53.03125 29.546875 53.03125 
Q 34.328125 53.03125 38.59375 51.09375 
Q 42.875 49.171875 45.625 45.671875 
Q 48.390625 42.1875 49.953125 37.25 
Q 51.515625 32.328125 51.515625 26.703125 
Q 51.515625 13.375 44.921875 6.09375 
Q 38.328125 -1.171875 29.109375 -1.171875 
Q 19.921875 -1.171875 14.703125 6.5 
z
M 14.59375 26.3125 
Q 14.59375 17 17.140625 12.84375 
Q 21.296875 6.0625 28.375 6.0625 
Q 34.125 6.0625 38.328125 11.0625 
Q 42.53125 16.0625 42.53125 25.984375 
Q 42.53125 36.140625 38.5 40.96875 
Q 34.46875 45.796875 28.765625 45.796875 
Q 23 45.796875 18.796875 40.796875 
Q 14.59375 35.796875 14.59375 26.3125 
z
" id="ArialMT-98"/>
       <path d="M 42.09375 16.703125 
L 51.171875 15.578125 
Q 49.03125 7.625 43.21875 3.21875 
Q 37.40625 -1.171875 28.375 -1.171875 
Q 17 -1.171875 10.328125 5.828125 
Q 3.65625 12.84375 3.65625 25.484375 
Q 3.65625 38.578125 10.390625 45.796875 
Q 17.140625 53.03125 27.875 53.03125 
Q 38.28125 53.03125 44.875 45.953125 
Q 51.46875 38.875 51.46875 26.03125 
Q 51.46875 25.25 51.421875 23.6875 
L 12.75 23.6875 
Q 13.234375 15.140625 17.578125 10.59375 
Q 21.921875 6.0625 28.421875 6.0625 
Q 33.25 6.0625 36.671875 8.59375 
Q 40.09375 11.140625 42.09375 16.703125 
z
M 13.234375 30.90625 
L 42.1875 30.90625 
Q 41.609375 37.453125 38.875 40.71875 
Q 34.671875 45.796875 27.984375 45.796875 
Q 21.921875 45.796875 17.796875 41.75 
Q 13.671875 37.703125 13.234375 30.90625 
z
" id="ArialMT-101"/>
       <path d="M 6.5 0 
L 6.5 51.859375 
L 14.40625 51.859375 
L 14.40625 44 
Q 17.4375 49.515625 20 51.265625 
Q 22.5625 53.03125 25.640625 53.03125 
Q 30.078125 53.03125 34.671875 50.203125 
L 31.640625 42.046875 
Q 28.421875 43.953125 25.203125 43.953125 
Q 22.3125 43.953125 20.015625 42.21875 
Q 17.71875 40.484375 16.75 37.40625 
Q 15.28125 32.71875 15.28125 27.15625 
L 15.28125 0 
z
" id="ArialMT-114"/>
       <path id="ArialMT-32"/>
       <path d="M 3.328125 25.921875 
Q 3.328125 40.328125 11.328125 47.265625 
Q 18.015625 53.03125 27.640625 53.03125 
Q 38.328125 53.03125 45.109375 46.015625 
Q 51.90625 39.015625 51.90625 26.65625 
Q 51.90625 16.65625 48.90625 10.90625 
Q 45.90625 5.171875 40.15625 2 
Q 34.421875 -1.171875 27.640625 -1.171875 
Q 16.75 -1.171875 10.03125 5.8125 
Q 3.328125 12.796875 3.328125 25.921875 
z
M 12.359375 25.921875 
Q 12.359375 15.96875 16.703125 11.015625 
Q 21.046875 6.0625 27.640625 6.0625 
Q 34.1875 6.0625 38.53125 11.03125 
Q 42.875 16.015625 42.875 26.21875 
Q 42.875 35.84375 38.5 40.796875 
Q 34.125 45.75 27.640625 45.75 
Q 21.046875 45.75 16.703125 40.8125 
Q 12.359375 35.890625 12.359375 25.921875 
z
" id="ArialMT-111"/>
       <path d="M 8.6875 0 
L 8.6875 45.015625 
L 0.921875 45.015625 
L 0.921875 51.859375 
L 8.6875 51.859375 
L 8.6875 57.375 
Q 8.6875 62.59375 9.625 65.140625 
Q 10.890625 68.5625 14.078125 70.671875 
Q 17.28125 72.796875 23.046875 72.796875 
Q 26.765625 72.796875 31.25 71.921875 
L 29.9375 64.265625 
Q 27.203125 64.75 24.75 64.75 
Q 20.75 64.75 19.09375 63.03125 
Q 17.4375 61.328125 17.4375 56.640625 
L 17.4375 51.859375 
L 27.546875 51.859375 
L 27.546875 45.015625 
L 17.4375 45.015625 
L 17.4375 0 
z
" id="ArialMT-102"/>
       <path d="M 8.203125 0 
L 8.203125 71.578125 
L 56.5 71.578125 
L 56.5 63.140625 
L 17.671875 63.140625 
L 17.671875 40.96875 
L 51.265625 40.96875 
L 51.265625 32.515625 
L 17.671875 32.515625 
L 17.671875 0 
z
" id="ArialMT-70"/>
       <path d="M 40.4375 6.390625 
Q 35.546875 2.25 31.03125 0.53125 
Q 26.515625 -1.171875 21.34375 -1.171875 
Q 12.796875 -1.171875 8.203125 3 
Q 3.609375 7.171875 3.609375 13.671875 
Q 3.609375 17.484375 5.34375 20.625 
Q 7.078125 23.78125 9.890625 25.6875 
Q 12.703125 27.59375 16.21875 28.5625 
Q 18.796875 29.25 24.03125 29.890625 
Q 34.671875 31.15625 39.703125 32.90625 
Q 39.75 34.71875 39.75 35.203125 
Q 39.75 40.578125 37.25 42.78125 
Q 33.890625 45.75 27.25 45.75 
Q 21.046875 45.75 18.09375 43.578125 
Q 15.140625 41.40625 13.71875 35.890625 
L 5.125 37.0625 
Q 6.296875 42.578125 8.984375 45.96875 
Q 11.671875 49.359375 16.75 51.1875 
Q 21.828125 53.03125 28.515625 53.03125 
Q 35.15625 53.03125 39.296875 51.46875 
Q 43.453125 49.90625 45.40625 47.53125 
Q 47.359375 45.171875 48.140625 41.546875 
Q 48.578125 39.3125 48.578125 33.453125 
L 48.578125 21.734375 
Q 48.578125 9.46875 49.140625 6.21875 
Q 49.703125 2.984375 51.375 0 
L 42.1875 0 
Q 40.828125 2.734375 40.4375 6.390625 
z
M 39.703125 26.03125 
Q 34.90625 24.078125 25.34375 22.703125 
Q 19.921875 21.921875 17.671875 20.9375 
Q 15.4375 19.96875 14.203125 18.09375 
Q 12.984375 16.21875 12.984375 13.921875 
Q 12.984375 10.40625 15.640625 8.0625 
Q 18.3125 5.71875 23.4375 5.71875 
Q 28.515625 5.71875 32.46875 7.9375 
Q 36.421875 10.15625 38.28125 14.015625 
Q 39.703125 17 39.703125 22.796875 
z
" id="ArialMT-97"/>
       <path d="M 25.78125 7.859375 
L 27.046875 0.09375 
Q 23.34375 -0.6875 20.40625 -0.6875 
Q 15.625 -0.6875 12.984375 0.828125 
Q 10.359375 2.34375 9.28125 4.8125 
Q 8.203125 7.28125 8.203125 15.1875 
L 8.203125 45.015625 
L 1.765625 45.015625 
L 1.765625 51.859375 
L 8.203125 51.859375 
L 8.203125 64.703125 
L 16.9375 69.96875 
L 16.9375 51.859375 
L 25.78125 51.859375 
L 25.78125 45.015625 
L 16.9375 45.015625 
L 16.9375 14.703125 
Q 16.9375 10.9375 17.40625 9.859375 
Q 17.875 8.796875 18.921875 8.15625 
Q 19.96875 7.515625 21.921875 7.515625 
Q 23.390625 7.515625 25.78125 7.859375 
z
" id="ArialMT-116"/>
       <path d="M 3.078125 15.484375 
L 11.765625 16.84375 
Q 12.5 11.625 15.84375 8.84375 
Q 19.1875 6.0625 25.203125 6.0625 
Q 31.25 6.0625 34.171875 8.515625 
Q 37.109375 10.984375 37.109375 14.3125 
Q 37.109375 17.28125 34.515625 19 
Q 32.71875 20.171875 25.53125 21.96875 
Q 15.875 24.421875 12.140625 26.203125 
Q 8.40625 27.984375 6.46875 31.125 
Q 4.546875 34.28125 4.546875 38.09375 
Q 4.546875 41.546875 6.125 44.5 
Q 7.71875 47.46875 10.453125 49.421875 
Q 12.5 50.921875 16.03125 51.96875 
Q 19.578125 53.03125 23.640625 53.03125 
Q 29.734375 53.03125 34.34375 51.265625 
Q 38.96875 49.515625 41.15625 46.5 
Q 43.359375 43.5 44.1875 38.484375 
L 35.59375 37.3125 
Q 35.015625 41.3125 32.203125 43.546875 
Q 29.390625 45.796875 24.265625 45.796875 
Q 18.21875 45.796875 15.625 43.796875 
Q 13.03125 41.796875 13.03125 39.109375 
Q 13.03125 37.40625 14.109375 36.03125 
Q 15.1875 34.625 17.484375 33.6875 
Q 18.796875 33.203125 25.25 31.453125 
Q 34.578125 28.953125 38.25 27.359375 
Q 41.9375 25.78125 44.03125 22.75 
Q 46.140625 19.734375 46.140625 15.234375 
Q 46.140625 10.84375 43.578125 6.953125 
Q 41.015625 3.078125 36.171875 0.953125 
Q 31.34375 -1.171875 25.25 -1.171875 
Q 15.140625 -1.171875 9.84375 3.03125 
Q 4.546875 7.234375 3.078125 15.484375 
z
" id="ArialMT-115"/>
      </defs>
      <use xlink:href="#ArialMT-78"/>
      <use x="72.216797" xlink:href="#ArialMT-117"/>
      <use x="127.832031" xlink:href="#ArialMT-109"/>
      <use x="211.132812" xlink:href="#ArialMT-98"/>
      <use x="266.748047" xlink:href="#ArialMT-101"/>
      <use x="322.363281" xlink:href="#ArialMT-114"/>
      <use x="355.664062" xlink:href="#ArialMT-32"/>
      <use x="383.447266" xlink:href="#ArialMT-111"/>
      <use x="439.0625" xlink:href="#ArialMT-102"/>
      <use x="466.845703" xlink:href="#ArialMT-32"/>
      <use x="494.628906" xlink:href="#ArialMT-70"/>
      <use x="555.712891" xlink:href="#ArialMT-101"/>
      <use x="611.328125" xlink:href="#ArialMT-97"/>
      <use x="666.943359" xlink:href="#ArialMT-116"/>
      <use x="694.726562" xlink:href="#ArialMT-117"/>
      <use x="750.341797" xlink:href="#ArialMT-114"/>
      <use x="783.642578" xlink:href="#ArialMT-101"/>
      <use x="839.257812" xlink:href="#ArialMT-115"/>
     </g>
    </g>
   </g>
   <g id="matplotlib.axis_2">
    <g id="ytick_1">
     <g id="line2d_10">
      <path clip-path="url(#pc1a5615959)" d="M 108 464.931804 
L 777.6 464.931804 
" style="fill:none;stroke:#cccccc;stroke-linecap:round;"/>
     </g>
     <g id="text_11">
      <!-- $\mathdefault{10^{-1}}$ -->
      <g style="fill:#262626;" transform="translate(76.72 470.603679)scale(0.11 -0.11)">
       <defs>
        <path d="M 52.828125 31.203125 
L 5.5625 31.203125 
L 5.5625 39.40625 
L 52.828125 39.40625 
z
" id="ArialMT-8722"/>
       </defs>
       <use transform="translate(0 0.99375)" xlink:href="#ArialMT-49"/>
       <use transform="translate(55.615234 0.99375)" xlink:href="#ArialMT-48"/>
       <use transform="translate(112.972813 70.6875)scale(0.7)" xlink:href="#ArialMT-8722"/>
       <use transform="translate(153.851719 70.6875)scale(0.7)" xlink:href="#ArialMT-49"/>
      </g>
     </g>
    </g>
    <g id="ytick_2">
     <g id="line2d_11">
      <path clip-path="url(#pc1a5615959)" d="M 108 261.96578 
L 777.6 261.96578 
" style="fill:none;stroke:#cccccc;stroke-linecap:round;"/>
     </g>
     <g id="text_12">
      <!-- $\mathdefault{10^{0}}$ -->
      <g style="fill:#262626;" transform="translate(81.23 267.637655)scale(0.11 -0.11)">
       <use transform="translate(0 0.99375)" xlink:href="#ArialMT-49"/>
       <use transform="translate(55.615234 0.99375)" xlink:href="#ArialMT-48"/>
       <use transform="translate(112.972813 70.6875)scale(0.7)" xlink:href="#ArialMT-48"/>
      </g>
     </g>
    </g>
    <g id="ytick_3"/>
    <g id="ytick_4"/>
    <g id="ytick_5"/>
    <g id="ytick_6"/>
    <g id="ytick_7"/>
    <g id="ytick_8"/>
    <g id="ytick_9"/>
    <g id="ytick_10"/>
    <g id="ytick_11"/>
    <g id="ytick_12"/>
    <g id="ytick_13"/>
    <g id="ytick_14"/>
    <g id="ytick_15"/>
    <g id="ytick_16"/>
    <g id="ytick_17"/>
    <g id="ytick_18"/>
    <g id="ytick_19"/>
    <g id="ytick_20"/>
    <g id="text_13">
     <!-- F1_Score/Fit Time -->
     <g style="fill:#262626;" transform="translate(65.54 351.90875)rotate(-90)scale(0.16 -0.16)">
      <defs>
       <path d="M -1.515625 -19.875 
L -1.515625 -13.53125 
L 56.734375 -13.53125 
L 56.734375 -19.875 
z
" id="ArialMT-95"/>
       <path d="M 4.5 23 
L 13.421875 23.78125 
Q 14.0625 18.40625 16.375 14.96875 
Q 18.703125 11.53125 23.578125 9.40625 
Q 28.46875 7.28125 34.578125 7.28125 
Q 39.984375 7.28125 44.140625 8.890625 
Q 48.296875 10.5 50.3125 13.296875 
Q 52.34375 16.109375 52.34375 19.4375 
Q 52.34375 22.796875 50.390625 25.3125 
Q 48.4375 27.828125 43.953125 29.546875 
Q 41.0625 30.671875 31.203125 33.03125 
Q 21.34375 35.40625 17.390625 37.5 
Q 12.25 40.1875 9.734375 44.15625 
Q 7.234375 48.140625 7.234375 53.078125 
Q 7.234375 58.5 10.296875 63.203125 
Q 13.375 67.921875 19.28125 70.359375 
Q 25.203125 72.796875 32.421875 72.796875 
Q 40.375 72.796875 46.453125 70.234375 
Q 52.546875 67.671875 55.8125 62.6875 
Q 59.078125 57.71875 59.328125 51.421875 
L 50.25 50.734375 
Q 49.515625 57.515625 45.28125 60.984375 
Q 41.0625 64.453125 32.8125 64.453125 
Q 24.21875 64.453125 20.28125 61.296875 
Q 16.359375 58.15625 16.359375 53.71875 
Q 16.359375 49.859375 19.140625 47.359375 
Q 21.875 44.875 33.421875 42.265625 
Q 44.96875 39.65625 49.265625 37.703125 
Q 55.515625 34.8125 58.484375 30.390625 
Q 61.46875 25.984375 61.46875 20.21875 
Q 61.46875 14.5 58.203125 9.4375 
Q 54.9375 4.390625 48.796875 1.578125 
Q 42.671875 -1.21875 35.015625 -1.21875 
Q 25.296875 -1.21875 18.71875 1.609375 
Q 12.15625 4.4375 8.421875 10.125 
Q 4.6875 15.828125 4.5 23 
z
" id="ArialMT-83"/>
       <path d="M 40.4375 19 
L 49.078125 17.875 
Q 47.65625 8.9375 41.8125 3.875 
Q 35.984375 -1.171875 27.484375 -1.171875 
Q 16.84375 -1.171875 10.375 5.78125 
Q 3.90625 12.75 3.90625 25.734375 
Q 3.90625 34.125 6.6875 40.421875 
Q 9.46875 46.734375 15.15625 49.875 
Q 20.84375 53.03125 27.546875 53.03125 
Q 35.984375 53.03125 41.359375 48.75 
Q 46.734375 44.484375 48.25 36.625 
L 39.703125 35.296875 
Q 38.484375 40.53125 35.375 43.15625 
Q 32.28125 45.796875 27.875 45.796875 
Q 21.234375 45.796875 17.078125 41.03125 
Q 12.9375 36.28125 12.9375 25.984375 
Q 12.9375 15.53125 16.9375 10.796875 
Q 20.953125 6.0625 27.390625 6.0625 
Q 32.5625 6.0625 36.03125 9.234375 
Q 39.5 12.40625 40.4375 19 
z
" id="ArialMT-99"/>
       <path d="M 0 -1.21875 
L 20.75 72.796875 
L 27.78125 72.796875 
L 7.078125 -1.21875 
z
" id="ArialMT-47"/>
       <path d="M 6.640625 61.46875 
L 6.640625 71.578125 
L 15.4375 71.578125 
L 15.4375 61.46875 
z
M 6.640625 0 
L 6.640625 51.859375 
L 15.4375 51.859375 
L 15.4375 0 
z
" id="ArialMT-105"/>
       <path d="M 25.921875 0 
L 25.921875 63.140625 
L 2.34375 63.140625 
L 2.34375 71.578125 
L 59.078125 71.578125 
L 59.078125 63.140625 
L 35.40625 63.140625 
L 35.40625 0 
z
" id="ArialMT-84"/>
      </defs>
      <use xlink:href="#ArialMT-70"/>
      <use x="61.083984" xlink:href="#ArialMT-49"/>
      <use x="116.699219" xlink:href="#ArialMT-95"/>
      <use x="172.314453" xlink:href="#ArialMT-83"/>
      <use x="239.013672" xlink:href="#ArialMT-99"/>
      <use x="289.013672" xlink:href="#ArialMT-111"/>
      <use x="344.628906" xlink:href="#ArialMT-114"/>
      <use x="377.929688" xlink:href="#ArialMT-101"/>
      <use x="433.544922" xlink:href="#ArialMT-47"/>
      <use x="461.328125" xlink:href="#ArialMT-70"/>
      <use x="522.412109" xlink:href="#ArialMT-105"/>
      <use x="544.628906" xlink:href="#ArialMT-116"/>
      <use x="572.412109" xlink:href="#ArialMT-32"/>
      <use x="598.445312" xlink:href="#ArialMT-84"/>
      <use x="655.779297" xlink:href="#ArialMT-105"/>
      <use x="677.996094" xlink:href="#ArialMT-109"/>
      <use x="761.296875" xlink:href="#ArialMT-101"/>
     </g>
    </g>
   </g>
   <g id="line2d_12">
    <path clip-path="url(#pc1a5615959)" d="M 123.961859 328.197036 
L 139.923719 319.2147 
L 155.885578 306.922071 
L 171.847437 309.941069 
L 187.809297 306.981137 
L 203.771156 305.190827 
L 219.733015 306.66314 
L 235.694875 311.522847 
L 251.656734 307.571681 
L 267.618594 307.503324 
L 283.580453 311.477613 
L 299.542312 307.582138 
L 315.504172 308.31474 
L 331.466031 311.140136 
L 347.42789 308.325145 
L 363.38975 307.760668 
L 379.351609 310.53756 
L 395.313468 309.530863 
L 411.275328 309.330189 
L 427.237187 314.540663 
L 443.199046 310.801389 
L 459.160906 308.512552 
L 475.122765 312.103819 
L 491.084625 309.25804 
L 507.046484 308.220892 
L 523.008343 310.666017 
L 538.970203 314.211977 
L 554.932062 320.830335 
L 570.893921 319.311489 
L 586.855781 327.238929 
L 602.81764 317.079806 
L 618.779499 314.387287 
L 634.741359 313.019393 
L 650.703218 315.1092 
L 666.665077 312.055627 
L 682.626937 314.50396 
L 698.588796 314.766914 
L 714.550656 314.426163 
L 730.512515 314.197345 
L 746.474374 313.943461 
" style="fill:none;stroke:#4c72b0;stroke-linecap:round;stroke-width:1.5;"/>
    <defs>
     <path d="M -0 3 
L 3 -3 
L -3 -3 
z
" id="m764335fc87" style="stroke:#ffffff;stroke-linejoin:miter;stroke-width:0.75;"/>
    </defs>
    <g clip-path="url(#pc1a5615959)">
     <use style="fill:#4c72b0;stroke:#ffffff;stroke-linejoin:miter;stroke-width:0.75;" x="123.961859" xlink:href="#m764335fc87" y="328.197036"/>
     <use style="fill:#4c72b0;stroke:#ffffff;stroke-linejoin:miter;stroke-width:0.75;" x="139.923719" xlink:href="#m764335fc87" y="319.2147"/>
     <use style="fill:#4c72b0;stroke:#ffffff;stroke-linejoin:miter;stroke-width:0.75;" x="155.885578" xlink:href="#m764335fc87" y="306.922071"/>
     <use style="fill:#4c72b0;stroke:#ffffff;stroke-linejoin:miter;stroke-width:0.75;" x="171.847437" xlink:href="#m764335fc87" y="309.941069"/>
     <use style="fill:#4c72b0;stroke:#ffffff;stroke-linejoin:miter;stroke-width:0.75;" x="187.809297" xlink:href="#m764335fc87" y="306.981137"/>
     <use style="fill:#4c72b0;stroke:#ffffff;stroke-linejoin:miter;stroke-width:0.75;" x="203.771156" xlink:href="#m764335fc87" y="305.190827"/>
     <use style="fill:#4c72b0;stroke:#ffffff;stroke-linejoin:miter;stroke-width:0.75;" x="219.733015" xlink:href="#m764335fc87" y="306.66314"/>
     <use style="fill:#4c72b0;stroke:#ffffff;stroke-linejoin:miter;stroke-width:0.75;" x="235.694875" xlink:href="#m764335fc87" y="311.522847"/>
     <use style="fill:#4c72b0;stroke:#ffffff;stroke-linejoin:miter;stroke-width:0.75;" x="251.656734" xlink:href="#m764335fc87" y="307.571681"/>
     <use style="fill:#4c72b0;stroke:#ffffff;stroke-linejoin:miter;stroke-width:0.75;" x="267.618594" xlink:href="#m764335fc87" y="307.503324"/>
     <use style="fill:#4c72b0;stroke:#ffffff;stroke-linejoin:miter;stroke-width:0.75;" x="283.580453" xlink:href="#m764335fc87" y="311.477613"/>
     <use style="fill:#4c72b0;stroke:#ffffff;stroke-linejoin:miter;stroke-width:0.75;" x="299.542312" xlink:href="#m764335fc87" y="307.582138"/>
     <use style="fill:#4c72b0;stroke:#ffffff;stroke-linejoin:miter;stroke-width:0.75;" x="315.504172" xlink:href="#m764335fc87" y="308.31474"/>
     <use style="fill:#4c72b0;stroke:#ffffff;stroke-linejoin:miter;stroke-width:0.75;" x="331.466031" xlink:href="#m764335fc87" y="311.140136"/>
     <use style="fill:#4c72b0;stroke:#ffffff;stroke-linejoin:miter;stroke-width:0.75;" x="347.42789" xlink:href="#m764335fc87" y="308.325145"/>
     <use style="fill:#4c72b0;stroke:#ffffff;stroke-linejoin:miter;stroke-width:0.75;" x="363.38975" xlink:href="#m764335fc87" y="307.760668"/>
     <use style="fill:#4c72b0;stroke:#ffffff;stroke-linejoin:miter;stroke-width:0.75;" x="379.351609" xlink:href="#m764335fc87" y="310.53756"/>
     <use style="fill:#4c72b0;stroke:#ffffff;stroke-linejoin:miter;stroke-width:0.75;" x="395.313468" xlink:href="#m764335fc87" y="309.530863"/>
     <use style="fill:#4c72b0;stroke:#ffffff;stroke-linejoin:miter;stroke-width:0.75;" x="411.275328" xlink:href="#m764335fc87" y="309.330189"/>
     <use style="fill:#4c72b0;stroke:#ffffff;stroke-linejoin:miter;stroke-width:0.75;" x="427.237187" xlink:href="#m764335fc87" y="314.540663"/>
     <use style="fill:#4c72b0;stroke:#ffffff;stroke-linejoin:miter;stroke-width:0.75;" x="443.199046" xlink:href="#m764335fc87" y="310.801389"/>
     <use style="fill:#4c72b0;stroke:#ffffff;stroke-linejoin:miter;stroke-width:0.75;" x="459.160906" xlink:href="#m764335fc87" y="308.512552"/>
     <use style="fill:#4c72b0;stroke:#ffffff;stroke-linejoin:miter;stroke-width:0.75;" x="475.122765" xlink:href="#m764335fc87" y="312.103819"/>
     <use style="fill:#4c72b0;stroke:#ffffff;stroke-linejoin:miter;stroke-width:0.75;" x="491.084625" xlink:href="#m764335fc87" y="309.25804"/>
     <use style="fill:#4c72b0;stroke:#ffffff;stroke-linejoin:miter;stroke-width:0.75;" x="507.046484" xlink:href="#m764335fc87" y="308.220892"/>
     <use style="fill:#4c72b0;stroke:#ffffff;stroke-linejoin:miter;stroke-width:0.75;" x="523.008343" xlink:href="#m764335fc87" y="310.666017"/>
     <use style="fill:#4c72b0;stroke:#ffffff;stroke-linejoin:miter;stroke-width:0.75;" x="538.970203" xlink:href="#m764335fc87" y="314.211977"/>
     <use style="fill:#4c72b0;stroke:#ffffff;stroke-linejoin:miter;stroke-width:0.75;" x="554.932062" xlink:href="#m764335fc87" y="320.830335"/>
     <use style="fill:#4c72b0;stroke:#ffffff;stroke-linejoin:miter;stroke-width:0.75;" x="570.893921" xlink:href="#m764335fc87" y="319.311489"/>
     <use style="fill:#4c72b0;stroke:#ffffff;stroke-linejoin:miter;stroke-width:0.75;" x="586.855781" xlink:href="#m764335fc87" y="327.238929"/>
     <use style="fill:#4c72b0;stroke:#ffffff;stroke-linejoin:miter;stroke-width:0.75;" x="602.81764" xlink:href="#m764335fc87" y="317.079806"/>
     <use style="fill:#4c72b0;stroke:#ffffff;stroke-linejoin:miter;stroke-width:0.75;" x="618.779499" xlink:href="#m764335fc87" y="314.387287"/>
     <use style="fill:#4c72b0;stroke:#ffffff;stroke-linejoin:miter;stroke-width:0.75;" x="634.741359" xlink:href="#m764335fc87" y="313.019393"/>
     <use style="fill:#4c72b0;stroke:#ffffff;stroke-linejoin:miter;stroke-width:0.75;" x="650.703218" xlink:href="#m764335fc87" y="315.1092"/>
     <use style="fill:#4c72b0;stroke:#ffffff;stroke-linejoin:miter;stroke-width:0.75;" x="666.665077" xlink:href="#m764335fc87" y="312.055627"/>
     <use style="fill:#4c72b0;stroke:#ffffff;stroke-linejoin:miter;stroke-width:0.75;" x="682.626937" xlink:href="#m764335fc87" y="314.50396"/>
     <use style="fill:#4c72b0;stroke:#ffffff;stroke-linejoin:miter;stroke-width:0.75;" x="698.588796" xlink:href="#m764335fc87" y="314.766914"/>
     <use style="fill:#4c72b0;stroke:#ffffff;stroke-linejoin:miter;stroke-width:0.75;" x="714.550656" xlink:href="#m764335fc87" y="314.426163"/>
     <use style="fill:#4c72b0;stroke:#ffffff;stroke-linejoin:miter;stroke-width:0.75;" x="730.512515" xlink:href="#m764335fc87" y="314.197345"/>
     <use style="fill:#4c72b0;stroke:#ffffff;stroke-linejoin:miter;stroke-width:0.75;" x="746.474374" xlink:href="#m764335fc87" y="313.943461"/>
    </g>
   </g>
   <g id="line2d_13">
    <path clip-path="url(#pc1a5615959)" d="M 123.961859 88.887273 
L 139.923719 91.565693 
L 155.885578 112.630027 
L 171.847437 137.999762 
L 187.809297 129.541596 
L 203.771156 126.47954 
L 219.733015 114.44488 
L 235.694875 122.662165 
L 251.656734 112.169313 
L 267.618594 109.44151 
L 283.580453 116.833268 
L 299.542312 119.624857 
L 315.504172 122.502171 
L 331.466031 121.553361 
L 347.42789 120.594205 
L 363.38975 128.352038 
L 379.351609 125.496141 
L 395.313468 125.827312 
L 411.275328 126.85374 
L 427.237187 126.115707 
L 443.199046 131.930725 
L 459.160906 128.55215 
L 475.122765 129.230286 
L 491.084625 130.64946 
L 507.046484 133.534981 
L 523.008343 135.924408 
L 538.970203 137.204304 
L 554.932062 137.167894 
L 570.893921 148.341624 
L 586.855781 147.149753 
L 602.81764 148.437664 
L 618.779499 146.759639 
L 634.741359 147.182181 
L 650.703218 147.699392 
L 666.665077 149.359661 
L 682.626937 156.641199 
L 698.588796 150.428422 
L 714.550656 151.144204 
L 730.512515 152.86308 
L 746.474374 154.296942 
" style="fill:none;stroke:#dd8452;stroke-dasharray:6,2.25;stroke-dashoffset:0;stroke-width:1.5;"/>
    <defs>
     <path d="M 0 3 
C 0.795609 3 1.55874 2.683901 2.12132 2.12132 
C 2.683901 1.55874 3 0.795609 3 0 
C 3 -0.795609 2.683901 -1.55874 2.12132 -2.12132 
C 1.55874 -2.683901 0.795609 -3 0 -3 
C -0.795609 -3 -1.55874 -2.683901 -2.12132 -2.12132 
C -2.683901 -1.55874 -3 -0.795609 -3 0 
C -3 0.795609 -2.683901 1.55874 -2.12132 2.12132 
C -1.55874 2.683901 -0.795609 3 0 3 
z
" id="mc25b50bb0b" style="stroke:#ffffff;stroke-width:0.75;"/>
    </defs>
    <g clip-path="url(#pc1a5615959)">
     <use style="fill:#dd8452;stroke:#ffffff;stroke-width:0.75;" x="123.961859" xlink:href="#mc25b50bb0b" y="88.887273"/>
     <use style="fill:#dd8452;stroke:#ffffff;stroke-width:0.75;" x="139.923719" xlink:href="#mc25b50bb0b" y="91.565693"/>
     <use style="fill:#dd8452;stroke:#ffffff;stroke-width:0.75;" x="155.885578" xlink:href="#mc25b50bb0b" y="112.630027"/>
     <use style="fill:#dd8452;stroke:#ffffff;stroke-width:0.75;" x="171.847437" xlink:href="#mc25b50bb0b" y="137.999762"/>
     <use style="fill:#dd8452;stroke:#ffffff;stroke-width:0.75;" x="187.809297" xlink:href="#mc25b50bb0b" y="129.541596"/>
     <use style="fill:#dd8452;stroke:#ffffff;stroke-width:0.75;" x="203.771156" xlink:href="#mc25b50bb0b" y="126.47954"/>
     <use style="fill:#dd8452;stroke:#ffffff;stroke-width:0.75;" x="219.733015" xlink:href="#mc25b50bb0b" y="114.44488"/>
     <use style="fill:#dd8452;stroke:#ffffff;stroke-width:0.75;" x="235.694875" xlink:href="#mc25b50bb0b" y="122.662165"/>
     <use style="fill:#dd8452;stroke:#ffffff;stroke-width:0.75;" x="251.656734" xlink:href="#mc25b50bb0b" y="112.169313"/>
     <use style="fill:#dd8452;stroke:#ffffff;stroke-width:0.75;" x="267.618594" xlink:href="#mc25b50bb0b" y="109.44151"/>
     <use style="fill:#dd8452;stroke:#ffffff;stroke-width:0.75;" x="283.580453" xlink:href="#mc25b50bb0b" y="116.833268"/>
     <use style="fill:#dd8452;stroke:#ffffff;stroke-width:0.75;" x="299.542312" xlink:href="#mc25b50bb0b" y="119.624857"/>
     <use style="fill:#dd8452;stroke:#ffffff;stroke-width:0.75;" x="315.504172" xlink:href="#mc25b50bb0b" y="122.502171"/>
     <use style="fill:#dd8452;stroke:#ffffff;stroke-width:0.75;" x="331.466031" xlink:href="#mc25b50bb0b" y="121.553361"/>
     <use style="fill:#dd8452;stroke:#ffffff;stroke-width:0.75;" x="347.42789" xlink:href="#mc25b50bb0b" y="120.594205"/>
     <use style="fill:#dd8452;stroke:#ffffff;stroke-width:0.75;" x="363.38975" xlink:href="#mc25b50bb0b" y="128.352038"/>
     <use style="fill:#dd8452;stroke:#ffffff;stroke-width:0.75;" x="379.351609" xlink:href="#mc25b50bb0b" y="125.496141"/>
     <use style="fill:#dd8452;stroke:#ffffff;stroke-width:0.75;" x="395.313468" xlink:href="#mc25b50bb0b" y="125.827312"/>
     <use style="fill:#dd8452;stroke:#ffffff;stroke-width:0.75;" x="411.275328" xlink:href="#mc25b50bb0b" y="126.85374"/>
     <use style="fill:#dd8452;stroke:#ffffff;stroke-width:0.75;" x="427.237187" xlink:href="#mc25b50bb0b" y="126.115707"/>
     <use style="fill:#dd8452;stroke:#ffffff;stroke-width:0.75;" x="443.199046" xlink:href="#mc25b50bb0b" y="131.930725"/>
     <use style="fill:#dd8452;stroke:#ffffff;stroke-width:0.75;" x="459.160906" xlink:href="#mc25b50bb0b" y="128.55215"/>
     <use style="fill:#dd8452;stroke:#ffffff;stroke-width:0.75;" x="475.122765" xlink:href="#mc25b50bb0b" y="129.230286"/>
     <use style="fill:#dd8452;stroke:#ffffff;stroke-width:0.75;" x="491.084625" xlink:href="#mc25b50bb0b" y="130.64946"/>
     <use style="fill:#dd8452;stroke:#ffffff;stroke-width:0.75;" x="507.046484" xlink:href="#mc25b50bb0b" y="133.534981"/>
     <use style="fill:#dd8452;stroke:#ffffff;stroke-width:0.75;" x="523.008343" xlink:href="#mc25b50bb0b" y="135.924408"/>
     <use style="fill:#dd8452;stroke:#ffffff;stroke-width:0.75;" x="538.970203" xlink:href="#mc25b50bb0b" y="137.204304"/>
     <use style="fill:#dd8452;stroke:#ffffff;stroke-width:0.75;" x="554.932062" xlink:href="#mc25b50bb0b" y="137.167894"/>
     <use style="fill:#dd8452;stroke:#ffffff;stroke-width:0.75;" x="570.893921" xlink:href="#mc25b50bb0b" y="148.341624"/>
     <use style="fill:#dd8452;stroke:#ffffff;stroke-width:0.75;" x="586.855781" xlink:href="#mc25b50bb0b" y="147.149753"/>
     <use style="fill:#dd8452;stroke:#ffffff;stroke-width:0.75;" x="602.81764" xlink:href="#mc25b50bb0b" y="148.437664"/>
     <use style="fill:#dd8452;stroke:#ffffff;stroke-width:0.75;" x="618.779499" xlink:href="#mc25b50bb0b" y="146.759639"/>
     <use style="fill:#dd8452;stroke:#ffffff;stroke-width:0.75;" x="634.741359" xlink:href="#mc25b50bb0b" y="147.182181"/>
     <use style="fill:#dd8452;stroke:#ffffff;stroke-width:0.75;" x="650.703218" xlink:href="#mc25b50bb0b" y="147.699392"/>
     <use style="fill:#dd8452;stroke:#ffffff;stroke-width:0.75;" x="666.665077" xlink:href="#mc25b50bb0b" y="149.359661"/>
     <use style="fill:#dd8452;stroke:#ffffff;stroke-width:0.75;" x="682.626937" xlink:href="#mc25b50bb0b" y="156.641199"/>
     <use style="fill:#dd8452;stroke:#ffffff;stroke-width:0.75;" x="698.588796" xlink:href="#mc25b50bb0b" y="150.428422"/>
     <use style="fill:#dd8452;stroke:#ffffff;stroke-width:0.75;" x="714.550656" xlink:href="#mc25b50bb0b" y="151.144204"/>
     <use style="fill:#dd8452;stroke:#ffffff;stroke-width:0.75;" x="730.512515" xlink:href="#mc25b50bb0b" y="152.86308"/>
     <use style="fill:#dd8452;stroke:#ffffff;stroke-width:0.75;" x="746.474374" xlink:href="#mc25b50bb0b" y="154.296942"/>
    </g>
   </g>
   <g id="line2d_14">
    <path clip-path="url(#pc1a5615959)" d="M 123.961859 320.580021 
L 139.923719 323.454654 
L 155.885578 310.708447 
L 171.847437 318.508817 
L 187.809297 313.596752 
L 203.771156 314.99507 
L 219.733015 317.125788 
L 235.694875 316.157633 
L 251.656734 319.595663 
L 267.618594 305.746758 
L 283.580453 305.10429 
L 299.542312 299.707442 
L 315.504172 305.484095 
L 331.466031 301.560778 
L 347.42789 303.879575 
L 363.38975 304.197791 
L 379.351609 303.621744 
L 395.313468 305.762056 
L 411.275328 304.143861 
L 427.237187 303.55091 
L 443.199046 303.730012 
L 459.160906 302.818579 
L 475.122765 306.3734 
L 491.084625 307.495112 
L 507.046484 305.72967 
L 523.008343 306.25496 
L 538.970203 304.794668 
L 554.932062 308.255601 
L 570.893921 303.964545 
L 586.855781 306.95228 
L 602.81764 304.489342 
L 618.779499 307.130191 
L 634.741359 308.276499 
L 650.703218 307.668753 
L 666.665077 307.662532 
L 682.626937 308.754547 
L 698.588796 307.597227 
L 714.550656 310.17977 
L 730.512515 309.089411 
L 746.474374 310.647493 
" style="fill:none;stroke:#55a868;stroke-dasharray:1.5,1.5;stroke-dashoffset:0;stroke-width:1.5;"/>
    <defs>
     <path d="M -3 3 
L 3 3 
L 3 -3 
L -3 -3 
z
" id="m4a195ee867" style="stroke:#ffffff;stroke-linejoin:miter;stroke-width:0.75;"/>
    </defs>
    <g clip-path="url(#pc1a5615959)">
     <use style="fill:#55a868;stroke:#ffffff;stroke-linejoin:miter;stroke-width:0.75;" x="123.961859" xlink:href="#m4a195ee867" y="320.580021"/>
     <use style="fill:#55a868;stroke:#ffffff;stroke-linejoin:miter;stroke-width:0.75;" x="139.923719" xlink:href="#m4a195ee867" y="323.454654"/>
     <use style="fill:#55a868;stroke:#ffffff;stroke-linejoin:miter;stroke-width:0.75;" x="155.885578" xlink:href="#m4a195ee867" y="310.708447"/>
     <use style="fill:#55a868;stroke:#ffffff;stroke-linejoin:miter;stroke-width:0.75;" x="171.847437" xlink:href="#m4a195ee867" y="318.508817"/>
     <use style="fill:#55a868;stroke:#ffffff;stroke-linejoin:miter;stroke-width:0.75;" x="187.809297" xlink:href="#m4a195ee867" y="313.596752"/>
     <use style="fill:#55a868;stroke:#ffffff;stroke-linejoin:miter;stroke-width:0.75;" x="203.771156" xlink:href="#m4a195ee867" y="314.99507"/>
     <use style="fill:#55a868;stroke:#ffffff;stroke-linejoin:miter;stroke-width:0.75;" x="219.733015" xlink:href="#m4a195ee867" y="317.125788"/>
     <use style="fill:#55a868;stroke:#ffffff;stroke-linejoin:miter;stroke-width:0.75;" x="235.694875" xlink:href="#m4a195ee867" y="316.157633"/>
     <use style="fill:#55a868;stroke:#ffffff;stroke-linejoin:miter;stroke-width:0.75;" x="251.656734" xlink:href="#m4a195ee867" y="319.595663"/>
     <use style="fill:#55a868;stroke:#ffffff;stroke-linejoin:miter;stroke-width:0.75;" x="267.618594" xlink:href="#m4a195ee867" y="305.746758"/>
     <use style="fill:#55a868;stroke:#ffffff;stroke-linejoin:miter;stroke-width:0.75;" x="283.580453" xlink:href="#m4a195ee867" y="305.10429"/>
     <use style="fill:#55a868;stroke:#ffffff;stroke-linejoin:miter;stroke-width:0.75;" x="299.542312" xlink:href="#m4a195ee867" y="299.707442"/>
     <use style="fill:#55a868;stroke:#ffffff;stroke-linejoin:miter;stroke-width:0.75;" x="315.504172" xlink:href="#m4a195ee867" y="305.484095"/>
     <use style="fill:#55a868;stroke:#ffffff;stroke-linejoin:miter;stroke-width:0.75;" x="331.466031" xlink:href="#m4a195ee867" y="301.560778"/>
     <use style="fill:#55a868;stroke:#ffffff;stroke-linejoin:miter;stroke-width:0.75;" x="347.42789" xlink:href="#m4a195ee867" y="303.879575"/>
     <use style="fill:#55a868;stroke:#ffffff;stroke-linejoin:miter;stroke-width:0.75;" x="363.38975" xlink:href="#m4a195ee867" y="304.197791"/>
     <use style="fill:#55a868;stroke:#ffffff;stroke-linejoin:miter;stroke-width:0.75;" x="379.351609" xlink:href="#m4a195ee867" y="303.621744"/>
     <use style="fill:#55a868;stroke:#ffffff;stroke-linejoin:miter;stroke-width:0.75;" x="395.313468" xlink:href="#m4a195ee867" y="305.762056"/>
     <use style="fill:#55a868;stroke:#ffffff;stroke-linejoin:miter;stroke-width:0.75;" x="411.275328" xlink:href="#m4a195ee867" y="304.143861"/>
     <use style="fill:#55a868;stroke:#ffffff;stroke-linejoin:miter;stroke-width:0.75;" x="427.237187" xlink:href="#m4a195ee867" y="303.55091"/>
     <use style="fill:#55a868;stroke:#ffffff;stroke-linejoin:miter;stroke-width:0.75;" x="443.199046" xlink:href="#m4a195ee867" y="303.730012"/>
     <use style="fill:#55a868;stroke:#ffffff;stroke-linejoin:miter;stroke-width:0.75;" x="459.160906" xlink:href="#m4a195ee867" y="302.818579"/>
     <use style="fill:#55a868;stroke:#ffffff;stroke-linejoin:miter;stroke-width:0.75;" x="475.122765" xlink:href="#m4a195ee867" y="306.3734"/>
     <use style="fill:#55a868;stroke:#ffffff;stroke-linejoin:miter;stroke-width:0.75;" x="491.084625" xlink:href="#m4a195ee867" y="307.495112"/>
     <use style="fill:#55a868;stroke:#ffffff;stroke-linejoin:miter;stroke-width:0.75;" x="507.046484" xlink:href="#m4a195ee867" y="305.72967"/>
     <use style="fill:#55a868;stroke:#ffffff;stroke-linejoin:miter;stroke-width:0.75;" x="523.008343" xlink:href="#m4a195ee867" y="306.25496"/>
     <use style="fill:#55a868;stroke:#ffffff;stroke-linejoin:miter;stroke-width:0.75;" x="538.970203" xlink:href="#m4a195ee867" y="304.794668"/>
     <use style="fill:#55a868;stroke:#ffffff;stroke-linejoin:miter;stroke-width:0.75;" x="554.932062" xlink:href="#m4a195ee867" y="308.255601"/>
     <use style="fill:#55a868;stroke:#ffffff;stroke-linejoin:miter;stroke-width:0.75;" x="570.893921" xlink:href="#m4a195ee867" y="303.964545"/>
     <use style="fill:#55a868;stroke:#ffffff;stroke-linejoin:miter;stroke-width:0.75;" x="586.855781" xlink:href="#m4a195ee867" y="306.95228"/>
     <use style="fill:#55a868;stroke:#ffffff;stroke-linejoin:miter;stroke-width:0.75;" x="602.81764" xlink:href="#m4a195ee867" y="304.489342"/>
     <use style="fill:#55a868;stroke:#ffffff;stroke-linejoin:miter;stroke-width:0.75;" x="618.779499" xlink:href="#m4a195ee867" y="307.130191"/>
     <use style="fill:#55a868;stroke:#ffffff;stroke-linejoin:miter;stroke-width:0.75;" x="634.741359" xlink:href="#m4a195ee867" y="308.276499"/>
     <use style="fill:#55a868;stroke:#ffffff;stroke-linejoin:miter;stroke-width:0.75;" x="650.703218" xlink:href="#m4a195ee867" y="307.668753"/>
     <use style="fill:#55a868;stroke:#ffffff;stroke-linejoin:miter;stroke-width:0.75;" x="666.665077" xlink:href="#m4a195ee867" y="307.662532"/>
     <use style="fill:#55a868;stroke:#ffffff;stroke-linejoin:miter;stroke-width:0.75;" x="682.626937" xlink:href="#m4a195ee867" y="308.754547"/>
     <use style="fill:#55a868;stroke:#ffffff;stroke-linejoin:miter;stroke-width:0.75;" x="698.588796" xlink:href="#m4a195ee867" y="307.597227"/>
     <use style="fill:#55a868;stroke:#ffffff;stroke-linejoin:miter;stroke-width:0.75;" x="714.550656" xlink:href="#m4a195ee867" y="310.17977"/>
     <use style="fill:#55a868;stroke:#ffffff;stroke-linejoin:miter;stroke-width:0.75;" x="730.512515" xlink:href="#m4a195ee867" y="309.089411"/>
     <use style="fill:#55a868;stroke:#ffffff;stroke-linejoin:miter;stroke-width:0.75;" x="746.474374" xlink:href="#m4a195ee867" y="310.647493"/>
    </g>
   </g>
   <g id="line2d_15">
    <path clip-path="url(#pc1a5615959)" d="M 123.961859 484.232727 
L 139.923719 482.488723 
L 155.885578 482.965751 
L 171.847437 482.163092 
L 187.809297 481.516947 
L 203.771156 479.855081 
L 219.733015 477.797711 
L 235.694875 476.30111 
L 251.656734 474.455457 
L 267.618594 472.703616 
L 283.580453 470.644 
L 299.542312 469.456935 
L 315.504172 466.65279 
L 331.466031 465.375917 
L 347.42789 462.600683 
L 363.38975 460.442274 
L 379.351609 457.926617 
L 395.313468 455.090933 
L 411.275328 454.937028 
L 427.237187 449.658234 
L 443.199046 446.95753 
L 459.160906 443.897642 
L 475.122765 440.111132 
L 491.084625 436.801245 
L 507.046484 432.104369 
L 523.008343 428.499847 
L 538.970203 424.555016 
L 554.932062 419.550281 
L 570.893921 413.911359 
L 586.855781 408.908358 
L 602.81764 403.148633 
L 618.779499 397.045158 
L 634.741359 390.890697 
L 650.703218 383.155137 
L 666.665077 374.350206 
L 682.626937 364.545131 
L 698.588796 354.22623 
L 714.550656 343.234326 
L 730.512515 330.179033 
L 746.474374 314.474814 
" style="fill:none;stroke:#c44e52;stroke-dasharray:4.5,1.875,2.25,1.875;stroke-dashoffset:0;stroke-width:1.5;"/>
    <defs>
     <path d="M 0 -3 
L -3 3 
L 3 3 
z
" id="mb0263c20b0" style="stroke:#ffffff;stroke-linejoin:miter;stroke-width:0.75;"/>
    </defs>
    <g clip-path="url(#pc1a5615959)">
     <use style="fill:#c44e52;stroke:#ffffff;stroke-linejoin:miter;stroke-width:0.75;" x="123.961859" xlink:href="#mb0263c20b0" y="484.232727"/>
     <use style="fill:#c44e52;stroke:#ffffff;stroke-linejoin:miter;stroke-width:0.75;" x="139.923719" xlink:href="#mb0263c20b0" y="482.488723"/>
     <use style="fill:#c44e52;stroke:#ffffff;stroke-linejoin:miter;stroke-width:0.75;" x="155.885578" xlink:href="#mb0263c20b0" y="482.965751"/>
     <use style="fill:#c44e52;stroke:#ffffff;stroke-linejoin:miter;stroke-width:0.75;" x="171.847437" xlink:href="#mb0263c20b0" y="482.163092"/>
     <use style="fill:#c44e52;stroke:#ffffff;stroke-linejoin:miter;stroke-width:0.75;" x="187.809297" xlink:href="#mb0263c20b0" y="481.516947"/>
     <use style="fill:#c44e52;stroke:#ffffff;stroke-linejoin:miter;stroke-width:0.75;" x="203.771156" xlink:href="#mb0263c20b0" y="479.855081"/>
     <use style="fill:#c44e52;stroke:#ffffff;stroke-linejoin:miter;stroke-width:0.75;" x="219.733015" xlink:href="#mb0263c20b0" y="477.797711"/>
     <use style="fill:#c44e52;stroke:#ffffff;stroke-linejoin:miter;stroke-width:0.75;" x="235.694875" xlink:href="#mb0263c20b0" y="476.30111"/>
     <use style="fill:#c44e52;stroke:#ffffff;stroke-linejoin:miter;stroke-width:0.75;" x="251.656734" xlink:href="#mb0263c20b0" y="474.455457"/>
     <use style="fill:#c44e52;stroke:#ffffff;stroke-linejoin:miter;stroke-width:0.75;" x="267.618594" xlink:href="#mb0263c20b0" y="472.703616"/>
     <use style="fill:#c44e52;stroke:#ffffff;stroke-linejoin:miter;stroke-width:0.75;" x="283.580453" xlink:href="#mb0263c20b0" y="470.644"/>
     <use style="fill:#c44e52;stroke:#ffffff;stroke-linejoin:miter;stroke-width:0.75;" x="299.542312" xlink:href="#mb0263c20b0" y="469.456935"/>
     <use style="fill:#c44e52;stroke:#ffffff;stroke-linejoin:miter;stroke-width:0.75;" x="315.504172" xlink:href="#mb0263c20b0" y="466.65279"/>
     <use style="fill:#c44e52;stroke:#ffffff;stroke-linejoin:miter;stroke-width:0.75;" x="331.466031" xlink:href="#mb0263c20b0" y="465.375917"/>
     <use style="fill:#c44e52;stroke:#ffffff;stroke-linejoin:miter;stroke-width:0.75;" x="347.42789" xlink:href="#mb0263c20b0" y="462.600683"/>
     <use style="fill:#c44e52;stroke:#ffffff;stroke-linejoin:miter;stroke-width:0.75;" x="363.38975" xlink:href="#mb0263c20b0" y="460.442274"/>
     <use style="fill:#c44e52;stroke:#ffffff;stroke-linejoin:miter;stroke-width:0.75;" x="379.351609" xlink:href="#mb0263c20b0" y="457.926617"/>
     <use style="fill:#c44e52;stroke:#ffffff;stroke-linejoin:miter;stroke-width:0.75;" x="395.313468" xlink:href="#mb0263c20b0" y="455.090933"/>
     <use style="fill:#c44e52;stroke:#ffffff;stroke-linejoin:miter;stroke-width:0.75;" x="411.275328" xlink:href="#mb0263c20b0" y="454.937028"/>
     <use style="fill:#c44e52;stroke:#ffffff;stroke-linejoin:miter;stroke-width:0.75;" x="427.237187" xlink:href="#mb0263c20b0" y="449.658234"/>
     <use style="fill:#c44e52;stroke:#ffffff;stroke-linejoin:miter;stroke-width:0.75;" x="443.199046" xlink:href="#mb0263c20b0" y="446.95753"/>
     <use style="fill:#c44e52;stroke:#ffffff;stroke-linejoin:miter;stroke-width:0.75;" x="459.160906" xlink:href="#mb0263c20b0" y="443.897642"/>
     <use style="fill:#c44e52;stroke:#ffffff;stroke-linejoin:miter;stroke-width:0.75;" x="475.122765" xlink:href="#mb0263c20b0" y="440.111132"/>
     <use style="fill:#c44e52;stroke:#ffffff;stroke-linejoin:miter;stroke-width:0.75;" x="491.084625" xlink:href="#mb0263c20b0" y="436.801245"/>
     <use style="fill:#c44e52;stroke:#ffffff;stroke-linejoin:miter;stroke-width:0.75;" x="507.046484" xlink:href="#mb0263c20b0" y="432.104369"/>
     <use style="fill:#c44e52;stroke:#ffffff;stroke-linejoin:miter;stroke-width:0.75;" x="523.008343" xlink:href="#mb0263c20b0" y="428.499847"/>
     <use style="fill:#c44e52;stroke:#ffffff;stroke-linejoin:miter;stroke-width:0.75;" x="538.970203" xlink:href="#mb0263c20b0" y="424.555016"/>
     <use style="fill:#c44e52;stroke:#ffffff;stroke-linejoin:miter;stroke-width:0.75;" x="554.932062" xlink:href="#mb0263c20b0" y="419.550281"/>
     <use style="fill:#c44e52;stroke:#ffffff;stroke-linejoin:miter;stroke-width:0.75;" x="570.893921" xlink:href="#mb0263c20b0" y="413.911359"/>
     <use style="fill:#c44e52;stroke:#ffffff;stroke-linejoin:miter;stroke-width:0.75;" x="586.855781" xlink:href="#mb0263c20b0" y="408.908358"/>
     <use style="fill:#c44e52;stroke:#ffffff;stroke-linejoin:miter;stroke-width:0.75;" x="602.81764" xlink:href="#mb0263c20b0" y="403.148633"/>
     <use style="fill:#c44e52;stroke:#ffffff;stroke-linejoin:miter;stroke-width:0.75;" x="618.779499" xlink:href="#mb0263c20b0" y="397.045158"/>
     <use style="fill:#c44e52;stroke:#ffffff;stroke-linejoin:miter;stroke-width:0.75;" x="634.741359" xlink:href="#mb0263c20b0" y="390.890697"/>
     <use style="fill:#c44e52;stroke:#ffffff;stroke-linejoin:miter;stroke-width:0.75;" x="650.703218" xlink:href="#mb0263c20b0" y="383.155137"/>
     <use style="fill:#c44e52;stroke:#ffffff;stroke-linejoin:miter;stroke-width:0.75;" x="666.665077" xlink:href="#mb0263c20b0" y="374.350206"/>
     <use style="fill:#c44e52;stroke:#ffffff;stroke-linejoin:miter;stroke-width:0.75;" x="682.626937" xlink:href="#mb0263c20b0" y="364.545131"/>
     <use style="fill:#c44e52;stroke:#ffffff;stroke-linejoin:miter;stroke-width:0.75;" x="698.588796" xlink:href="#mb0263c20b0" y="354.22623"/>
     <use style="fill:#c44e52;stroke:#ffffff;stroke-linejoin:miter;stroke-width:0.75;" x="714.550656" xlink:href="#mb0263c20b0" y="343.234326"/>
     <use style="fill:#c44e52;stroke:#ffffff;stroke-linejoin:miter;stroke-width:0.75;" x="730.512515" xlink:href="#mb0263c20b0" y="330.179033"/>
     <use style="fill:#c44e52;stroke:#ffffff;stroke-linejoin:miter;stroke-width:0.75;" x="746.474374" xlink:href="#mb0263c20b0" y="314.474814"/>
    </g>
   </g>
   <g id="line2d_16">
    <path clip-path="url(#pc1a5615959)" d="M 123.961859 232.631061 
L 139.923719 211.377367 
L 155.885578 205.565171 
L 171.847437 205.129268 
L 187.809297 204.50564 
L 203.771156 204.098309 
L 219.733015 204.556152 
L 235.694875 204.691636 
L 251.656734 206.231346 
L 267.618594 207.237624 
L 283.580453 207.874997 
L 299.542312 208.87951 
L 315.504172 211.026995 
L 331.466031 210.332808 
L 347.42789 210.869793 
L 363.38975 212.151393 
L 379.351609 215.036127 
L 395.313468 214.976086 
L 411.275328 216.094138 
L 427.237187 222.25267 
L 443.199046 219.355992 
L 459.160906 220.325333 
L 475.122765 221.714374 
L 491.084625 222.504302 
L 507.046484 223.859709 
L 523.008343 224.549865 
L 538.970203 225.368348 
L 554.932062 226.430325 
L 570.893921 226.179308 
L 586.855781 226.351147 
L 602.81764 226.877852 
L 618.779499 229.656355 
L 634.741359 230.90687 
L 650.703218 229.846963 
L 666.665077 231.705896 
L 682.626937 230.957022 
L 698.588796 230.491957 
L 714.550656 231.307271 
L 730.512515 230.844114 
L 746.474374 231.556679 
" style="fill:none;stroke:#8172b3;stroke-dasharray:7.5,1.5,1.5,1.5;stroke-dashoffset:0;stroke-width:1.5;"/>
    <defs>
     <path d="M 0 4.242641 
L 2.545584 0 
L 0 -4.242641 
L -2.545584 0 
z
" id="m09f5d77706" style="stroke:#ffffff;stroke-linejoin:miter;stroke-width:0.75;"/>
    </defs>
    <g clip-path="url(#pc1a5615959)">
     <use style="fill:#8172b3;stroke:#ffffff;stroke-linejoin:miter;stroke-width:0.75;" x="123.961859" xlink:href="#m09f5d77706" y="232.631061"/>
     <use style="fill:#8172b3;stroke:#ffffff;stroke-linejoin:miter;stroke-width:0.75;" x="139.923719" xlink:href="#m09f5d77706" y="211.377367"/>
     <use style="fill:#8172b3;stroke:#ffffff;stroke-linejoin:miter;stroke-width:0.75;" x="155.885578" xlink:href="#m09f5d77706" y="205.565171"/>
     <use style="fill:#8172b3;stroke:#ffffff;stroke-linejoin:miter;stroke-width:0.75;" x="171.847437" xlink:href="#m09f5d77706" y="205.129268"/>
     <use style="fill:#8172b3;stroke:#ffffff;stroke-linejoin:miter;stroke-width:0.75;" x="187.809297" xlink:href="#m09f5d77706" y="204.50564"/>
     <use style="fill:#8172b3;stroke:#ffffff;stroke-linejoin:miter;stroke-width:0.75;" x="203.771156" xlink:href="#m09f5d77706" y="204.098309"/>
     <use style="fill:#8172b3;stroke:#ffffff;stroke-linejoin:miter;stroke-width:0.75;" x="219.733015" xlink:href="#m09f5d77706" y="204.556152"/>
     <use style="fill:#8172b3;stroke:#ffffff;stroke-linejoin:miter;stroke-width:0.75;" x="235.694875" xlink:href="#m09f5d77706" y="204.691636"/>
     <use style="fill:#8172b3;stroke:#ffffff;stroke-linejoin:miter;stroke-width:0.75;" x="251.656734" xlink:href="#m09f5d77706" y="206.231346"/>
     <use style="fill:#8172b3;stroke:#ffffff;stroke-linejoin:miter;stroke-width:0.75;" x="267.618594" xlink:href="#m09f5d77706" y="207.237624"/>
     <use style="fill:#8172b3;stroke:#ffffff;stroke-linejoin:miter;stroke-width:0.75;" x="283.580453" xlink:href="#m09f5d77706" y="207.874997"/>
     <use style="fill:#8172b3;stroke:#ffffff;stroke-linejoin:miter;stroke-width:0.75;" x="299.542312" xlink:href="#m09f5d77706" y="208.87951"/>
     <use style="fill:#8172b3;stroke:#ffffff;stroke-linejoin:miter;stroke-width:0.75;" x="315.504172" xlink:href="#m09f5d77706" y="211.026995"/>
     <use style="fill:#8172b3;stroke:#ffffff;stroke-linejoin:miter;stroke-width:0.75;" x="331.466031" xlink:href="#m09f5d77706" y="210.332808"/>
     <use style="fill:#8172b3;stroke:#ffffff;stroke-linejoin:miter;stroke-width:0.75;" x="347.42789" xlink:href="#m09f5d77706" y="210.869793"/>
     <use style="fill:#8172b3;stroke:#ffffff;stroke-linejoin:miter;stroke-width:0.75;" x="363.38975" xlink:href="#m09f5d77706" y="212.151393"/>
     <use style="fill:#8172b3;stroke:#ffffff;stroke-linejoin:miter;stroke-width:0.75;" x="379.351609" xlink:href="#m09f5d77706" y="215.036127"/>
     <use style="fill:#8172b3;stroke:#ffffff;stroke-linejoin:miter;stroke-width:0.75;" x="395.313468" xlink:href="#m09f5d77706" y="214.976086"/>
     <use style="fill:#8172b3;stroke:#ffffff;stroke-linejoin:miter;stroke-width:0.75;" x="411.275328" xlink:href="#m09f5d77706" y="216.094138"/>
     <use style="fill:#8172b3;stroke:#ffffff;stroke-linejoin:miter;stroke-width:0.75;" x="427.237187" xlink:href="#m09f5d77706" y="222.25267"/>
     <use style="fill:#8172b3;stroke:#ffffff;stroke-linejoin:miter;stroke-width:0.75;" x="443.199046" xlink:href="#m09f5d77706" y="219.355992"/>
     <use style="fill:#8172b3;stroke:#ffffff;stroke-linejoin:miter;stroke-width:0.75;" x="459.160906" xlink:href="#m09f5d77706" y="220.325333"/>
     <use style="fill:#8172b3;stroke:#ffffff;stroke-linejoin:miter;stroke-width:0.75;" x="475.122765" xlink:href="#m09f5d77706" y="221.714374"/>
     <use style="fill:#8172b3;stroke:#ffffff;stroke-linejoin:miter;stroke-width:0.75;" x="491.084625" xlink:href="#m09f5d77706" y="222.504302"/>
     <use style="fill:#8172b3;stroke:#ffffff;stroke-linejoin:miter;stroke-width:0.75;" x="507.046484" xlink:href="#m09f5d77706" y="223.859709"/>
     <use style="fill:#8172b3;stroke:#ffffff;stroke-linejoin:miter;stroke-width:0.75;" x="523.008343" xlink:href="#m09f5d77706" y="224.549865"/>
     <use style="fill:#8172b3;stroke:#ffffff;stroke-linejoin:miter;stroke-width:0.75;" x="538.970203" xlink:href="#m09f5d77706" y="225.368348"/>
     <use style="fill:#8172b3;stroke:#ffffff;stroke-linejoin:miter;stroke-width:0.75;" x="554.932062" xlink:href="#m09f5d77706" y="226.430325"/>
     <use style="fill:#8172b3;stroke:#ffffff;stroke-linejoin:miter;stroke-width:0.75;" x="570.893921" xlink:href="#m09f5d77706" y="226.179308"/>
     <use style="fill:#8172b3;stroke:#ffffff;stroke-linejoin:miter;stroke-width:0.75;" x="586.855781" xlink:href="#m09f5d77706" y="226.351147"/>
     <use style="fill:#8172b3;stroke:#ffffff;stroke-linejoin:miter;stroke-width:0.75;" x="602.81764" xlink:href="#m09f5d77706" y="226.877852"/>
     <use style="fill:#8172b3;stroke:#ffffff;stroke-linejoin:miter;stroke-width:0.75;" x="618.779499" xlink:href="#m09f5d77706" y="229.656355"/>
     <use style="fill:#8172b3;stroke:#ffffff;stroke-linejoin:miter;stroke-width:0.75;" x="634.741359" xlink:href="#m09f5d77706" y="230.90687"/>
     <use style="fill:#8172b3;stroke:#ffffff;stroke-linejoin:miter;stroke-width:0.75;" x="650.703218" xlink:href="#m09f5d77706" y="229.846963"/>
     <use style="fill:#8172b3;stroke:#ffffff;stroke-linejoin:miter;stroke-width:0.75;" x="666.665077" xlink:href="#m09f5d77706" y="231.705896"/>
     <use style="fill:#8172b3;stroke:#ffffff;stroke-linejoin:miter;stroke-width:0.75;" x="682.626937" xlink:href="#m09f5d77706" y="230.957022"/>
     <use style="fill:#8172b3;stroke:#ffffff;stroke-linejoin:miter;stroke-width:0.75;" x="698.588796" xlink:href="#m09f5d77706" y="230.491957"/>
     <use style="fill:#8172b3;stroke:#ffffff;stroke-linejoin:miter;stroke-width:0.75;" x="714.550656" xlink:href="#m09f5d77706" y="231.307271"/>
     <use style="fill:#8172b3;stroke:#ffffff;stroke-linejoin:miter;stroke-width:0.75;" x="730.512515" xlink:href="#m09f5d77706" y="230.844114"/>
     <use style="fill:#8172b3;stroke:#ffffff;stroke-linejoin:miter;stroke-width:0.75;" x="746.474374" xlink:href="#m09f5d77706" y="231.556679"/>
    </g>
   </g>
   <g id="line2d_17">
    <path clip-path="url(#pc1a5615959)" d="M 123.961859 384.839859 
L 139.923719 383.144242 
L 155.885578 376.161663 
L 171.847437 374.630968 
L 187.809297 370.907717 
L 203.771156 369.743874 
L 219.733015 369.600992 
L 235.694875 368.220077 
L 251.656734 369.57239 
L 267.618594 368.64163 
L 283.580453 371.798877 
L 299.542312 367.852669 
L 315.504172 368.919799 
L 331.466031 369.522972 
L 347.42789 368.005919 
L 363.38975 371.119199 
L 379.351609 369.852822 
L 395.313468 371.124282 
L 411.275328 367.714216 
L 427.237187 367.650437 
L 443.199046 368.98003 
L 459.160906 372.044507 
L 475.122765 370.826177 
L 491.084625 369.05175 
L 507.046484 369.609936 
L 523.008343 370.169786 
L 538.970203 369.789169 
L 554.932062 372.847639 
L 570.893921 368.408328 
L 586.855781 370.83642 
L 602.81764 370.208536 
L 618.779499 370.805647 
L 634.741359 371.212563 
L 650.703218 368.839545 
L 666.665077 370.844124 
L 682.626937 371.66588 
L 698.588796 370.55907 
L 714.550656 369.795596 
L 730.512515 372.568092 
L 746.474374 370.720967 
" style="fill:none;stroke:#937860;stroke-dasharray:4.5,1.875,1.875,1.875,1.875,1.875;stroke-dashoffset:0;stroke-width:1.5;"/>
    <defs>
     <path d="M -1 3 
L 1 3 
L 1 1 
L 3 1 
L 3 -1 
L 1 -1 
L 1 -3 
L -1 -3 
L -1 -1 
L -3 -1 
L -3 1 
L -1 1 
z
" id="m1090443974" style="stroke:#ffffff;stroke-linejoin:miter;stroke-width:0.75;"/>
    </defs>
    <g clip-path="url(#pc1a5615959)">
     <use style="fill:#937860;stroke:#ffffff;stroke-linejoin:miter;stroke-width:0.75;" x="123.961859" xlink:href="#m1090443974" y="384.839859"/>
     <use style="fill:#937860;stroke:#ffffff;stroke-linejoin:miter;stroke-width:0.75;" x="139.923719" xlink:href="#m1090443974" y="383.144242"/>
     <use style="fill:#937860;stroke:#ffffff;stroke-linejoin:miter;stroke-width:0.75;" x="155.885578" xlink:href="#m1090443974" y="376.161663"/>
     <use style="fill:#937860;stroke:#ffffff;stroke-linejoin:miter;stroke-width:0.75;" x="171.847437" xlink:href="#m1090443974" y="374.630968"/>
     <use style="fill:#937860;stroke:#ffffff;stroke-linejoin:miter;stroke-width:0.75;" x="187.809297" xlink:href="#m1090443974" y="370.907717"/>
     <use style="fill:#937860;stroke:#ffffff;stroke-linejoin:miter;stroke-width:0.75;" x="203.771156" xlink:href="#m1090443974" y="369.743874"/>
     <use style="fill:#937860;stroke:#ffffff;stroke-linejoin:miter;stroke-width:0.75;" x="219.733015" xlink:href="#m1090443974" y="369.600992"/>
     <use style="fill:#937860;stroke:#ffffff;stroke-linejoin:miter;stroke-width:0.75;" x="235.694875" xlink:href="#m1090443974" y="368.220077"/>
     <use style="fill:#937860;stroke:#ffffff;stroke-linejoin:miter;stroke-width:0.75;" x="251.656734" xlink:href="#m1090443974" y="369.57239"/>
     <use style="fill:#937860;stroke:#ffffff;stroke-linejoin:miter;stroke-width:0.75;" x="267.618594" xlink:href="#m1090443974" y="368.64163"/>
     <use style="fill:#937860;stroke:#ffffff;stroke-linejoin:miter;stroke-width:0.75;" x="283.580453" xlink:href="#m1090443974" y="371.798877"/>
     <use style="fill:#937860;stroke:#ffffff;stroke-linejoin:miter;stroke-width:0.75;" x="299.542312" xlink:href="#m1090443974" y="367.852669"/>
     <use style="fill:#937860;stroke:#ffffff;stroke-linejoin:miter;stroke-width:0.75;" x="315.504172" xlink:href="#m1090443974" y="368.919799"/>
     <use style="fill:#937860;stroke:#ffffff;stroke-linejoin:miter;stroke-width:0.75;" x="331.466031" xlink:href="#m1090443974" y="369.522972"/>
     <use style="fill:#937860;stroke:#ffffff;stroke-linejoin:miter;stroke-width:0.75;" x="347.42789" xlink:href="#m1090443974" y="368.005919"/>
     <use style="fill:#937860;stroke:#ffffff;stroke-linejoin:miter;stroke-width:0.75;" x="363.38975" xlink:href="#m1090443974" y="371.119199"/>
     <use style="fill:#937860;stroke:#ffffff;stroke-linejoin:miter;stroke-width:0.75;" x="379.351609" xlink:href="#m1090443974" y="369.852822"/>
     <use style="fill:#937860;stroke:#ffffff;stroke-linejoin:miter;stroke-width:0.75;" x="395.313468" xlink:href="#m1090443974" y="371.124282"/>
     <use style="fill:#937860;stroke:#ffffff;stroke-linejoin:miter;stroke-width:0.75;" x="411.275328" xlink:href="#m1090443974" y="367.714216"/>
     <use style="fill:#937860;stroke:#ffffff;stroke-linejoin:miter;stroke-width:0.75;" x="427.237187" xlink:href="#m1090443974" y="367.650437"/>
     <use style="fill:#937860;stroke:#ffffff;stroke-linejoin:miter;stroke-width:0.75;" x="443.199046" xlink:href="#m1090443974" y="368.98003"/>
     <use style="fill:#937860;stroke:#ffffff;stroke-linejoin:miter;stroke-width:0.75;" x="459.160906" xlink:href="#m1090443974" y="372.044507"/>
     <use style="fill:#937860;stroke:#ffffff;stroke-linejoin:miter;stroke-width:0.75;" x="475.122765" xlink:href="#m1090443974" y="370.826177"/>
     <use style="fill:#937860;stroke:#ffffff;stroke-linejoin:miter;stroke-width:0.75;" x="491.084625" xlink:href="#m1090443974" y="369.05175"/>
     <use style="fill:#937860;stroke:#ffffff;stroke-linejoin:miter;stroke-width:0.75;" x="507.046484" xlink:href="#m1090443974" y="369.609936"/>
     <use style="fill:#937860;stroke:#ffffff;stroke-linejoin:miter;stroke-width:0.75;" x="523.008343" xlink:href="#m1090443974" y="370.169786"/>
     <use style="fill:#937860;stroke:#ffffff;stroke-linejoin:miter;stroke-width:0.75;" x="538.970203" xlink:href="#m1090443974" y="369.789169"/>
     <use style="fill:#937860;stroke:#ffffff;stroke-linejoin:miter;stroke-width:0.75;" x="554.932062" xlink:href="#m1090443974" y="372.847639"/>
     <use style="fill:#937860;stroke:#ffffff;stroke-linejoin:miter;stroke-width:0.75;" x="570.893921" xlink:href="#m1090443974" y="368.408328"/>
     <use style="fill:#937860;stroke:#ffffff;stroke-linejoin:miter;stroke-width:0.75;" x="586.855781" xlink:href="#m1090443974" y="370.83642"/>
     <use style="fill:#937860;stroke:#ffffff;stroke-linejoin:miter;stroke-width:0.75;" x="602.81764" xlink:href="#m1090443974" y="370.208536"/>
     <use style="fill:#937860;stroke:#ffffff;stroke-linejoin:miter;stroke-width:0.75;" x="618.779499" xlink:href="#m1090443974" y="370.805647"/>
     <use style="fill:#937860;stroke:#ffffff;stroke-linejoin:miter;stroke-width:0.75;" x="634.741359" xlink:href="#m1090443974" y="371.212563"/>
     <use style="fill:#937860;stroke:#ffffff;stroke-linejoin:miter;stroke-width:0.75;" x="650.703218" xlink:href="#m1090443974" y="368.839545"/>
     <use style="fill:#937860;stroke:#ffffff;stroke-linejoin:miter;stroke-width:0.75;" x="666.665077" xlink:href="#m1090443974" y="370.844124"/>
     <use style="fill:#937860;stroke:#ffffff;stroke-linejoin:miter;stroke-width:0.75;" x="682.626937" xlink:href="#m1090443974" y="371.66588"/>
     <use style="fill:#937860;stroke:#ffffff;stroke-linejoin:miter;stroke-width:0.75;" x="698.588796" xlink:href="#m1090443974" y="370.55907"/>
     <use style="fill:#937860;stroke:#ffffff;stroke-linejoin:miter;stroke-width:0.75;" x="714.550656" xlink:href="#m1090443974" y="369.795596"/>
     <use style="fill:#937860;stroke:#ffffff;stroke-linejoin:miter;stroke-width:0.75;" x="730.512515" xlink:href="#m1090443974" y="372.568092"/>
     <use style="fill:#937860;stroke:#ffffff;stroke-linejoin:miter;stroke-width:0.75;" x="746.474374" xlink:href="#m1090443974" y="370.720967"/>
    </g>
   </g>
   <g id="line2d_18"/>
   <g id="line2d_19"/>
   <g id="line2d_20"/>
   <g id="line2d_21"/>
   <g id="line2d_22"/>
   <g id="line2d_23"/>
   <g id="patch_3">
    <path d="M 108 504 
L 108 69.12 
" style="fill:none;stroke:#cccccc;stroke-linecap:square;stroke-linejoin:miter;stroke-width:1.25;"/>
   </g>
   <g id="patch_4">
    <path d="M 777.6 504 
L 777.6 69.12 
" style="fill:none;stroke:#cccccc;stroke-linecap:square;stroke-linejoin:miter;stroke-width:1.25;"/>
   </g>
   <g id="patch_5">
    <path d="M 108 504 
L 777.6 504 
" style="fill:none;stroke:#cccccc;stroke-linecap:square;stroke-linejoin:miter;stroke-width:1.25;"/>
   </g>
   <g id="patch_6">
    <path d="M 108 69.12 
L 777.6 69.12 
" style="fill:none;stroke:#cccccc;stroke-linecap:square;stroke-linejoin:miter;stroke-width:1.25;"/>
   </g>
   <g id="text_14">
    <!-- Binary Classifier: F1_Score - Benefit-Cost Ratio -->
    <g style="fill:#262626;" transform="translate(252.741094 57.12)scale(0.18 -0.18)">
     <defs>
      <path d="M 7.328125 0 
L 7.328125 71.578125 
L 34.1875 71.578125 
Q 42.390625 71.578125 47.34375 69.40625 
Q 52.296875 67.234375 55.09375 62.71875 
Q 57.90625 58.203125 57.90625 53.265625 
Q 57.90625 48.6875 55.421875 44.625 
Q 52.9375 40.578125 47.90625 38.09375 
Q 54.390625 36.1875 57.875 31.59375 
Q 61.375 27 61.375 20.75 
Q 61.375 15.71875 59.25 11.390625 
Q 57.125 7.078125 54 4.734375 
Q 50.875 2.390625 46.15625 1.1875 
Q 41.453125 0 34.625 0 
z
M 16.796875 41.5 
L 32.28125 41.5 
Q 38.578125 41.5 41.3125 42.328125 
Q 44.921875 43.40625 46.75 45.890625 
Q 48.578125 48.390625 48.578125 52.15625 
Q 48.578125 55.71875 46.875 58.421875 
Q 45.171875 61.140625 41.984375 62.140625 
Q 38.8125 63.140625 31.109375 63.140625 
L 16.796875 63.140625 
z
M 16.796875 8.453125 
L 34.625 8.453125 
Q 39.203125 8.453125 41.0625 8.796875 
Q 44.34375 9.375 46.53125 10.734375 
Q 48.734375 12.109375 50.140625 14.71875 
Q 51.5625 17.328125 51.5625 20.75 
Q 51.5625 24.75 49.515625 27.703125 
Q 47.46875 30.671875 43.828125 31.859375 
Q 40.1875 33.0625 33.34375 33.0625 
L 16.796875 33.0625 
z
" id="ArialMT-66"/>
      <path d="M 6.59375 0 
L 6.59375 51.859375 
L 14.5 51.859375 
L 14.5 44.484375 
Q 20.21875 53.03125 31 53.03125 
Q 35.6875 53.03125 39.625 51.34375 
Q 43.5625 49.65625 45.515625 46.921875 
Q 47.46875 44.1875 48.25 40.4375 
Q 48.734375 37.984375 48.734375 31.890625 
L 48.734375 0 
L 39.9375 0 
L 39.9375 31.546875 
Q 39.9375 36.921875 38.90625 39.578125 
Q 37.890625 42.234375 35.28125 43.8125 
Q 32.671875 45.40625 29.15625 45.40625 
Q 23.53125 45.40625 19.453125 41.84375 
Q 15.375 38.28125 15.375 28.328125 
L 15.375 0 
z
" id="ArialMT-110"/>
      <path d="M 6.203125 -19.96875 
L 5.21875 -11.71875 
Q 8.109375 -12.5 10.25 -12.5 
Q 13.1875 -12.5 14.9375 -11.515625 
Q 16.703125 -10.546875 17.828125 -8.796875 
Q 18.65625 -7.46875 20.515625 -2.25 
Q 20.75 -1.515625 21.296875 -0.09375 
L 1.609375 51.859375 
L 11.078125 51.859375 
L 21.875 21.828125 
Q 23.96875 16.109375 25.640625 9.8125 
Q 27.15625 15.875 29.25 21.625 
L 40.328125 51.859375 
L 49.125 51.859375 
L 29.390625 -0.875 
Q 26.21875 -9.421875 24.46875 -12.640625 
Q 22.125 -17 19.09375 -19.015625 
Q 16.0625 -21.046875 11.859375 -21.046875 
Q 9.328125 -21.046875 6.203125 -19.96875 
z
" id="ArialMT-121"/>
      <path d="M 58.796875 25.09375 
L 68.265625 22.703125 
Q 65.28125 11.03125 57.546875 4.90625 
Q 49.8125 -1.21875 38.625 -1.21875 
Q 27.046875 -1.21875 19.796875 3.484375 
Q 12.546875 8.203125 8.765625 17.140625 
Q 4.984375 26.078125 4.984375 36.328125 
Q 4.984375 47.515625 9.25 55.828125 
Q 13.53125 64.15625 21.40625 68.46875 
Q 29.296875 72.796875 38.765625 72.796875 
Q 49.515625 72.796875 56.828125 67.328125 
Q 64.15625 61.859375 67.046875 51.953125 
L 57.71875 49.75 
Q 55.21875 57.5625 50.484375 61.125 
Q 45.75 64.703125 38.578125 64.703125 
Q 30.328125 64.703125 24.78125 60.734375 
Q 19.234375 56.78125 16.984375 50.109375 
Q 14.75 43.453125 14.75 36.375 
Q 14.75 27.25 17.40625 20.4375 
Q 20.0625 13.625 25.671875 10.25 
Q 31.296875 6.890625 37.84375 6.890625 
Q 45.796875 6.890625 51.3125 11.46875 
Q 56.84375 16.0625 58.796875 25.09375 
z
" id="ArialMT-67"/>
      <path d="M 6.390625 0 
L 6.390625 71.578125 
L 15.1875 71.578125 
L 15.1875 0 
z
" id="ArialMT-108"/>
      <path d="M 9.03125 41.84375 
L 9.03125 51.859375 
L 19.046875 51.859375 
L 19.046875 41.84375 
z
M 9.03125 0 
L 9.03125 10.015625 
L 19.046875 10.015625 
L 19.046875 0 
z
" id="ArialMT-58"/>
      <path d="M 3.171875 21.484375 
L 3.171875 30.328125 
L 30.171875 30.328125 
L 30.171875 21.484375 
z
" id="ArialMT-45"/>
      <path d="M 7.859375 0 
L 7.859375 71.578125 
L 39.59375 71.578125 
Q 49.171875 71.578125 54.140625 69.640625 
Q 59.125 67.71875 62.109375 62.828125 
Q 65.09375 57.953125 65.09375 52.046875 
Q 65.09375 44.4375 60.15625 39.203125 
Q 55.21875 33.984375 44.921875 32.5625 
Q 48.6875 30.765625 50.640625 29 
Q 54.78125 25.203125 58.5 19.484375 
L 70.953125 0 
L 59.03125 0 
L 49.5625 14.890625 
Q 45.40625 21.34375 42.71875 24.75 
Q 40.046875 28.171875 37.921875 29.53125 
Q 35.796875 30.90625 33.59375 31.453125 
Q 31.984375 31.78125 28.328125 31.78125 
L 17.328125 31.78125 
L 17.328125 0 
z
M 17.328125 39.984375 
L 37.703125 39.984375 
Q 44.1875 39.984375 47.84375 41.328125 
Q 51.515625 42.671875 53.421875 45.625 
Q 55.328125 48.578125 55.328125 52.046875 
Q 55.328125 57.125 51.640625 60.390625 
Q 47.953125 63.671875 39.984375 63.671875 
L 17.328125 63.671875 
z
" id="ArialMT-82"/>
     </defs>
     <use xlink:href="#ArialMT-66"/>
     <use x="66.699219" xlink:href="#ArialMT-105"/>
     <use x="88.916016" xlink:href="#ArialMT-110"/>
     <use x="144.53125" xlink:href="#ArialMT-97"/>
     <use x="200.146484" xlink:href="#ArialMT-114"/>
     <use x="233.447266" xlink:href="#ArialMT-121"/>
     <use x="283.447266" xlink:href="#ArialMT-32"/>
     <use x="311.230469" xlink:href="#ArialMT-67"/>
     <use x="383.447266" xlink:href="#ArialMT-108"/>
     <use x="405.664062" xlink:href="#ArialMT-97"/>
     <use x="461.279297" xlink:href="#ArialMT-115"/>
     <use x="511.279297" xlink:href="#ArialMT-115"/>
     <use x="561.279297" xlink:href="#ArialMT-105"/>
     <use x="583.496094" xlink:href="#ArialMT-102"/>
     <use x="611.279297" xlink:href="#ArialMT-105"/>
     <use x="633.496094" xlink:href="#ArialMT-101"/>
     <use x="689.111328" xlink:href="#ArialMT-114"/>
     <use x="722.412109" xlink:href="#ArialMT-58"/>
     <use x="750.195312" xlink:href="#ArialMT-32"/>
     <use x="777.978516" xlink:href="#ArialMT-70"/>
     <use x="839.0625" xlink:href="#ArialMT-49"/>
     <use x="894.677734" xlink:href="#ArialMT-95"/>
     <use x="950.292969" xlink:href="#ArialMT-83"/>
     <use x="1016.992188" xlink:href="#ArialMT-99"/>
     <use x="1066.992188" xlink:href="#ArialMT-111"/>
     <use x="1122.607422" xlink:href="#ArialMT-114"/>
     <use x="1155.908203" xlink:href="#ArialMT-101"/>
     <use x="1211.523438" xlink:href="#ArialMT-32"/>
     <use x="1239.306641" xlink:href="#ArialMT-45"/>
     <use x="1272.607422" xlink:href="#ArialMT-32"/>
     <use x="1300.390625" xlink:href="#ArialMT-66"/>
     <use x="1367.089844" xlink:href="#ArialMT-101"/>
     <use x="1422.705078" xlink:href="#ArialMT-110"/>
     <use x="1478.320312" xlink:href="#ArialMT-101"/>
     <use x="1533.935547" xlink:href="#ArialMT-102"/>
     <use x="1561.71875" xlink:href="#ArialMT-105"/>
     <use x="1583.935547" xlink:href="#ArialMT-116"/>
     <use x="1611.71875" xlink:href="#ArialMT-45"/>
     <use x="1645.019531" xlink:href="#ArialMT-67"/>
     <use x="1717.236328" xlink:href="#ArialMT-111"/>
     <use x="1772.851562" xlink:href="#ArialMT-115"/>
     <use x="1822.851562" xlink:href="#ArialMT-116"/>
     <use x="1850.634766" xlink:href="#ArialMT-32"/>
     <use x="1878.417969" xlink:href="#ArialMT-82"/>
     <use x="1950.634766" xlink:href="#ArialMT-97"/>
     <use x="2006.25" xlink:href="#ArialMT-116"/>
     <use x="2034.033203" xlink:href="#ArialMT-105"/>
     <use x="2056.25" xlink:href="#ArialMT-111"/>
    </g>
   </g>
   <g id="legend_1">
    <g id="patch_7">
     <path d="M 604.19225 498.8 
L 769.52 498.8 
Q 772.4 498.8 772.4 495.92 
L 772.4 375.1445 
Q 772.4 372.2645 769.52 372.2645 
L 604.19225 372.2645 
Q 601.31225 372.2645 601.31225 375.1445 
L 601.31225 495.92 
Q 601.31225 498.8 604.19225 498.8 
z
" style="fill:#4c4c4c;opacity:0.5;stroke:#4c4c4c;stroke-linejoin:miter;"/>
    </g>
    <g id="patch_8">
     <path d="M 602.19225 496.8 
L 767.52 496.8 
Q 770.4 496.8 770.4 493.92 
L 770.4 373.1445 
Q 770.4 370.2645 767.52 370.2645 
L 602.19225 370.2645 
Q 599.31225 370.2645 599.31225 373.1445 
L 599.31225 493.92 
Q 599.31225 496.8 602.19225 496.8 
z
" style="fill:#ffffff;stroke:#cccccc;stroke-linejoin:miter;"/>
    </g>
    <g id="line2d_24">
     <path d="M 605.07225 381.29175 
L 633.87225 381.29175 
" style="fill:none;stroke:#4c72b0;stroke-linecap:round;stroke-width:1.5;"/>
    </g>
    <g id="line2d_25">
     <defs>
      <path d="M -0 3 
L 3 -3 
L -3 -3 
z
" id="ma7e5ef6d28" style="stroke:#4c72b0;stroke-linejoin:miter;"/>
     </defs>
     <g>
      <use style="fill:#4c72b0;stroke:#4c72b0;stroke-linejoin:miter;" x="619.47225" xlink:href="#ma7e5ef6d28" y="381.29175"/>
     </g>
    </g>
    <g id="text_15">
     <!-- Mutual Information -->
     <g style="fill:#262626;" transform="translate(645.39225 386.33175)scale(0.144 -0.144)">
      <defs>
       <path d="M 7.421875 0 
L 7.421875 71.578125 
L 21.6875 71.578125 
L 38.625 20.90625 
Q 40.96875 13.8125 42.046875 10.296875 
Q 43.265625 14.203125 45.84375 21.78125 
L 62.984375 71.578125 
L 75.734375 71.578125 
L 75.734375 0 
L 66.609375 0 
L 66.609375 59.90625 
L 45.796875 0 
L 37.25 0 
L 16.546875 60.9375 
L 16.546875 0 
z
" id="ArialMT-77"/>
       <path d="M 9.328125 0 
L 9.328125 71.578125 
L 18.796875 71.578125 
L 18.796875 0 
z
" id="ArialMT-73"/>
      </defs>
      <use xlink:href="#ArialMT-77"/>
      <use x="83.300781" xlink:href="#ArialMT-117"/>
      <use x="138.916016" xlink:href="#ArialMT-116"/>
      <use x="166.699219" xlink:href="#ArialMT-117"/>
      <use x="222.314453" xlink:href="#ArialMT-97"/>
      <use x="277.929688" xlink:href="#ArialMT-108"/>
      <use x="300.146484" xlink:href="#ArialMT-32"/>
      <use x="327.929688" xlink:href="#ArialMT-73"/>
      <use x="355.712891" xlink:href="#ArialMT-110"/>
      <use x="411.328125" xlink:href="#ArialMT-102"/>
      <use x="439.111328" xlink:href="#ArialMT-111"/>
      <use x="494.726562" xlink:href="#ArialMT-114"/>
      <use x="528.027344" xlink:href="#ArialMT-109"/>
      <use x="611.328125" xlink:href="#ArialMT-97"/>
      <use x="666.943359" xlink:href="#ArialMT-116"/>
      <use x="694.726562" xlink:href="#ArialMT-105"/>
      <use x="716.943359" xlink:href="#ArialMT-111"/>
      <use x="772.558594" xlink:href="#ArialMT-110"/>
     </g>
    </g>
    <g id="line2d_26">
     <path d="M 605.07225 401.661 
L 633.87225 401.661 
" style="fill:none;stroke:#dd8452;stroke-dasharray:6,2.25;stroke-dashoffset:0;stroke-width:1.5;"/>
    </g>
    <g id="line2d_27">
     <defs>
      <path d="M 0 3 
C 0.795609 3 1.55874 2.683901 2.12132 2.12132 
C 2.683901 1.55874 3 0.795609 3 0 
C 3 -0.795609 2.683901 -1.55874 2.12132 -2.12132 
C 1.55874 -2.683901 0.795609 -3 0 -3 
C -0.795609 -3 -1.55874 -2.683901 -2.12132 -2.12132 
C -2.683901 -1.55874 -3 -0.795609 -3 0 
C -3 0.795609 -2.683901 1.55874 -2.12132 2.12132 
C -1.55874 2.683901 -0.795609 3 0 3 
z
" id="m4fd726b863" style="stroke:#dd8452;"/>
     </defs>
     <g>
      <use style="fill:#dd8452;stroke:#dd8452;" x="619.47225" xlink:href="#m4fd726b863" y="401.661"/>
     </g>
    </g>
    <g id="text_16">
     <!-- ANOVA -->
     <g style="fill:#262626;" transform="translate(645.39225 406.701)scale(0.144 -0.144)">
      <defs>
       <path d="M -0.140625 0 
L 27.34375 71.578125 
L 37.546875 71.578125 
L 66.84375 0 
L 56.0625 0 
L 47.703125 21.6875 
L 17.78125 21.6875 
L 9.90625 0 
z
M 20.515625 29.390625 
L 44.78125 29.390625 
L 37.3125 49.21875 
Q 33.890625 58.25 32.234375 64.0625 
Q 30.859375 57.171875 28.375 50.390625 
z
" id="ArialMT-65"/>
       <path d="M 4.828125 34.859375 
Q 4.828125 52.6875 14.390625 62.765625 
Q 23.96875 72.859375 39.109375 72.859375 
Q 49.03125 72.859375 56.984375 68.109375 
Q 64.9375 63.375 69.109375 54.90625 
Q 73.296875 46.4375 73.296875 35.6875 
Q 73.296875 24.8125 68.890625 16.21875 
Q 64.5 7.625 56.4375 3.203125 
Q 48.390625 -1.21875 39.0625 -1.21875 
Q 28.953125 -1.21875 20.984375 3.65625 
Q 13.03125 8.546875 8.921875 16.984375 
Q 4.828125 25.4375 4.828125 34.859375 
z
M 14.59375 34.71875 
Q 14.59375 21.78125 21.546875 14.328125 
Q 28.515625 6.890625 39.015625 6.890625 
Q 49.703125 6.890625 56.609375 14.40625 
Q 63.53125 21.921875 63.53125 35.75 
Q 63.53125 44.484375 60.578125 51 
Q 57.625 57.515625 51.921875 61.109375 
Q 46.234375 64.703125 39.15625 64.703125 
Q 29.109375 64.703125 21.84375 57.78125 
Q 14.59375 50.875 14.59375 34.71875 
z
" id="ArialMT-79"/>
       <path d="M 28.171875 0 
L 0.4375 71.578125 
L 10.6875 71.578125 
L 29.296875 19.578125 
Q 31.546875 13.328125 33.0625 7.859375 
Q 34.71875 13.71875 36.921875 19.578125 
L 56.25 71.578125 
L 65.921875 71.578125 
L 37.890625 0 
z
" id="ArialMT-86"/>
      </defs>
      <use xlink:href="#ArialMT-65"/>
      <use x="66.699219" xlink:href="#ArialMT-78"/>
      <use x="138.916016" xlink:href="#ArialMT-79"/>
      <use x="216.699219" xlink:href="#ArialMT-86"/>
      <use x="276.023438" xlink:href="#ArialMT-65"/>
     </g>
    </g>
    <g id="line2d_28">
     <path d="M 605.07225 422.03025 
L 633.87225 422.03025 
" style="fill:none;stroke:#55a868;stroke-dasharray:1.5,1.5;stroke-dashoffset:0;stroke-width:1.5;"/>
    </g>
    <g id="line2d_29">
     <defs>
      <path d="M -3 3 
L 3 3 
L 3 -3 
L -3 -3 
z
" id="meb5982b93e" style="stroke:#55a868;stroke-linejoin:miter;"/>
     </defs>
     <g>
      <use style="fill:#55a868;stroke:#55a868;stroke-linejoin:miter;" x="619.47225" xlink:href="#meb5982b93e" y="422.03025"/>
     </g>
    </g>
    <g id="text_17">
     <!-- ReliefF -->
     <g style="fill:#262626;" transform="translate(645.39225 427.07025)scale(0.144 -0.144)">
      <use xlink:href="#ArialMT-82"/>
      <use x="72.216797" xlink:href="#ArialMT-101"/>
      <use x="127.832031" xlink:href="#ArialMT-108"/>
      <use x="150.048828" xlink:href="#ArialMT-105"/>
      <use x="172.265625" xlink:href="#ArialMT-101"/>
      <use x="227.880859" xlink:href="#ArialMT-102"/>
      <use x="255.664062" xlink:href="#ArialMT-70"/>
     </g>
    </g>
    <g id="line2d_30">
     <path d="M 605.07225 442.3995 
L 633.87225 442.3995 
" style="fill:none;stroke:#c44e52;stroke-dasharray:4.5,1.875,2.25,1.875;stroke-dashoffset:0;stroke-width:1.5;"/>
    </g>
    <g id="line2d_31">
     <defs>
      <path d="M 0 -3 
L -3 3 
L 3 3 
z
" id="mad1eb9ccf0" style="stroke:#c44e52;stroke-linejoin:miter;"/>
     </defs>
     <g>
      <use style="fill:#c44e52;stroke:#c44e52;stroke-linejoin:miter;" x="619.47225" xlink:href="#mad1eb9ccf0" y="442.3995"/>
     </g>
    </g>
    <g id="text_18">
     <!-- RFE -->
     <g style="fill:#262626;" transform="translate(645.39225 447.4395)scale(0.144 -0.144)">
      <defs>
       <path d="M 7.90625 0 
L 7.90625 71.578125 
L 59.671875 71.578125 
L 59.671875 63.140625 
L 17.390625 63.140625 
L 17.390625 41.21875 
L 56.984375 41.21875 
L 56.984375 32.8125 
L 17.390625 32.8125 
L 17.390625 8.453125 
L 61.328125 8.453125 
L 61.328125 0 
z
" id="ArialMT-69"/>
      </defs>
      <use xlink:href="#ArialMT-82"/>
      <use x="72.216797" xlink:href="#ArialMT-70"/>
      <use x="133.300781" xlink:href="#ArialMT-69"/>
     </g>
    </g>
    <g id="line2d_32">
     <path d="M 605.07225 462.76875 
L 633.87225 462.76875 
" style="fill:none;stroke:#8172b3;stroke-dasharray:7.5,1.5,1.5,1.5;stroke-dashoffset:0;stroke-width:1.5;"/>
    </g>
    <g id="line2d_33">
     <defs>
      <path d="M 0 4.242641 
L 2.545584 0 
L 0 -4.242641 
L -2.545584 0 
z
" id="m0bd65cfd5d" style="stroke:#8172b3;stroke-linejoin:miter;"/>
     </defs>
     <g>
      <use style="fill:#8172b3;stroke:#8172b3;stroke-linejoin:miter;" x="619.47225" xlink:href="#m0bd65cfd5d" y="462.76875"/>
     </g>
    </g>
    <g id="text_19">
     <!-- XGBoost Gain -->
     <g style="fill:#262626;" transform="translate(645.39225 467.80875)scale(0.144 -0.144)">
      <defs>
       <path d="M 0.4375 0 
L 28.125 37.3125 
L 3.71875 71.578125 
L 14.984375 71.578125 
L 27.984375 53.21875 
Q 32.03125 47.515625 33.734375 44.4375 
Q 36.140625 48.34375 39.40625 52.59375 
L 53.8125 71.578125 
L 64.109375 71.578125 
L 38.96875 37.84375 
L 66.0625 0 
L 54.34375 0 
L 36.328125 25.53125 
Q 34.8125 27.734375 33.203125 30.328125 
Q 30.8125 26.421875 29.78125 24.953125 
L 11.8125 0 
z
" id="ArialMT-88"/>
       <path d="M 41.21875 28.078125 
L 41.21875 36.46875 
L 71.53125 36.53125 
L 71.53125 9.96875 
Q 64.546875 4.390625 57.125 1.578125 
Q 49.703125 -1.21875 41.890625 -1.21875 
Q 31.34375 -1.21875 22.71875 3.296875 
Q 14.109375 7.8125 9.71875 16.359375 
Q 5.328125 24.90625 5.328125 35.453125 
Q 5.328125 45.90625 9.6875 54.953125 
Q 14.0625 64.015625 22.265625 68.40625 
Q 30.46875 72.796875 41.15625 72.796875 
Q 48.921875 72.796875 55.1875 70.28125 
Q 61.46875 67.78125 65.03125 63.28125 
Q 68.609375 58.796875 70.453125 51.5625 
L 61.921875 49.21875 
Q 60.296875 54.6875 57.90625 57.8125 
Q 55.515625 60.9375 51.0625 62.8125 
Q 46.625 64.703125 41.21875 64.703125 
Q 34.71875 64.703125 29.984375 62.71875 
Q 25.25 60.75 22.34375 57.515625 
Q 19.4375 54.296875 17.828125 50.4375 
Q 15.09375 43.796875 15.09375 36.03125 
Q 15.09375 26.46875 18.390625 20.015625 
Q 21.6875 13.578125 27.984375 10.453125 
Q 34.28125 7.328125 41.359375 7.328125 
Q 47.515625 7.328125 53.375 9.6875 
Q 59.234375 12.0625 62.25 14.75 
L 62.25 28.078125 
z
" id="ArialMT-71"/>
      </defs>
      <use xlink:href="#ArialMT-88"/>
      <use x="66.699219" xlink:href="#ArialMT-71"/>
      <use x="144.482422" xlink:href="#ArialMT-66"/>
      <use x="211.181641" xlink:href="#ArialMT-111"/>
      <use x="266.796875" xlink:href="#ArialMT-111"/>
      <use x="322.412109" xlink:href="#ArialMT-115"/>
      <use x="372.412109" xlink:href="#ArialMT-116"/>
      <use x="400.195312" xlink:href="#ArialMT-32"/>
      <use x="427.978516" xlink:href="#ArialMT-71"/>
      <use x="505.761719" xlink:href="#ArialMT-97"/>
      <use x="561.376953" xlink:href="#ArialMT-105"/>
      <use x="583.59375" xlink:href="#ArialMT-110"/>
     </g>
    </g>
    <g id="line2d_34">
     <path d="M 605.07225 483.138 
L 633.87225 483.138 
" style="fill:none;stroke:#937860;stroke-dasharray:4.5,1.875,1.875,1.875,1.875,1.875;stroke-dashoffset:0;stroke-width:1.5;"/>
    </g>
    <g id="line2d_35">
     <defs>
      <path d="M -1 3 
L 1 3 
L 1 1 
L 3 1 
L 3 -1 
L 1 -1 
L 1 -3 
L -1 -3 
L -1 -1 
L -3 -1 
L -3 1 
L -1 1 
z
" id="m30084d471f" style="stroke:#937860;stroke-linejoin:miter;"/>
     </defs>
     <g>
      <use style="fill:#937860;stroke:#937860;stroke-linejoin:miter;" x="619.47225" xlink:href="#m30084d471f" y="483.138"/>
     </g>
    </g>
    <g id="text_20">
     <!-- Ensemble -->
     <g style="fill:#262626;" transform="translate(645.39225 488.178)scale(0.144 -0.144)">
      <use xlink:href="#ArialMT-69"/>
      <use x="66.699219" xlink:href="#ArialMT-110"/>
      <use x="122.314453" xlink:href="#ArialMT-115"/>
      <use x="172.314453" xlink:href="#ArialMT-101"/>
      <use x="227.929688" xlink:href="#ArialMT-109"/>
      <use x="311.230469" xlink:href="#ArialMT-98"/>
      <use x="366.845703" xlink:href="#ArialMT-108"/>
      <use x="389.0625" xlink:href="#ArialMT-101"/>
     </g>
    </g>
   </g>
  </g>
 </g>
 <defs>
  <clipPath id="pc1a5615959">
   <rect height="434.88" width="669.6" x="108" y="69.12"/>
  </clipPath>
 </defs>
</svg>
